<svg width="259" height="192" viewBox="0 0 259 192" fill="none" xmlns="http://www.w3.org/2000/svg">
<path fill-rule="evenodd" clip-rule="evenodd" d="M147.279 5.83506C148.886 3.74916 150.787 1.90522 152.922 0.360149C153.268 0.116214 153.683 -0.00989759 154.107 0.000606838C154.53 0.0111113 154.938 0.157668 155.271 0.418443C155.604 0.679217 155.844 1.04026 155.954 1.44777C156.065 1.85529 156.04 2.28748 155.884 2.67996C154.507 5.29393 152.791 7.71632 150.781 9.88508C148.929 12.1381 147.114 14.4231 145.379 16.7678C142.375 20.7131 139.713 24.9055 137.421 29.2999C135.296 33.5133 133.564 37.9089 131.847 42.2979C131.621 42.8737 131.397 43.4496 131.173 44.0253L131.173 44.026L131.172 44.0267C129.663 47.9036 128.158 51.7699 126.295 55.5002C124.087 59.6819 121.487 63.6455 118.529 67.3378C117.841 68.2409 116.503 67.1743 117.148 66.2607C118.653 63.9897 119.89 61.5529 120.835 58.9987C121.839 56.4967 122.787 53.9743 123.634 51.4176C126.187 42.2585 129.563 33.3481 133.724 24.7949C136.251 20.2339 139.148 15.8869 142.386 11.7975C143.973 9.77521 145.611 7.79272 147.279 5.83506ZM254.947 160.659C255.577 162.708 256.21 164.769 256.716 166.852C257.162 168.856 257.34 170.911 257.246 172.962C257.227 174.062 255.633 175.153 254.897 173.891L253.138 170.867C252.613 169.825 252.191 168.734 251.881 167.609C251.559 166.61 251.233 165.612 250.907 164.614L250.905 164.61C250.523 163.441 250.141 162.272 249.766 161.101C248.406 156.809 246.941 152.557 245.37 148.343C243.001 141.988 240.423 135.711 237.845 129.433L237.845 129.433L237.845 129.433L237.845 129.433L237.845 129.433L237.845 129.432L237.845 129.432L237.845 129.432L237.845 129.432C234.228 120.623 230.611 111.815 227.57 102.793C225.964 98.0311 224.614 93.208 223.262 88.382C222.41 85.3364 221.556 82.2897 220.639 79.2565C219.476 75.3918 217.953 71.6441 216.089 68.0627C215.179 66.317 214.222 64.5923 213.236 62.8881C212.699 61.961 212.203 61.0134 211.707 60.0657C211.246 59.1848 210.785 58.304 210.292 57.4396C210.235 57.3459 210.199 57.2418 210.185 57.1335C210.17 57.0253 210.178 56.9153 210.208 56.8103L209.527 56.1423C208.524 55.1938 207.577 54.1883 206.69 53.1307C205.737 51.9987 204.821 50.834 203.906 49.6692L203.905 49.669L203.905 49.6686L203.904 49.6678C203.124 48.6751 202.343 47.6823 201.54 46.7095C195.396 39.2731 189.097 31.9112 182.451 24.928C175.806 17.9448 169.024 11.0119 161.796 4.6255C161.621 4.47999 161.509 4.27228 161.485 4.04636C161.461 3.82043 161.526 3.59402 161.667 3.41507C161.807 3.23612 162.012 3.11868 162.237 3.08761C162.463 3.05655 162.692 3.11429 162.876 3.24862L163.803 3.93154C167.964 6.99501 172.139 10.0684 176.101 13.3814C183.673 19.6269 190.814 26.3738 197.476 33.5762C200.761 37.1752 203.962 40.8498 207.013 44.6481C208.621 46.5242 210.126 48.4854 211.521 50.5233C212.238 51.6192 212.899 52.7509 213.5 53.9141C214.158 54.9177 214.575 56.0595 214.718 57.2503C214.733 57.4387 214.71 57.6281 214.65 57.8073C214.589 57.9865 214.493 58.1517 214.367 58.293C214.242 58.4343 214.088 58.5487 213.917 58.6293C213.745 58.71 213.559 58.7553 213.37 58.7624C214.257 59.786 215.136 60.8139 215.952 61.9015C217.299 63.6985 218.584 65.5336 219.777 67.4366C222.229 71.3126 224.242 75.4486 225.777 79.7683C226.762 82.5828 227.632 85.4331 228.503 88.284L228.504 88.2895L228.506 88.294L228.507 88.2974C228.849 89.4202 229.192 90.543 229.542 91.6638C230.756 95.5493 232.095 99.3923 233.444 103.233C235.805 109.95 238.369 116.599 240.93 123.244L240.933 123.25L240.936 123.257L240.938 123.263L240.941 123.27L240.943 123.277C241.335 124.294 241.728 125.311 242.119 126.329C243.12 128.93 244.13 131.527 245.14 134.125L245.14 134.125L245.14 134.126L245.141 134.127L245.141 134.127L245.141 134.128L245.141 134.128L245.142 134.129L245.142 134.13L245.142 134.131C247.086 139.128 249.029 144.125 250.904 149.149L250.95 149.269C252.355 153.034 253.767 156.818 254.947 160.659ZM104.416 74.2266C107.827 72.9673 111.327 71.9741 114.846 71.0593C115.644 70.8523 116.145 71.9653 115.332 72.2833C111.419 73.9227 107.625 75.8335 103.98 78.0017C100.357 80.0417 96.8674 82.3098 93.5335 84.7922C91.9335 85.8646 90.4763 87.1349 89.1969 88.5728C88.1076 90.0049 87.3782 91.6762 87.0699 93.447C86.69 95.3108 86.3926 97.226 86.1212 99.1102C85.7678 100.956 85.8781 102.861 86.4424 104.654C86.5195 104.865 86.5264 105.095 86.4622 105.31C86.398 105.525 86.2661 105.714 86.0859 105.848C85.9058 105.982 85.687 106.055 85.462 106.056C85.237 106.057 85.0177 105.986 84.8365 105.853C83.6078 104.417 82.7407 102.709 82.3073 100.872C81.8738 99.0342 81.8866 97.1202 82.3445 95.2887C82.4958 91.757 83.7894 88.3688 86.0321 85.6308C88.5424 83.1331 91.3804 80.9859 94.4688 79.2477C97.6072 77.2459 100.94 75.5637 104.416 74.2266ZM124.149 88.032C128.308 86.3182 132.948 86.1644 137.212 87.5991C138.116 88.0435 138.366 89.7136 137.174 90.0133C135.374 90.4673 133.55 90.7412 131.727 91.0151C129.397 91.365 127.069 91.7147 124.792 92.4397C121.069 93.6495 117.448 95.1507 113.963 96.9292C112.176 98.0295 110.192 98.7726 108.121 99.117C106.23 99.2905 104.343 98.7546 102.828 97.6143C101.907 96.82 101.169 95.8372 100.664 94.7328C100.159 93.6284 99.8993 92.4284 99.9018 91.2147C98.5624 93.0025 97.1285 94.718 95.6062 96.3539C95.4663 96.5183 95.2681 96.6223 95.053 96.6441C94.838 96.666 94.6227 96.604 94.4525 96.4712C94.2822 96.3383 94.1702 96.145 94.1397 95.9316C94.1093 95.7182 94.1629 95.5014 94.2894 95.3265C96.0959 92.6483 98.0834 90.0958 100.238 87.6869C101.011 84.5738 102.823 81.8149 105.375 79.8624C105.501 79.7729 105.654 79.7267 105.809 79.7305C105.964 79.7343 106.114 79.788 106.236 79.8836C106.358 79.9792 106.446 80.1116 106.486 80.2609C106.526 80.4103 106.517 80.5687 106.46 80.7126C106.109 81.7679 105.647 82.7673 105.186 83.7668L105.185 83.7669C104.778 84.6496 104.37 85.5324 104.038 86.4541C103.688 87.2016 103.5 88.0145 103.486 88.8394C103.473 89.6644 103.635 90.4829 103.961 91.2411C104.549 92.3579 105.495 93.2462 106.649 93.7641L107.327 93.842C107.808 93.8204 108.285 93.7418 108.748 93.6079C109.553 93.405 110.344 93.109 111.128 92.8155C111.411 92.7097 111.693 92.6043 111.974 92.5037C113.475 91.9667 114.956 91.3818 116.438 90.797C118.978 89.7942 121.517 88.7918 124.149 88.032ZM152.907 141.198C149.134 140.976 145.376 140.56 141.647 139.949C141.254 139.893 140.837 139.843 140.408 139.792C137.808 139.48 134.717 139.109 133.218 136.941C132.455 135.593 131.99 134.098 131.855 132.556C131.719 131.014 131.916 129.461 132.432 128.001C132.942 126.276 133.575 124.589 134.325 122.953L134.684 122.118C139.066 117.276 142.414 111.595 144.521 105.421C145.47 102.666 145.998 99.7851 146.089 96.8741C146.054 93.9841 145.473 91.1267 144.376 88.4511C144.278 88.2247 144.103 88.0404 143.881 87.931C143.659 87.8217 143.405 87.7944 143.165 87.8541C142.925 87.9137 142.714 88.0564 142.57 88.2568C142.425 88.4571 142.357 88.7021 142.377 88.948C142.427 91.3727 142.237 93.7964 141.811 96.184C141.505 98.4844 141.049 100.762 140.446 103.004C139.034 107.522 136.918 111.791 134.176 115.654C128.43 123.512 121.771 130.663 114.338 136.959C112.244 138.843 110.103 140.671 107.914 142.444C106.828 143.323 105.768 144.231 104.708 145.139L104.708 145.139L104.707 145.139C103.63 146.062 102.553 146.984 101.449 147.876C100.97 148.262 101.415 149.201 102.011 148.87C102.445 148.631 102.879 148.395 103.312 148.16L103.312 148.16C105.167 147.152 107.001 146.156 108.76 144.955C110.909 143.489 113.022 141.97 115.098 140.4C119.285 137.205 123.275 133.762 127.047 130.09L128.608 128.568C127.4 132.094 127.475 135.932 128.819 139.41C129.276 140.38 129.928 141.246 130.734 141.955C131.54 142.665 132.484 143.202 133.506 143.533C135.435 144.03 137.424 144.253 139.416 144.196C143.918 144.272 148.418 143.957 152.865 143.252C153.975 143.096 154.132 141.244 152.907 141.198ZM113.831 105.932C115.277 103.834 116.954 101.904 118.832 100.178C119.055 100.02 119.323 99.9381 119.597 99.9446C119.87 99.9511 120.134 100.046 120.349 100.214C120.564 100.383 120.719 100.617 120.789 100.88C120.86 101.144 120.843 101.423 120.741 101.676C119.47 104.216 117.904 106.598 116.074 108.773C114.348 111.053 112.596 113.313 110.818 115.554C107.311 119.97 103.681 124.299 99.82 128.417C96.3351 132.131 92.6542 135.659 88.8592 139.053C86.983 140.726 85.0808 142.368 83.1526 143.979C82.1371 144.828 81.1557 145.713 80.1745 146.598L80.174 146.599L80.1739 146.599L80.1738 146.599L80.1737 146.599L80.1736 146.599L80.1735 146.599L80.1735 146.599L80.1734 146.599L80.1733 146.599L80.1732 146.599L80.1731 146.6L80.173 146.6L80.1729 146.6L80.1728 146.6L80.1727 146.6L80.1726 146.6L80.1725 146.6L80.1724 146.6C79.2832 147.402 78.3941 148.204 77.4798 148.978C75.2088 150.903 72.8513 152.729 70.4942 154.554C68.774 155.886 67.0539 157.219 65.3677 158.589C61.6325 161.625 57.8075 164.539 53.9793 167.456L53.9792 167.456L53.9791 167.456L53.9789 167.456L53.9788 167.456L53.9787 167.457L53.9786 167.457L53.9784 167.457L53.9783 167.457L53.9782 167.457L53.9781 167.457L53.9779 167.457L53.9778 167.457L53.9777 167.457L53.9776 167.457L53.9774 167.457L53.9773 167.458L53.9772 167.458L53.977 167.458C53.4892 167.829 53.0013 168.201 52.5136 168.573L52.3921 168.666L52.392 168.666C48.4886 171.64 44.5574 174.635 40.4298 177.296C38.4086 178.604 36.3084 179.786 34.1412 180.835C32.9958 181.398 31.8162 181.89 30.6092 182.305C30.0308 182.499 29.435 182.64 28.8386 182.782L28.8372 182.782L28.8368 182.782L28.8365 182.782L28.8362 182.782L28.8359 182.782L28.8356 182.782L28.8353 182.782L28.8349 182.783L28.8347 182.783C28.404 182.885 27.9732 182.987 27.5485 183.109C23.142 184.231 18.6616 185.042 14.1406 185.536C11.911 185.847 9.70696 186.319 7.54579 186.948C5.30214 187.55 3.13274 188.399 1.07776 189.48C0.362287 189.883 -0.437357 188.924 0.282545 188.431C2.28671 187.014 4.48403 185.891 6.80762 185.095C8.82995 184.415 10.8983 183.945 12.9769 183.473L12.9876 183.471C13.3512 183.388 13.7151 183.306 14.0792 183.222C15.8449 182.815 17.6153 182.442 19.3874 182.068C20.0728 181.924 20.7585 181.779 21.4443 181.632C23.904 181.258 26.2915 180.51 28.5237 179.414C29.3688 178.926 30.2323 178.484 31.096 178.042C32.3073 177.422 33.5188 176.801 34.68 176.057C36.6691 174.781 38.5846 173.387 40.4674 171.957C42.6723 170.281 44.8481 168.566 47.0239 166.851L47.0249 166.85C48.8593 165.404 50.6937 163.959 52.5457 162.536C54.31 161.185 56.0821 159.846 57.8619 158.517L57.7816 158.538C55.8695 159.083 53.9068 159.433 51.9238 159.583C44.7495 159.296 37.5758 160.166 30.6795 162.159C27.5657 163.258 24.886 165.322 23.032 168.047C22.1669 169.382 21.6978 170.933 21.6788 172.522C21.6597 174.11 22.0916 175.672 22.9245 177.027C23.0118 177.155 23.0512 177.31 23.036 177.464C23.0208 177.618 22.9519 177.762 22.8412 177.871C22.7305 177.98 22.5851 178.046 22.4303 178.059C22.2755 178.072 22.121 178.031 21.9937 177.942C20.4561 176.656 19.388 174.899 18.9556 172.945C18.5233 170.991 18.7509 168.95 19.603 167.138C21.6677 163.837 24.5452 161.118 27.9618 159.239C31.3784 157.36 35.2204 156.384 39.1223 156.403C43.1834 156.066 47.2591 155.935 51.3335 156.01C53.2036 156.009 55.0751 156.165 56.9386 156.321H56.9388H56.939H56.9392H56.9393H56.9395H56.9397H56.9398H56.94H56.9402H56.9404H56.9405H56.9407H56.9409H56.9411H56.9412H56.9414H56.9416L56.9423 156.321L57.3441 156.354C58.4688 156.469 59.6034 156.446 60.7221 156.283L60.9005 156.252L65.5206 152.832C66.9124 151.802 68.2929 150.756 69.6733 149.711L69.6739 149.71L69.6745 149.71L69.6751 149.709L69.6756 149.709L69.6762 149.708L69.6768 149.708L69.6773 149.708L69.6779 149.707L69.6785 149.707L69.6791 149.706L69.6796 149.706L69.6802 149.706L69.6808 149.705L69.6814 149.705L69.6819 149.704L69.6825 149.704L69.6831 149.704L69.6836 149.703L69.6839 149.703L69.6842 149.703L69.6845 149.702L69.6848 149.702L69.6851 149.702L69.6854 149.702C72.3121 147.712 74.9384 145.723 77.6415 143.839C81.6981 140.869 85.5586 137.642 89.1992 134.178C92.8943 130.795 96.4065 127.218 99.7209 123.464C103.088 119.67 106.289 115.732 109.401 111.729C110.892 109.806 112.369 107.874 113.831 105.932ZM90.8835 152.165C91.7142 151.301 92.5931 150.486 93.5161 149.721C94.2786 149.054 95.3817 149.882 95.2782 150.77C94.8462 153.576 93.4979 156.162 91.4422 158.127C89.4627 160.227 87.2939 162.14 84.9631 163.844C80.6393 166.931 76.1265 169.746 71.4511 172.273C69.0141 173.643 66.541 174.889 64.0501 176.143L63.3018 176.52C61.686 177.334 60.1013 178.214 58.5172 179.093L58.5167 179.093L58.5161 179.094C57.4365 179.693 56.3571 180.292 55.2683 180.87C54.525 181.265 53.7817 181.662 53.0377 182.059L53.0331 182.061C48.7036 184.373 44.3526 186.696 39.8646 188.668C37.2851 189.814 34.6114 190.735 31.8731 191.423C29.2151 191.976 26.4894 192.132 23.7853 191.886C23.1679 191.848 23.2144 190.874 23.808 190.823C26.8535 190.463 29.848 189.759 32.7343 188.726C35.6341 187.763 38.4614 186.595 41.1948 185.231C46.2835 182.757 51.2 179.937 56.105 177.123L56.1958 177.071C59.8983 174.948 63.4828 172.652 67.0713 170.354C68.3526 169.534 69.6344 168.713 70.9222 167.9C75.2761 165.328 79.4957 162.537 83.5648 159.538C85.3597 158.159 87.0268 156.622 88.546 154.946C88.9248 154.519 89.2858 154.075 89.6468 153.631C90.0509 153.133 90.4549 152.636 90.8835 152.165ZM93.3316 119.601C92.8016 118.402 92.1899 117.24 91.5008 116.123C90.9207 114.991 90.5033 113.783 90.2609 112.535C89.9711 111.089 89.915 109.606 90.0948 108.142C90.2071 106.459 90.5001 104.794 90.9687 103.173C91.2367 102.358 90.0029 101.82 89.7327 102.642C89.4775 103.418 89.1537 104.168 88.8299 104.917C88.4243 105.856 88.0188 106.794 87.749 107.784C87.2538 109.494 87.0645 111.277 87.1897 113.053C87.2348 114.664 87.697 116.236 88.5314 117.616C89.3659 118.996 90.5443 120.138 91.9522 120.93C92.1403 121.005 92.3461 121.024 92.5449 120.985C92.7436 120.946 92.9267 120.85 93.0724 120.71C93.218 120.57 93.32 120.39 93.366 120.194C93.4119 119.997 93.4 119.791 93.3316 119.601ZM144.901 173.689C144.219 173.725 143.537 173.703 142.854 173.682C142.536 173.672 142.217 173.662 141.899 173.658C141.502 173.652 141.103 173.66 140.704 173.669H140.703C140.002 173.683 139.3 173.697 138.605 173.639C138.14 173.601 137.678 173.533 137.215 173.465C136.692 173.389 136.168 173.312 135.636 173.277C134.576 173.205 133.527 173.226 132.466 173.246L132.401 173.247C130.871 173.277 129.341 173.314 127.811 173.351H127.811H127.81H127.81H127.809H127.808H127.807H127.807H127.806H127.806H127.805H127.804H127.804H127.803C125.203 173.414 122.603 173.476 120.002 173.505L119.607 173.51C116.908 172.063 114.459 170.194 112.356 167.973C111.016 166.487 109.763 164.926 108.602 163.298L106.85 160.852C106.105 159.988 105.432 159.065 104.838 158.091C104.486 157.345 103.283 157.815 103.638 158.567C104.016 159.66 104.324 160.777 104.561 161.909C104.893 163.006 105.281 164.085 105.724 165.143C106.61 167.32 107.789 169.367 109.228 171.229C109.917 172.077 110.668 172.872 111.477 173.607C106.474 173.648 101.473 173.614 96.474 173.287C92.2101 173.33 87.9692 172.658 83.9288 171.299C83.7746 171.233 83.6003 171.23 83.4443 171.292C83.2883 171.354 83.1633 171.475 83.0968 171.629C83.0303 171.783 83.0279 171.956 83.0899 172.112C83.152 172.268 83.2735 172.392 83.4277 172.458C84.0561 172.731 84.6741 173.021 85.2915 173.31L85.2929 173.311C86.4014 173.83 87.5078 174.349 88.668 174.769C90.3824 175.396 92.1407 175.897 93.9288 176.267C97.7466 176.93 101.612 177.285 105.487 177.327C113.91 177.74 122.349 177.719 130.77 177.263C133.128 177.218 135.475 176.929 137.773 176.402C138.978 176.102 140.203 175.889 141.438 175.763C141.956 175.696 142.471 175.608 142.986 175.52C143.678 175.402 144.371 175.284 145.07 175.217C145.17 175.206 145.268 175.175 145.356 175.126C145.445 175.078 145.523 175.012 145.587 174.934C145.65 174.855 145.697 174.764 145.725 174.668C145.754 174.571 145.763 174.469 145.751 174.369C145.74 174.269 145.71 174.171 145.661 174.083C145.612 173.995 145.547 173.917 145.468 173.853C145.389 173.79 145.298 173.743 145.201 173.715C145.104 173.687 145.002 173.678 144.901 173.689ZM231.143 162.281C232.508 163.409 234.141 164.167 235.885 164.483C236.213 164.457 236.539 164.547 236.806 164.738C237.073 164.929 237.263 165.209 237.342 165.527C237.421 165.845 237.384 166.18 237.237 166.474C237.091 166.767 236.845 166.999 236.543 167.128C235.432 167.69 234.204 167.985 232.958 167.987C231.708 167.869 230.49 167.527 229.363 166.977L228.402 166.455C223.785 166.699 219.157 166.234 214.682 165.074C209.23 164.036 203.846 162.705 198.461 161.373C194.558 160.409 190.656 159.444 186.727 158.59C182.105 157.586 177.458 156.671 172.779 155.967C172.021 155.853 171.262 155.734 170.504 155.615L170.503 155.614L170.502 155.614L170.501 155.614L170.5 155.614L170.499 155.614L170.498 155.614L170.497 155.614L170.496 155.613L170.495 155.613L170.494 155.613L170.493 155.613L170.492 155.613C168.976 155.374 167.459 155.135 165.937 154.939C165.389 154.868 164.838 154.817 164.287 154.766L164.286 154.766H164.286H164.286H164.285H164.285H164.285H164.285H164.285H164.285H164.285H164.285H164.284H164.284C163.625 154.705 162.966 154.644 162.314 154.549C161.874 154.485 161.438 154.408 161.001 154.331L161.001 154.331L160.999 154.331C160.315 154.211 159.631 154.09 158.936 154.019C158.312 153.956 158.156 152.937 158.792 152.758C159.204 152.643 159.616 152.515 160.029 152.387C160.87 152.125 161.715 151.863 162.575 151.704C163.701 151.495 164.861 151.398 166.007 151.302C166.212 151.285 166.417 151.268 166.621 151.251C167.82 151.145 169.019 151.095 170.217 151.085C168.026 147.647 164.677 145.1 160.772 143.902C160.009 143.716 160.17 142.516 160.958 142.682C163.749 143.188 166.424 144.198 168.851 145.663C170.981 147.063 172.738 148.959 173.969 151.186L174.539 151.221C184.075 152.296 193.501 154.18 202.716 156.852C207.361 157.989 212.019 159.081 216.726 159.935C218.981 160.346 221.249 160.689 223.519 160.984C221.374 156.805 219.797 152.358 218.832 147.763C217.748 143.054 216.958 138.282 216.467 133.475C216.192 131.021 216.048 128.553 215.909 126.087C215.845 124.957 215.834 123.825 215.823 122.693V122.692C215.811 121.416 215.799 120.141 215.711 118.868C215.545 116.469 215.341 114.073 215.102 111.681C215.153 109.48 214.649 107.3 213.635 105.343C213.506 105.164 213.451 104.941 213.485 104.722C213.518 104.503 213.636 104.305 213.813 104.172C213.99 104.038 214.213 103.979 214.433 104.007C214.653 104.035 214.854 104.148 214.992 104.322C217.852 108.171 219.44 112.812 219.536 117.601C219.807 119.494 220.116 121.381 220.424 123.267L220.424 123.267L220.424 123.268C220.868 125.979 221.311 128.69 221.643 131.423C222.201 136.02 222.787 140.606 223.784 145.133C224.685 149.479 226.068 153.713 227.907 157.754C228.671 159.464 229.771 161.004 231.143 162.281ZM169.117 187.522C166.3 185.559 163.031 184.338 159.614 183.974C156.323 183.371 152.987 183.044 149.641 182.998C145.015 182.926 140.407 183.23 135.799 183.534L135.797 183.534C133.345 183.696 130.893 183.858 128.437 183.963C124.713 184.123 120.993 184.346 117.272 184.57C113.156 184.818 109.04 185.065 104.917 185.226C97.089 185.531 89.2488 185.734 81.4157 185.881C78.6563 185.933 75.8969 185.941 73.1375 185.949C71.5725 185.954 70.0075 185.958 68.4425 185.971C66.2481 185.988 64.0535 185.988 61.8587 185.971C60.8472 185.963 59.8342 185.994 58.8212 186.026C57.4741 186.068 56.1271 186.109 54.7838 186.058C54.0085 186.028 53.787 187.189 54.5977 187.278C55.6346 187.392 56.662 187.567 57.6896 187.742L57.6899 187.742L57.6902 187.742L57.6905 187.742L57.6908 187.743L57.6912 187.743L57.6915 187.743L57.6918 187.743L57.6921 187.743L57.6925 187.743L57.6928 187.743L57.6931 187.743L57.6946 187.743C58.5362 187.887 59.3779 188.03 60.2251 188.14C61.811 188.346 63.4074 188.495 65.0014 188.643C65.3722 188.678 65.7429 188.712 66.1133 188.747C69.9687 189.115 73.8274 189.364 77.6955 189.554C85.4848 189.937 93.2719 190.095 101.068 189.859C108.754 189.628 116.459 189.302 124.115 188.578C126.902 188.314 129.679 187.974 132.456 187.634C136.829 187.098 141.202 186.562 145.61 186.327C149.354 186.108 153.111 186.286 156.817 186.856C158.648 187.152 160.446 187.623 162.186 188.263C162.938 188.537 163.666 188.868 164.393 189.199C165.381 189.647 166.366 190.095 167.405 190.399C167.78 190.547 168.197 190.558 168.58 190.428C168.962 190.298 169.286 190.036 169.492 189.689C169.699 189.342 169.774 188.934 169.706 188.536C169.637 188.139 169.428 187.78 169.117 187.522ZM162.092 176.092C164.149 176.813 166.065 177.884 167.755 179.257L167.778 179.278C169.343 180.711 171.374 182.57 171.198 184.851C171.165 185.063 171.084 185.264 170.961 185.44C170.838 185.615 170.676 185.761 170.488 185.865C170.301 185.968 170.092 186.028 169.877 186.04C169.663 186.051 169.448 186.013 169.251 185.93C168.103 185.31 167.389 184.18 166.681 183.06C166.32 182.489 165.961 181.921 165.547 181.424C164.367 179.85 162.965 178.455 161.383 177.283C160.703 176.821 161.382 175.806 162.092 176.092ZM255.99 178.747C255.006 179.136 254.1 179.7 253.318 180.412C252.594 180.946 251.818 181.405 251.001 181.78C249.26 182.564 247.426 183.121 245.543 183.436C241.169 184.045 236.758 184.356 232.342 184.367C222.087 184.764 211.83 185.004 201.573 184.57C198.826 184.454 196.082 184.27 193.338 184.086L192.92 184.058C189.954 184.051 186.992 183.824 184.06 183.379C183.212 183.192 183.015 184.52 183.857 184.704C185.216 185.006 186.541 185.448 187.867 185.891L187.867 185.891L187.868 185.891L187.868 185.891L187.868 185.891L187.868 185.891L187.868 185.891L187.868 185.891L187.868 185.891L187.869 185.891C189.164 186.324 190.46 186.757 191.791 187.059C194.389 187.649 197.002 188.076 199.643 188.425C204.999 189.071 210.385 189.44 215.779 189.529C221.261 189.68 226.749 189.562 232.231 189.44C236.871 189.488 241.509 189.181 246.102 188.52C248.499 188.141 250.834 187.445 253.047 186.452C254.176 185.928 255.254 185.302 256.269 184.581C257.567 183.788 258.518 182.536 258.932 181.075C259.396 179.34 257.382 178.337 255.99 178.747ZM211.251 79.5956C211.475 77.8474 211.484 76.0786 211.278 74.3283C211.171 73.3897 211.031 72.46 210.864 71.5325C210.787 70.6518 210.582 69.7869 210.255 68.9649C210.198 68.8286 210.102 68.7122 209.979 68.6302C209.856 68.5483 209.711 68.5046 209.563 68.5046C209.415 68.5046 209.27 68.5483 209.147 68.6302C209.024 68.7122 208.928 68.8286 208.871 68.9649L208.843 68.9428C208.567 69.8971 208.418 70.8835 208.4 71.8765L208.05 74.6567C207.839 76.6035 207.48 78.5314 206.976 80.4237C205.551 83.7499 203.813 86.934 201.786 89.9332C200.935 91.4553 200.466 93.1605 200.421 94.9027C200.376 96.6448 200.756 98.3718 201.527 99.9356C202.335 101.508 203.397 102.936 204.671 104.164C205.927 105.349 208.578 106.803 210.098 105.313C210.416 105.047 210.646 104.691 210.758 104.292C210.87 103.894 210.858 103.47 210.725 103.078C210.418 101.928 209.242 101.409 208.137 100.921C207.687 100.722 207.248 100.528 206.884 100.299C205.841 99.5719 205.105 98.4846 204.819 97.2476C204.628 95.8313 204.737 94.3909 205.138 93.019C205.54 91.6472 206.225 90.3743 207.149 89.2823C209.224 86.3987 210.625 83.089 211.251 79.5956ZM154.903 49.3432C156.012 48.0934 157.332 47.0482 158.804 46.2555C159.722 45.8392 160.745 47.1183 160.023 47.8752C159.387 48.5418 158.704 49.1579 158.021 49.7747C157.246 50.4728 156.471 51.1718 155.763 51.9462C155 52.7803 154.255 53.6304 153.509 54.4803L153.509 54.4811L153.508 54.4818L153.508 54.4819L153.508 54.4821L153.508 54.4823L153.508 54.4825L153.507 54.4826C152.942 55.1278 152.376 55.7729 151.803 56.4108C150.745 57.903 149.6 59.3313 148.373 60.6883C146.874 61.9139 145.303 63.0486 143.668 64.0863C142.768 64.7049 141.821 65.2331 140.874 65.7613C140.069 66.2099 139.264 66.6585 138.489 67.1625C137.441 67.8452 136.442 68.6075 135.445 69.3687C134.932 69.7598 134.42 70.1506 133.902 70.5301C130.879 72.7795 127.72 74.8426 124.445 76.7078C121.168 78.5292 117.705 79.9929 114.114 81.0737C113.922 81.1447 113.71 81.1381 113.523 81.0553C113.337 80.9725 113.19 80.8201 113.114 80.6307C113.039 80.4413 113.041 80.23 113.12 80.042C113.199 79.854 113.348 79.7044 113.537 79.625C117.319 77.6328 120.995 75.448 124.552 73.0791C126.976 71.53 129.348 69.8965 131.717 68.2645L131.718 68.2639L131.719 68.2633C132.397 67.7966 133.074 67.33 133.753 66.8655C135.613 65.5917 137.322 64.1615 139.034 62.7288C140.273 61.692 141.513 60.654 142.814 59.6731C144.31 58.4447 145.9 57.3328 147.567 56.3474C149.072 55.4836 150.406 54.3534 151.504 53.0123C151.657 52.8417 151.81 52.6709 151.963 52.5001C152.923 51.4293 153.883 50.3583 154.903 49.3432ZM199.62 73.9522C199.382 70.3506 198.491 66.8219 196.989 63.5373C195.734 60.197 193.701 57.2012 191.059 54.7958C190.846 54.6403 190.585 54.5653 190.321 54.5843C190.058 54.6033 189.81 54.715 189.622 54.8996C189.433 55.0841 189.317 55.3293 189.293 55.5915C189.27 55.8536 189.341 56.1156 189.493 56.3306C191.255 58.5378 192.723 60.9624 193.862 63.5445C194.788 66.1397 195.267 68.8724 195.279 71.6269C195.41 76.9591 193.901 82.2035 190.954 86.6554C188.037 90.9949 183.747 94.2358 178.767 95.8618C173.96 97.5127 168.761 97.6555 163.871 96.2709C160.708 95.3979 157.824 93.7282 155.496 91.4226C154.426 90.213 153.546 88.8491 152.885 87.377C152.025 85.8345 151.593 84.0919 151.632 82.3277C151.658 82.0864 151.589 81.8444 151.44 81.6522C151.292 81.46 151.074 81.3324 150.834 81.296C150.593 81.2595 150.347 81.3171 150.148 81.4566C149.949 81.5962 149.812 81.807 149.764 82.0451C149.426 83.6986 149.226 85.3774 149.167 87.064C149.226 88.8154 149.628 90.5385 150.348 92.137C150.938 93.4485 151.702 94.6753 152.618 95.7845C151.542 96.7204 150.741 97.9306 150.302 99.2855C149.862 100.64 149.801 102.089 150.124 103.476C151.143 106.795 153.376 109.611 156.381 111.364C159.313 113.275 162.721 114.333 166.223 114.421C169.725 114.509 173.182 113.622 176.206 111.861C177.908 110.768 179.237 109.187 180.018 107.326C180.427 106.462 180.616 105.512 180.568 104.558C180.519 103.605 180.236 102.678 179.742 101.86L179.595 101.68C185.166 100.052 190.14 96.8397 193.908 92.4362C198.032 87.1872 200.066 80.6048 199.62 73.9522ZM171.815 108.329C168.954 109.174 165.918 109.243 163.022 108.526C160.206 107.836 157.624 106.417 155.536 104.412C154.46 103.444 153.804 102.097 153.704 100.655C153.711 99.5926 153.928 98.5421 154.342 97.5633C155.554 98.6272 156.902 99.5261 158.352 100.236C164.227 103.053 170.891 103.783 177.239 102.307L177.888 102.147C177.493 103.61 176.727 104.947 175.663 106.03C174.6 107.113 173.275 107.904 171.816 108.329H171.815ZM200.913 50.7447C199.623 46.9397 197.195 43.6195 193.957 41.2303C190.79 38.6942 187.347 36.5219 183.693 34.7545C176.52 31.5971 169.573 27.9503 162.904 23.84C161.124 22.5965 159.436 21.2286 157.851 19.7463C156.213 18.3698 154.77 16.7776 153.563 15.0134C153.104 14.2565 151.938 14.9748 152.234 15.7576C152.768 17.3077 153.396 18.8238 154.116 20.2973C152.942 22.7567 151.962 25.304 151.187 27.9159L151.124 28.0927C150.043 31.1475 148.962 34.2031 147.838 37.2427C146.718 40.2739 145.594 43.3041 144.467 46.3331C143.9 47.8497 143.359 49.3695 142.827 50.8999C142.573 51.6307 142.358 52.3669 142.143 53.1025L142.143 53.1031L142.143 53.1037L142.143 53.1042C141.864 54.0611 141.584 55.0173 141.221 55.9602C141.155 56.1287 141.158 56.3158 141.228 56.4824C141.298 56.6489 141.431 56.7818 141.597 56.8533C141.763 56.9247 141.951 56.9291 142.121 56.8655C142.29 56.8019 142.429 56.6753 142.507 56.5122C142.911 55.7423 143.366 55.0078 143.821 54.2741C144.261 53.5637 144.701 52.8539 145.094 52.1133C145.888 50.6166 146.644 49.1128 147.359 47.5758C148.75 44.5764 150.056 41.5532 151.277 38.481C152.497 35.4087 153.662 32.3259 154.738 29.2034C154.868 28.8259 155.001 28.4465 155.135 28.0652L155.136 28.0616L155.137 28.0612C155.636 26.64 156.145 25.1928 156.526 23.7257C157.116 24.3998 157.744 25.0429 158.395 25.6629C161.347 28.3777 164.647 30.6898 168.21 32.5384C175.42 35.8191 182.442 39.494 189.246 43.5462C191.025 44.7487 192.708 46.0857 194.282 47.5455C195.16 48.3758 195.992 49.2537 196.824 50.1316C197.503 50.8483 198.182 51.565 198.886 52.2558C199.938 53.2859 201.186 51.8202 200.913 50.7447ZM187.115 70.4459C188.314 69.583 189.515 68.7189 190.828 68.0161C191.31 67.7577 191.753 68.5626 191.295 68.8486C189.84 69.7545 188.482 70.8074 187.243 71.9905C186.104 73.2824 185.129 74.7103 184.343 76.2414C182.493 79.0643 180.208 81.5793 177.574 83.6944C174.96 85.9768 171.795 87.5404 168.39 88.2308C166.851 88.5015 165.275 88.4828 163.744 88.1756C162.178 87.7338 160.68 87.0839 159.288 86.2433C158.418 85.8194 159.011 84.4386 159.886 84.8632C161.39 85.3811 163.01 85.4653 164.559 85.1061C166.05 84.8754 167.504 84.4484 168.882 83.8363C169.921 83.3781 170.921 82.8373 171.873 82.2193C170.747 82.1663 169.64 81.9237 168.596 81.5016C166.118 80.5184 163.968 78.861 162.39 76.7184C161.705 75.8925 161.318 74.8608 161.292 73.7893C161.267 72.7178 161.603 71.6689 162.248 70.8112C162.364 70.6714 162.531 70.5824 162.712 70.563C162.893 70.5436 163.075 70.5953 163.219 70.7073C163.362 70.8192 163.456 70.9825 163.481 71.1625C163.506 71.3425 163.459 71.525 163.351 71.6714C162.344 73.025 163.97 74.8143 164.916 75.7567C166.047 76.8792 167.381 77.7775 168.848 78.4039C169.563 78.7733 170.348 78.9882 171.153 79.0347C171.957 79.0812 172.762 78.9583 173.515 78.6739C174.672 78.0898 175.967 77.1236 175.579 75.6882C175.437 75.1682 176.145 74.6404 176.484 75.1809C176.981 75.9908 177.217 76.9332 177.16 77.8811C178.949 75.9554 181.005 74.2941 183.264 72.9472C184.63 72.2354 185.872 71.3412 187.115 70.4459ZM184.287 52.0453C182.808 53.7406 181.644 55.6848 180.849 57.7868C180.452 59.4502 180.553 62.734 182.461 63.5212C182.641 63.6004 182.836 63.6431 183.033 63.6468C183.23 63.6505 183.426 63.6151 183.609 63.5427C183.792 63.4704 183.959 63.3624 184.1 63.2252C184.241 63.088 184.354 62.9242 184.431 62.7434C184.698 62.0666 184.437 61.4399 184.177 60.8121C184.041 60.4857 183.905 60.1591 183.844 59.8251C183.596 57.4253 184.179 55.0132 185.495 52.9888C186.024 52.1662 184.818 51.2127 184.287 52.0453ZM178.066 46.9866C181.064 46.4981 182.707 48.5545 183.355 51.2255C183.367 51.3737 183.336 51.5223 183.266 51.6535C183.196 51.7847 183.089 51.8929 182.959 51.9651C182.828 52.0373 182.68 52.0705 182.531 52.0606C182.382 52.0508 182.239 51.9983 182.119 51.9095C181.759 51.5688 181.412 51.2076 181.065 50.8459C180.548 50.3085 180.031 49.7701 179.468 49.296C179.444 49.2752 179.419 49.2541 179.393 49.2327C178.971 48.8769 178.474 48.4585 177.899 48.5424C177.581 48.5889 177.274 48.7799 176.968 48.9702C176.729 49.1189 176.491 49.2673 176.248 49.3462C175.157 49.5554 174.027 49.4176 173.019 48.952C171.654 48.5631 170.321 48.0713 169.032 47.4807C168.944 47.444 168.874 47.3766 168.833 47.2914C168.792 47.2062 168.784 47.1091 168.81 47.0183C168.836 46.9275 168.895 46.8494 168.974 46.7987C169.054 46.748 169.15 46.7283 169.244 46.7432C170.871 46.9136 172.483 47.209 174.065 47.6265C174.8 47.8688 175.597 47.8346 176.308 47.5304C176.87 47.2788 177.46 47.0962 178.066 46.9866Z" fill="white"/>
</svg>
