<svg width="67" height="50" viewBox="0 0 67 50" fill="none" xmlns="http://www.w3.org/2000/svg">
<path d="M38.0991 1.69378C38.515 1.15253 39.0067 0.674058 39.559 0.27314C39.6484 0.209843 39.7559 0.177119 39.8654 0.179845C39.9749 0.182571 40.0806 0.2206 40.1667 0.288266C40.2529 0.355932 40.3148 0.449615 40.3434 0.555359C40.372 0.661103 40.3656 0.773248 40.3253 0.87509C39.9689 1.55337 39.5251 2.18194 39.0051 2.74469C38.526 3.32931 38.0565 3.92223 37.6076 4.53063C36.8307 5.55437 36.142 6.64222 35.5491 7.78248C34.9993 8.87579 34.5512 10.0164 34.1071 11.1552C34.0489 11.3042 33.9911 11.4532 33.9333 11.6021L33.9329 11.6032C33.5424 12.6092 33.1527 13.6131 32.6708 14.581C32.0998 15.6661 31.4271 16.6946 30.6619 17.6526C30.4839 17.887 30.1378 17.6102 30.3046 17.3731C30.6941 16.7839 31.0141 16.1516 31.2584 15.4888C31.5181 14.8396 31.7635 14.185 31.9827 13.5216C32.6428 11.145 33.5164 8.83292 34.5927 6.61353C35.2463 5.43003 35.9957 4.30205 36.8335 3.24092C37.2441 2.71618 37.6678 2.20176 38.0991 1.69378Z" fill="black"/>
<path d="M38.0991 1.69378C38.515 1.15253 39.0067 0.674058 39.559 0.27314C39.6484 0.209843 39.7559 0.177119 39.8654 0.179845C39.9749 0.182571 40.0806 0.2206 40.1667 0.288266C40.2529 0.355932 40.3148 0.449615 40.3434 0.555359C40.372 0.661103 40.3656 0.773248 40.3253 0.87509C39.9689 1.55337 39.5251 2.18194 39.0051 2.74469C38.526 3.32931 38.0565 3.92223 37.6076 4.53063C36.8307 5.55437 36.142 6.64222 35.5491 7.78248C34.9993 8.87579 34.5512 10.0164 34.1071 11.1552C34.0489 11.3042 33.9911 11.4532 33.9333 11.6021L33.9329 11.6032C33.5424 12.6092 33.1527 13.6131 32.6708 14.581C32.0998 15.6661 31.4271 16.6946 30.6619 17.6526C30.4839 17.887 30.1378 17.6102 30.3046 17.3731C30.6941 16.7839 31.0141 16.1516 31.2584 15.4888C31.5181 14.8396 31.7635 14.185 31.9827 13.5216C32.6428 11.145 33.5164 8.83292 34.5927 6.61353C35.2463 5.43003 35.9957 4.30205 36.8335 3.24092C37.2441 2.71618 37.6678 2.20176 38.0991 1.69378Z" fill="url(#paint0_linear)"/>
<path d="M65.9515 41.8678C66.1146 42.3994 66.2783 42.9341 66.4092 43.4746C66.5244 43.9948 66.5705 44.5278 66.5463 45.06C66.5413 45.3455 66.129 45.6287 65.9385 45.3013L65.4837 44.5164C65.3476 44.246 65.2387 43.9629 65.1583 43.6712C65.0752 43.412 64.9909 43.1531 64.9065 42.8943L64.9041 42.8869C64.8058 42.5856 64.7076 42.2843 64.6114 41.9824C64.2596 40.8688 63.8805 39.7653 63.4741 38.6719C62.8612 37.0228 62.1943 35.3938 61.5274 33.7648C60.5917 31.4792 59.656 29.1936 58.8694 26.8525C58.4542 25.6171 58.1049 24.3658 57.7553 23.1138C57.5347 22.3235 57.3138 21.5323 57.0764 20.7452C56.7757 19.7424 56.3817 18.7699 55.8996 17.8406C55.6641 17.3876 55.4165 16.9401 55.1614 16.4979C55.0227 16.2575 54.8945 16.0117 54.7662 15.7659C54.6469 15.5375 54.5274 15.3083 54.3997 15.0841C54.3852 15.0598 54.3758 15.0328 54.3721 15.0047C54.3684 14.9766 54.3705 14.9481 54.3782 14.9208L54.202 14.7475C53.9425 14.5014 53.6974 14.2404 53.468 13.966C53.2215 13.6722 52.9846 13.3699 52.7476 13.0676C52.5457 12.8101 52.3435 12.5521 52.1358 12.2998C50.5465 10.3702 48.9169 8.45994 47.1978 6.64793C45.4788 4.83592 43.7244 3.03694 41.8545 1.37979C41.8092 1.34203 41.7804 1.28813 41.7742 1.22951C41.7679 1.17089 41.7847 1.11214 41.8211 1.0657C41.8574 1.01927 41.9104 0.988797 41.9688 0.980735C42.0272 0.972674 42.0864 0.987658 42.134 1.02251L42.3738 1.19965C43.4501 1.99455 44.5301 2.79213 45.555 3.65178C47.5137 5.27239 49.3611 7.02309 51.0846 8.89199C51.9343 9.82586 52.7624 10.7794 53.5517 11.7649C53.9676 12.2517 54.3569 12.7606 54.7179 13.2894C54.9034 13.5738 55.0742 13.8675 55.2296 14.1693C55.4 14.4297 55.5078 14.726 55.5448 15.035C55.5487 15.0839 55.5427 15.133 55.5271 15.1795C55.5115 15.226 55.4867 15.2689 55.4541 15.3055C55.4215 15.3422 55.3819 15.3719 55.3376 15.3928C55.2932 15.4138 55.2451 15.4255 55.1961 15.4274C55.4254 15.6929 55.6531 15.9597 55.8639 16.2419C56.2125 16.7082 56.545 17.1844 56.8535 17.6781C57.4879 18.6839 58.0085 19.7571 58.4055 20.878C58.6604 21.6082 58.8855 22.3478 59.1106 23.0874C59.1996 23.3799 59.2888 23.6727 59.3797 23.9647C59.6935 24.9729 60.0399 25.9701 60.389 26.9665C60.9999 28.7096 61.6629 30.4348 62.3256 32.159L62.3262 32.1606L62.6331 32.9595C62.8919 33.6344 63.1531 34.3083 63.4144 34.9822L63.4148 34.9832C63.9176 36.2799 64.4207 37.5775 64.9058 38.8809L64.9174 38.9121C65.2809 39.889 65.6462 40.8708 65.9515 41.8678Z" fill="black"/>
<path d="M65.9515 41.8678C66.1146 42.3994 66.2783 42.9341 66.4092 43.4746C66.5244 43.9948 66.5705 44.5278 66.5463 45.06C66.5413 45.3455 66.129 45.6287 65.9385 45.3013L65.4837 44.5164C65.3476 44.246 65.2387 43.9629 65.1583 43.6712C65.0752 43.412 64.9909 43.1531 64.9065 42.8943L64.9041 42.8869C64.8058 42.5856 64.7076 42.2843 64.6114 41.9824C64.2596 40.8688 63.8805 39.7653 63.4741 38.6719C62.8612 37.0228 62.1943 35.3938 61.5274 33.7648C60.5917 31.4792 59.656 29.1936 58.8694 26.8525C58.4542 25.6171 58.1049 24.3658 57.7553 23.1138C57.5347 22.3235 57.3138 21.5323 57.0764 20.7452C56.7757 19.7424 56.3817 18.7699 55.8996 17.8406C55.6641 17.3876 55.4165 16.9401 55.1614 16.4979C55.0227 16.2575 54.8945 16.0117 54.7662 15.7659C54.6469 15.5375 54.5274 15.3083 54.3997 15.0841C54.3852 15.0598 54.3758 15.0328 54.3721 15.0047C54.3684 14.9766 54.3705 14.9481 54.3782 14.9208L54.202 14.7475C53.9425 14.5014 53.6974 14.2404 53.468 13.966C53.2215 13.6722 52.9846 13.3699 52.7476 13.0676C52.5457 12.8101 52.3435 12.5521 52.1358 12.2998C50.5465 10.3702 48.9169 8.45994 47.1978 6.64793C45.4788 4.83592 43.7244 3.03694 41.8545 1.37979C41.8092 1.34203 41.7804 1.28813 41.7742 1.22951C41.7679 1.17089 41.7847 1.11214 41.8211 1.0657C41.8574 1.01927 41.9104 0.988797 41.9688 0.980735C42.0272 0.972674 42.0864 0.987658 42.134 1.02251L42.3738 1.19965C43.4501 1.99455 44.5301 2.79213 45.555 3.65178C47.5137 5.27239 49.3611 7.02309 51.0846 8.89199C51.9343 9.82586 52.7624 10.7794 53.5517 11.7649C53.9676 12.2517 54.3569 12.7606 54.7179 13.2894C54.9034 13.5738 55.0742 13.8675 55.2296 14.1693C55.4 14.4297 55.5078 14.726 55.5448 15.035C55.5487 15.0839 55.5427 15.133 55.5271 15.1795C55.5115 15.226 55.4867 15.2689 55.4541 15.3055C55.4215 15.3422 55.3819 15.3719 55.3376 15.3928C55.2932 15.4138 55.2451 15.4255 55.1961 15.4274C55.4254 15.6929 55.6531 15.9597 55.8639 16.2419C56.2125 16.7082 56.545 17.1844 56.8535 17.6781C57.4879 18.6839 58.0085 19.7571 58.4055 20.878C58.6604 21.6082 58.8855 22.3478 59.1106 23.0874C59.1996 23.3799 59.2888 23.6727 59.3797 23.9647C59.6935 24.9729 60.0399 25.9701 60.389 26.9665C60.9999 28.7096 61.6629 30.4348 62.3256 32.159L62.3262 32.1606L62.6331 32.9595C62.8919 33.6344 63.1531 34.3083 63.4144 34.9822L63.4148 34.9832C63.9176 36.2799 64.4207 37.5775 64.9058 38.8809L64.9174 38.9121C65.2809 39.889 65.6462 40.8708 65.9515 41.8678Z" fill="url(#paint1_linear)"/>
<path d="M27.011 19.4399C27.8934 19.1131 28.7989 18.8554 29.7092 18.618C29.9156 18.5643 30.0452 18.8531 29.8349 18.9356C28.8226 19.361 27.8413 19.8568 26.8982 20.4194C25.961 20.9488 25.0584 21.5373 24.1959 22.1815C23.782 22.4597 23.4051 22.7894 23.0741 23.1625C22.7923 23.5341 22.6036 23.9678 22.5239 24.4272C22.4256 24.9109 22.3487 25.4078 22.2785 25.8967C22.187 26.3758 22.2156 26.87 22.3616 27.3353C22.3815 27.39 22.3833 27.4496 22.3667 27.5054C22.3501 27.5612 22.3159 27.6102 22.2693 27.6451C22.2227 27.68 22.1661 27.6989 22.1079 27.6991C22.0497 27.6994 21.993 27.6808 21.9461 27.6463C21.6283 27.2737 21.404 26.8305 21.2918 26.3538C21.1797 25.877 21.183 25.3804 21.3015 24.9051C21.3406 23.9887 21.6753 23.1095 22.2554 22.3991C22.9048 21.751 23.6389 21.1938 24.4379 20.7428C25.2497 20.2233 26.1118 19.7868 27.011 19.4399Z" fill="black"/>
<path d="M27.011 19.4399C27.8934 19.1131 28.7989 18.8554 29.7092 18.618C29.9156 18.5643 30.0452 18.8531 29.8349 18.9356C28.8226 19.361 27.8413 19.8568 26.8982 20.4194C25.961 20.9488 25.0584 21.5373 24.1959 22.1815C23.782 22.4597 23.4051 22.7894 23.0741 23.1625C22.7923 23.5341 22.6036 23.9678 22.5239 24.4272C22.4256 24.9109 22.3487 25.4078 22.2785 25.8967C22.187 26.3758 22.2156 26.87 22.3616 27.3353C22.3815 27.39 22.3833 27.4496 22.3667 27.5054C22.3501 27.5612 22.3159 27.6102 22.2693 27.6451C22.2227 27.68 22.1661 27.6989 22.1079 27.6991C22.0497 27.6994 21.993 27.6808 21.9461 27.6463C21.6283 27.2737 21.404 26.8305 21.2918 26.3538C21.1797 25.877 21.183 25.3804 21.3015 24.9051C21.3406 23.9887 21.6753 23.1095 22.2554 22.3991C22.9048 21.751 23.6389 21.1938 24.4379 20.7428C25.2497 20.2233 26.1118 19.7868 27.011 19.4399Z" fill="url(#paint2_linear)"/>
<path d="M32.1158 23.0228C33.1916 22.5781 34.392 22.5382 35.4949 22.9104C35.7288 23.0258 35.7934 23.4591 35.4853 23.5369C35.0196 23.6547 34.5478 23.7258 34.0761 23.7968C33.4735 23.8876 32.871 23.9784 32.2821 24.1665C31.3191 24.4804 30.3824 24.8699 29.4807 25.3314C29.0186 25.6169 28.5053 25.8098 27.9695 25.8991C27.4805 25.9441 26.9922 25.8051 26.6003 25.5092C26.3621 25.3031 26.1712 25.0481 26.0406 24.7615C25.91 24.4749 25.8427 24.1635 25.8433 23.8486C25.4968 24.3125 25.1259 24.7577 24.7321 25.1822C24.6959 25.2248 24.6446 25.2518 24.589 25.2575C24.5334 25.2631 24.4777 25.247 24.4337 25.2126C24.3896 25.1781 24.3606 25.1279 24.3528 25.0726C24.3449 25.0172 24.3588 24.9609 24.3915 24.9156C24.8588 24.2206 25.3729 23.5583 25.9303 22.9332C26.1304 22.1254 26.5989 21.4095 27.2591 20.9029C27.2919 20.8797 27.3312 20.8677 27.3714 20.8687C27.4115 20.8697 27.4503 20.8836 27.4818 20.9084C27.5134 20.9332 27.5361 20.9676 27.5466 21.0063C27.557 21.0451 27.5547 21.0862 27.5399 21.1235C27.4491 21.3974 27.3297 21.6567 27.2102 21.916C27.1046 22.1451 26.9991 22.3742 26.9133 22.6133C26.8226 22.8073 26.774 23.0182 26.7706 23.2323C26.7672 23.4463 26.809 23.6587 26.8934 23.8555C27.0455 24.1453 27.2903 24.3758 27.5887 24.5102L27.7641 24.5303C27.8886 24.5248 28.0121 24.5044 28.1318 24.4696C28.3399 24.417 28.5446 24.3401 28.7475 24.264C28.8205 24.2366 28.8936 24.2092 28.9663 24.1831C29.3545 24.0437 29.7378 23.892 30.121 23.7402C30.7781 23.48 31.435 23.2199 32.1158 23.0228Z" fill="black"/>
<path d="M32.1158 23.0228C33.1916 22.5781 34.392 22.5382 35.4949 22.9104C35.7288 23.0258 35.7934 23.4591 35.4853 23.5369C35.0196 23.6547 34.5478 23.7258 34.0761 23.7968C33.4735 23.8876 32.871 23.9784 32.2821 24.1665C31.3191 24.4804 30.3824 24.8699 29.4807 25.3314C29.0186 25.6169 28.5053 25.8098 27.9695 25.8991C27.4805 25.9441 26.9922 25.8051 26.6003 25.5092C26.3621 25.3031 26.1712 25.0481 26.0406 24.7615C25.91 24.4749 25.8427 24.1635 25.8433 23.8486C25.4968 24.3125 25.1259 24.7577 24.7321 25.1822C24.6959 25.2248 24.6446 25.2518 24.589 25.2575C24.5334 25.2631 24.4777 25.247 24.4337 25.2126C24.3896 25.1781 24.3606 25.1279 24.3528 25.0726C24.3449 25.0172 24.3588 24.9609 24.3915 24.9156C24.8588 24.2206 25.3729 23.5583 25.9303 22.9332C26.1304 22.1254 26.5989 21.4095 27.2591 20.9029C27.2919 20.8797 27.3312 20.8677 27.3714 20.8687C27.4115 20.8697 27.4503 20.8836 27.4818 20.9084C27.5134 20.9332 27.5361 20.9676 27.5466 21.0063C27.557 21.0451 27.5547 21.0862 27.5399 21.1235C27.4491 21.3974 27.3297 21.6567 27.2102 21.916C27.1046 22.1451 26.9991 22.3742 26.9133 22.6133C26.8226 22.8073 26.774 23.0182 26.7706 23.2323C26.7672 23.4463 26.809 23.6587 26.8934 23.8555C27.0455 24.1453 27.2903 24.3758 27.5887 24.5102L27.7641 24.5303C27.8886 24.5248 28.0121 24.5044 28.1318 24.4696C28.3399 24.417 28.5446 24.3401 28.7475 24.264C28.8205 24.2366 28.8936 24.2092 28.9663 24.1831C29.3545 24.0437 29.7378 23.892 30.121 23.7402C30.7781 23.48 31.435 23.2199 32.1158 23.0228Z" fill="url(#paint3_linear)"/>
<path d="M39.555 36.8183C38.5791 36.7609 37.6069 36.6527 36.6422 36.4943C36.5405 36.4797 36.4328 36.4668 36.3217 36.4534C35.6492 36.3726 34.8497 36.2764 34.4618 35.7137C34.2644 35.3639 34.1442 34.976 34.1091 34.5759C34.074 34.1758 34.1249 33.7728 34.2584 33.394C34.3904 32.9463 34.5541 32.5086 34.7483 32.0841L34.841 31.8675C35.9747 30.6111 36.8406 29.1369 37.3859 27.5348C37.6312 26.82 37.7679 26.0725 37.7914 25.3171C37.7822 24.5672 37.6319 23.8258 37.3483 23.1315C37.3229 23.0727 37.2775 23.0249 37.2201 22.9965C37.1627 22.9682 37.0971 22.9611 37.035 22.9766C36.9729 22.992 36.9183 23.0291 36.8809 23.0811C36.8436 23.133 36.8259 23.1966 36.831 23.2604C36.8441 23.8896 36.795 24.5185 36.6846 25.138C36.6055 25.7349 36.4876 26.3261 36.3317 26.9076C35.9662 28.08 35.4189 29.1877 34.7096 30.1901C33.2233 32.229 31.5006 34.0847 29.5777 35.7183C29.0362 36.2072 28.4823 36.6816 27.916 37.1417C27.6349 37.3698 27.3606 37.6054 27.0864 37.841C26.8078 38.0804 26.5291 38.3198 26.2436 38.5511C26.1197 38.6514 26.2349 38.8949 26.389 38.809C26.5013 38.747 26.6135 38.6859 26.7254 38.6249C27.2052 38.3634 27.6797 38.1049 28.1347 37.7933C28.6907 37.4127 29.2373 37.0187 29.7744 36.6113C30.8574 35.7823 31.8897 34.8889 32.8655 33.9359L33.2692 33.541C32.9569 34.4562 32.9762 35.452 33.3239 36.3543C33.4422 36.6061 33.6107 36.8309 33.8193 37.0149C34.0278 37.1989 34.2718 37.3383 34.5363 37.4243C35.0353 37.5531 35.5499 37.611 36.0651 37.5962C37.2297 37.6161 38.3939 37.5342 39.5443 37.3514C39.8313 37.3108 39.872 36.8304 39.555 36.8183Z" fill="black"/>
<path d="M39.555 36.8183C38.5791 36.7609 37.6069 36.6527 36.6422 36.4943C36.5405 36.4797 36.4328 36.4668 36.3217 36.4534C35.6492 36.3726 34.8497 36.2764 34.4618 35.7137C34.2644 35.3639 34.1442 34.976 34.1091 34.5759C34.074 34.1758 34.1249 33.7728 34.2584 33.394C34.3904 32.9463 34.5541 32.5086 34.7483 32.0841L34.841 31.8675C35.9747 30.6111 36.8406 29.1369 37.3859 27.5348C37.6312 26.82 37.7679 26.0725 37.7914 25.3171C37.7822 24.5672 37.6319 23.8258 37.3483 23.1315C37.3229 23.0727 37.2775 23.0249 37.2201 22.9965C37.1627 22.9682 37.0971 22.9611 37.035 22.9766C36.9729 22.992 36.9183 23.0291 36.8809 23.0811C36.8436 23.133 36.8259 23.1966 36.831 23.2604C36.8441 23.8896 36.795 24.5185 36.6846 25.138C36.6055 25.7349 36.4876 26.3261 36.3317 26.9076C35.9662 28.08 35.4189 29.1877 34.7096 30.1901C33.2233 32.229 31.5006 34.0847 29.5777 35.7183C29.0362 36.2072 28.4823 36.6816 27.916 37.1417C27.6349 37.3698 27.3606 37.6054 27.0864 37.841C26.8078 38.0804 26.5291 38.3198 26.2436 38.5511C26.1197 38.6514 26.2349 38.8949 26.389 38.809C26.5013 38.747 26.6135 38.6859 26.7254 38.6249C27.2052 38.3634 27.6797 38.1049 28.1347 37.7933C28.6907 37.4127 29.2373 37.0187 29.7744 36.6113C30.8574 35.7823 31.8897 34.8889 32.8655 33.9359L33.2692 33.541C32.9569 34.4562 32.9762 35.452 33.3239 36.3543C33.4422 36.6061 33.6107 36.8309 33.8193 37.0149C34.0278 37.1989 34.2718 37.3383 34.5363 37.4243C35.0353 37.5531 35.5499 37.611 36.0651 37.5962C37.2297 37.6161 38.3939 37.5342 39.5443 37.3514C39.8313 37.3108 39.872 36.8304 39.555 36.8183Z" fill="url(#paint4_linear)"/>
<path d="M29.4468 27.667C29.8207 27.1225 30.2546 26.6217 30.7403 26.174C30.798 26.133 30.8674 26.1117 30.9381 26.1134C31.0089 26.1151 31.0772 26.1396 31.1328 26.1834C31.1885 26.2272 31.2284 26.2878 31.2467 26.3561C31.265 26.4245 31.2606 26.497 31.2343 26.5627C30.9054 27.2217 30.5001 27.8398 30.0268 28.4041C29.5803 28.9958 29.1271 29.5823 28.6672 30.1636C27.7599 31.3097 26.8209 32.4329 25.8222 33.5014C24.9207 34.4652 23.9685 35.3805 22.9867 36.2614C22.5014 36.6953 22.0093 37.1214 21.5105 37.5396C21.248 37.7598 20.9942 37.9893 20.7405 38.2187C20.5104 38.4269 20.2797 38.6356 20.043 38.8368C19.4556 39.3361 18.8457 39.8099 18.236 40.2836C17.791 40.6293 17.346 40.975 16.9098 41.3305C15.9435 42.1183 14.954 42.8745 13.9637 43.6314L13.553 43.9454C12.5433 44.7171 11.5264 45.4942 10.4587 46.1847C9.93582 46.524 9.39252 46.8307 8.83189 47.1031C8.53561 47.2492 8.23045 47.3766 7.91822 47.4845C7.76859 47.5348 7.61444 47.5714 7.46018 47.6081C7.34844 47.6346 7.23664 47.6612 7.12645 47.693C5.98655 47.9842 4.82753 48.1947 3.658 48.3229C3.08123 48.4036 2.51107 48.5261 1.952 48.6893C1.3716 48.8455 0.8104 49.0658 0.278802 49.3463C0.0937191 49.4508 -0.113139 49.202 0.0730907 49.0741C0.591544 48.7064 1.15996 48.4149 1.76104 48.2084C2.28402 48.032 2.81889 47.9102 3.35643 47.7878C3.45143 47.7661 3.54699 47.7443 3.6421 47.7223C4.09865 47.6168 4.55638 47.52 5.01456 47.4231C5.19187 47.3856 5.36997 47.348 5.54737 47.3099C6.18366 47.2127 6.80129 47.0186 7.37872 46.7342C7.59732 46.6078 7.82072 46.493 8.04415 46.3783C8.35748 46.2173 8.67089 46.0563 8.97127 45.8631C9.48584 45.532 9.98135 45.1703 10.4684 44.7994C11.0388 44.3644 11.6016 43.9194 12.1645 43.4744C12.639 43.0993 13.1139 42.7238 13.5929 42.3546C14.0493 42.0042 14.5077 41.6566 14.9681 41.3118L14.9474 41.3172C14.4527 41.4586 13.945 41.5495 13.432 41.5884C11.5761 41.5141 9.72038 41.7398 7.93641 42.2569C7.1309 42.5422 6.4377 43.0775 5.95808 43.7847C5.73429 44.131 5.61294 44.5335 5.60802 44.9458C5.6031 45.3581 5.71482 45.7634 5.93029 46.1149C5.95286 46.1482 5.96306 46.1883 5.95912 46.2283C5.95519 46.2683 5.93735 46.3056 5.90873 46.3339C5.8801 46.3621 5.84249 46.3794 5.80243 46.3827C5.76238 46.3861 5.72241 46.3753 5.68948 46.3523C5.29173 46.0186 5.01543 45.5628 4.90358 45.0558C4.79174 44.5488 4.85061 44.019 5.07105 43.5489C5.60517 42.6924 6.34954 41.9868 7.23336 41.4992C8.11718 41.0116 9.11106 40.7583 10.1204 40.7632C11.171 40.6758 12.2253 40.6418 13.2793 40.6614C13.7634 40.6611 14.2478 40.7016 14.7302 40.742L14.8342 40.7506C15.1251 40.7805 15.4186 40.7744 15.708 40.7323L15.7542 40.7241L16.9493 39.8368C17.3101 39.5689 17.6679 39.2971 18.0257 39.0252C18.7054 38.5089 19.3855 37.9922 20.0849 37.5032C21.1343 36.7326 22.1329 35.8952 23.0747 34.9963C24.0306 34.1185 24.9391 33.1904 25.7965 32.2162C26.6676 31.2319 27.4955 30.2099 28.3007 29.1712C28.6864 28.6723 29.0684 28.1709 29.4468 27.667Z" fill="black"/>
<path d="M29.4468 27.667C29.8207 27.1225 30.2546 26.6217 30.7403 26.174C30.798 26.133 30.8674 26.1117 30.9381 26.1134C31.0089 26.1151 31.0772 26.1396 31.1328 26.1834C31.1885 26.2272 31.2284 26.2878 31.2467 26.3561C31.265 26.4245 31.2606 26.497 31.2343 26.5627C30.9054 27.2217 30.5001 27.8398 30.0268 28.4041C29.5803 28.9958 29.1271 29.5823 28.6672 30.1636C27.7599 31.3097 26.8209 32.4329 25.8222 33.5014C24.9207 34.4652 23.9685 35.3805 22.9867 36.2614C22.5014 36.6953 22.0093 37.1214 21.5105 37.5396C21.248 37.7598 20.9942 37.9893 20.7405 38.2187C20.5104 38.4269 20.2797 38.6356 20.043 38.8368C19.4556 39.3361 18.8457 39.8099 18.236 40.2836C17.791 40.6293 17.346 40.975 16.9098 41.3305C15.9435 42.1183 14.954 42.8745 13.9637 43.6314L13.553 43.9454C12.5433 44.7171 11.5264 45.4942 10.4587 46.1847C9.93582 46.524 9.39252 46.8307 8.83189 47.1031C8.53561 47.2492 8.23045 47.3766 7.91822 47.4845C7.76859 47.5348 7.61444 47.5714 7.46018 47.6081C7.34844 47.6346 7.23664 47.6612 7.12645 47.693C5.98655 47.9842 4.82753 48.1947 3.658 48.3229C3.08123 48.4036 2.51107 48.5261 1.952 48.6893C1.3716 48.8455 0.8104 49.0658 0.278802 49.3463C0.0937191 49.4508 -0.113139 49.202 0.0730907 49.0741C0.591544 48.7064 1.15996 48.4149 1.76104 48.2084C2.28402 48.032 2.81889 47.9102 3.35643 47.7878C3.45143 47.7661 3.54699 47.7443 3.6421 47.7223C4.09865 47.6168 4.55638 47.52 5.01456 47.4231C5.19187 47.3856 5.36997 47.348 5.54737 47.3099C6.18366 47.2127 6.80129 47.0186 7.37872 46.7342C7.59732 46.6078 7.82072 46.493 8.04415 46.3783C8.35748 46.2173 8.67089 46.0563 8.97127 45.8631C9.48584 45.532 9.98135 45.1703 10.4684 44.7994C11.0388 44.3644 11.6016 43.9194 12.1645 43.4744C12.639 43.0993 13.1139 42.7238 13.5929 42.3546C14.0493 42.0042 14.5077 41.6566 14.9681 41.3118L14.9474 41.3172C14.4527 41.4586 13.945 41.5495 13.432 41.5884C11.5761 41.5141 9.72038 41.7398 7.93641 42.2569C7.1309 42.5422 6.4377 43.0775 5.95808 43.7847C5.73429 44.131 5.61294 44.5335 5.60802 44.9458C5.6031 45.3581 5.71482 45.7634 5.93029 46.1149C5.95286 46.1482 5.96306 46.1883 5.95912 46.2283C5.95519 46.2683 5.93735 46.3056 5.90873 46.3339C5.8801 46.3621 5.84249 46.3794 5.80243 46.3827C5.76238 46.3861 5.72241 46.3753 5.68948 46.3523C5.29173 46.0186 5.01543 45.5628 4.90358 45.0558C4.79174 44.5488 4.85061 44.019 5.07105 43.5489C5.60517 42.6924 6.34954 41.9868 7.23336 41.4992C8.11718 41.0116 9.11106 40.7583 10.1204 40.7632C11.171 40.6758 12.2253 40.6418 13.2793 40.6614C13.7634 40.6611 14.2478 40.7016 14.7302 40.742L14.8342 40.7506C15.1251 40.7805 15.4186 40.7744 15.708 40.7323L15.7542 40.7241L16.9493 39.8368C17.3101 39.5689 17.6679 39.2971 18.0257 39.0252C18.7054 38.5089 19.3855 37.9922 20.0849 37.5032C21.1343 36.7326 22.1329 35.8952 23.0747 34.9963C24.0306 34.1185 24.9391 33.1904 25.7965 32.2162C26.6676 31.2319 27.4955 30.2099 28.3007 29.1712C28.6864 28.6723 29.0684 28.1709 29.4468 27.667Z" fill="url(#paint5_linear)"/>
<path d="M23.5104 39.6639C23.7253 39.4399 23.9527 39.2283 24.1914 39.0299C24.3887 38.8567 24.674 39.0717 24.6473 39.3021C24.5355 40.0303 24.1867 40.7013 23.6549 41.2112C23.1429 41.7559 22.5818 42.2524 21.9789 42.6945C20.8604 43.4955 19.693 44.2261 18.4835 44.8818C17.8535 45.2371 17.2142 45.5601 16.5702 45.8854L16.5692 45.8859L16.3754 45.9838C15.9573 46.1951 15.5472 46.4234 15.1373 46.6516C14.8582 46.807 14.5787 46.9626 14.2972 47.1125C14.1045 47.2152 13.9117 47.3184 13.7188 47.4217C12.5989 48.0215 11.4734 48.6243 10.3125 49.136C9.64519 49.4332 8.95353 49.6724 8.24518 49.8508C7.55758 49.9944 6.85246 50.0348 6.15296 49.9709C5.99323 49.9611 6.00527 49.7084 6.15883 49.6952C6.94665 49.6017 7.72131 49.4191 8.46793 49.1509C9.21809 48.901 9.94949 48.598 10.6566 48.2441C11.9728 47.6023 13.2445 46.8706 14.5132 46.1406L14.5371 46.1268C15.4949 45.5758 16.4222 44.9802 17.3504 44.3839C17.6819 44.171 18.0135 43.958 18.3467 43.7469C19.473 43.0797 20.5645 42.3555 21.6172 41.5772C22.0815 41.2194 22.5127 40.8206 22.9057 40.3856C23.0037 40.2749 23.0971 40.1597 23.1905 40.0444C23.295 39.9154 23.3995 39.7864 23.5104 39.6639Z" fill="black"/>
<path d="M23.5104 39.6639C23.7253 39.4399 23.9527 39.2283 24.1914 39.0299C24.3887 38.8567 24.674 39.0717 24.6473 39.3021C24.5355 40.0303 24.1867 40.7013 23.6549 41.2112C23.1429 41.7559 22.5818 42.2524 21.9789 42.6945C20.8604 43.4955 19.693 44.2261 18.4835 44.8818C17.8535 45.2371 17.2142 45.5601 16.5702 45.8854L16.5692 45.8859L16.3754 45.9838C15.9573 46.1951 15.5472 46.4234 15.1373 46.6516C14.8582 46.807 14.5787 46.9626 14.2972 47.1125C14.1045 47.2152 13.9117 47.3184 13.7188 47.4217C12.5989 48.0215 11.4734 48.6243 10.3125 49.136C9.64519 49.4332 8.95353 49.6724 8.24518 49.8508C7.55758 49.9944 6.85246 50.0348 6.15296 49.9709C5.99323 49.9611 6.00527 49.7084 6.15883 49.6952C6.94665 49.6017 7.72131 49.4191 8.46793 49.1509C9.21809 48.901 9.94949 48.598 10.6566 48.2441C11.9728 47.6023 13.2445 46.8706 14.5132 46.1406L14.5371 46.1268C15.4949 45.5758 16.4222 44.9802 17.3504 44.3839C17.6819 44.171 18.0135 43.958 18.3467 43.7469C19.473 43.0797 20.5645 42.3555 21.6172 41.5772C22.0815 41.2194 22.5127 40.8206 22.9057 40.3856C23.0037 40.2749 23.0971 40.1597 23.1905 40.0444C23.295 39.9154 23.3995 39.7864 23.5104 39.6639Z" fill="url(#paint6_linear)"/>
<path d="M24.1437 31.2138C24.0066 30.9025 23.8484 30.601 23.6701 30.3113C23.52 30.0175 23.4121 29.704 23.3494 29.3801C23.2744 29.0049 23.2599 28.6201 23.3064 28.2403C23.3354 27.8037 23.4112 27.3714 23.5324 26.951C23.6018 26.7394 23.2826 26.5997 23.2127 26.813C23.1467 27.0145 23.0629 27.209 22.9792 27.4034C22.8742 27.647 22.7694 27.8904 22.6996 28.1474C22.5714 28.5911 22.5225 29.0539 22.5549 29.5145C22.5665 29.9325 22.6861 30.3405 22.902 30.6986C23.1178 31.0568 23.4227 31.353 23.7869 31.5586C23.8355 31.578 23.8888 31.5829 23.9402 31.5727C23.9916 31.5626 24.039 31.5378 24.0766 31.5014C24.1143 31.465 24.1407 31.4185 24.1526 31.3675C24.1645 31.3165 24.1614 31.2631 24.1437 31.2138Z" fill="black"/>
<path d="M24.1437 31.2138C24.0066 30.9025 23.8484 30.601 23.6701 30.3113C23.52 30.0175 23.4121 29.704 23.3494 29.3801C23.2744 29.0049 23.2599 28.6201 23.3064 28.2403C23.3354 27.8037 23.4112 27.3714 23.5324 26.951C23.6018 26.7394 23.2826 26.5997 23.2127 26.813C23.1467 27.0145 23.0629 27.209 22.9792 27.4034C22.8742 27.647 22.7694 27.8904 22.6996 28.1474C22.5714 28.5911 22.5225 29.0539 22.5549 29.5145C22.5665 29.9325 22.6861 30.3405 22.902 30.6986C23.1178 31.0568 23.4227 31.353 23.7869 31.5586C23.8355 31.578 23.8888 31.5829 23.9402 31.5727C23.9916 31.5626 24.039 31.5378 24.0766 31.5014C24.1143 31.465 24.1407 31.4185 24.1526 31.3675C24.1645 31.3165 24.1614 31.2631 24.1437 31.2138Z" fill="url(#paint7_linear)"/>
<path d="M36.9545 45.247C36.8721 45.2444 36.7898 45.2418 36.7074 45.2407C36.6056 45.2394 36.5033 45.2415 36.4009 45.2436H36.3988C36.2174 45.2472 36.0351 45.2509 35.8553 45.236C35.7352 45.226 35.6157 45.2084 35.4959 45.1909C35.3606 45.171 35.2249 45.1511 35.0873 45.1419C34.813 45.1233 34.5416 45.1286 34.2669 45.1339L34.2504 45.1343C33.8544 45.142 33.4585 45.1516 33.0625 45.1612H33.0615C32.3889 45.1774 31.7157 45.1936 31.043 45.201L30.9407 45.2023C30.2425 44.827 29.6092 44.342 29.0649 43.7658C28.7185 43.3801 28.3944 42.975 28.094 42.5526L27.6407 41.9178C27.4479 41.6937 27.2738 41.4542 27.1203 41.2015C27.0293 41.0079 26.718 41.1299 26.8097 41.3249C26.9076 41.6086 26.9874 41.8984 27.0485 42.1923C27.1345 42.4769 27.235 42.7569 27.3493 43.0313C27.5788 43.5963 27.8837 44.1275 28.2558 44.6105C28.434 44.8306 28.6285 45.0368 28.8377 45.2275C27.5435 45.2381 26.2499 45.2295 24.9566 45.1444C23.8536 45.1557 22.7565 44.9814 21.7113 44.6287C21.6714 44.6115 21.6263 44.6109 21.586 44.6269C21.5456 44.643 21.5133 44.6744 21.4961 44.7143C21.4789 44.7542 21.4783 44.7993 21.4943 44.8397C21.5104 44.88 21.5418 44.9124 21.5817 44.9296C21.7442 45.0004 21.9041 45.0756 22.0638 45.1506C22.3506 45.2854 22.6372 45.4201 22.9373 45.5291C23.3808 45.6918 23.8356 45.8217 24.2982 45.9177C25.2858 46.0898 26.2857 46.1819 27.2882 46.1929C29.4671 46.3 31.6501 46.2945 33.8284 46.1763C34.4384 46.1645 35.0455 46.0896 35.6401 45.9528C35.9518 45.875 36.2687 45.8196 36.5883 45.7871C36.7222 45.7697 36.8553 45.7469 36.9884 45.7241C37.1676 45.6934 37.3468 45.6628 37.5276 45.6453C37.5537 45.6424 37.5789 45.6344 37.6018 45.6218C37.6248 45.6092 37.645 45.5922 37.6614 45.5718C37.6778 45.5514 37.69 45.5279 37.6973 45.5028C37.7046 45.4777 37.7069 45.4513 37.704 45.4253C37.7012 45.3993 37.6932 45.3741 37.6806 45.3511C37.668 45.3282 37.651 45.3079 37.6306 45.2915C37.6102 45.2751 37.5867 45.2629 37.5616 45.2556C37.5364 45.2483 37.5101 45.246 37.4841 45.2489C37.3078 45.2582 37.1308 45.2526 36.9545 45.247Z" fill="black"/>
<path d="M36.9545 45.247C36.8721 45.2444 36.7898 45.2418 36.7074 45.2407C36.6056 45.2394 36.5033 45.2415 36.4009 45.2436H36.3988C36.2174 45.2472 36.0351 45.2509 35.8553 45.236C35.7352 45.226 35.6157 45.2084 35.4959 45.1909C35.3606 45.171 35.2249 45.1511 35.0873 45.1419C34.813 45.1233 34.5416 45.1286 34.2669 45.1339L34.2504 45.1343C33.8544 45.142 33.4585 45.1516 33.0625 45.1612H33.0615C32.3889 45.1774 31.7157 45.1936 31.043 45.201L30.9407 45.2023C30.2425 44.827 29.6092 44.342 29.0649 43.7658C28.7185 43.3801 28.3944 42.975 28.094 42.5526L27.6407 41.9178C27.4479 41.6937 27.2738 41.4542 27.1203 41.2015C27.0293 41.0079 26.718 41.1299 26.8097 41.3249C26.9076 41.6086 26.9874 41.8984 27.0485 42.1923C27.1345 42.4769 27.235 42.7569 27.3493 43.0313C27.5788 43.5963 27.8837 44.1275 28.2558 44.6105C28.434 44.8306 28.6285 45.0368 28.8377 45.2275C27.5435 45.2381 26.2499 45.2295 24.9566 45.1444C23.8536 45.1557 22.7565 44.9814 21.7113 44.6287C21.6714 44.6115 21.6263 44.6109 21.586 44.6269C21.5456 44.643 21.5133 44.6744 21.4961 44.7143C21.4789 44.7542 21.4783 44.7993 21.4943 44.8397C21.5104 44.88 21.5418 44.9124 21.5817 44.9296C21.7442 45.0004 21.9041 45.0756 22.0638 45.1506C22.3506 45.2854 22.6372 45.4201 22.9373 45.5291C23.3808 45.6918 23.8356 45.8217 24.2982 45.9177C25.2858 46.0898 26.2857 46.1819 27.2882 46.1929C29.4671 46.3 31.6501 46.2945 33.8284 46.1763C34.4384 46.1645 35.0455 46.0896 35.6401 45.9528C35.9518 45.875 36.2687 45.8196 36.5883 45.7871C36.7222 45.7697 36.8553 45.7469 36.9884 45.7241C37.1676 45.6934 37.3468 45.6628 37.5276 45.6453C37.5537 45.6424 37.5789 45.6344 37.6018 45.6218C37.6248 45.6092 37.645 45.5922 37.6614 45.5718C37.6778 45.5514 37.69 45.5279 37.6973 45.5028C37.7046 45.4777 37.7069 45.4513 37.704 45.4253C37.7012 45.3993 37.6932 45.3741 37.6806 45.3511C37.668 45.3282 37.651 45.3079 37.6306 45.2915C37.6102 45.2751 37.5867 45.2629 37.5616 45.2556C37.5364 45.2483 37.5101 45.246 37.4841 45.2489C37.3078 45.2582 37.1308 45.2526 36.9545 45.247Z" fill="url(#paint8_linear)"/>
<path d="M59.7939 42.2889C60.1469 42.5815 60.5694 42.7783 61.0206 42.8602C61.1053 42.8533 61.1897 42.8767 61.2587 42.9264C61.3277 42.976 61.3768 43.0485 61.3973 43.131C61.4177 43.2135 61.4082 43.3006 61.3703 43.3767C61.3324 43.4528 61.2687 43.5129 61.1906 43.5464C60.9032 43.6924 60.5855 43.7688 60.2632 43.7694C59.9399 43.7388 59.6249 43.65 59.3333 43.5073L59.0846 43.3718C57.8902 43.4352 56.6932 43.3144 55.5355 43.0136C54.1252 42.7441 52.7323 42.3987 51.3393 42.0533C50.3298 41.8029 49.3202 41.5526 48.304 41.3311C47.1084 41.0705 45.906 40.833 44.6958 40.6505C44.4996 40.6209 44.3034 40.5899 44.1073 40.559C43.7139 40.4968 43.3205 40.4347 42.9257 40.3836C42.784 40.3653 42.6414 40.352 42.4988 40.3388C42.3284 40.323 42.1572 40.3071 41.9885 40.2825C41.8747 40.2659 41.7616 40.2459 41.6485 40.2259C41.4715 40.1947 41.2944 40.1634 41.1147 40.145C40.9532 40.1285 40.913 39.8641 41.0774 39.8178C41.1841 39.7879 41.2906 39.7547 41.3974 39.7214C41.6151 39.6536 41.8337 39.5855 42.0561 39.5442C42.3473 39.49 42.6474 39.4649 42.9439 39.44L43.0176 39.4338L43.1027 39.4266C43.413 39.3992 43.723 39.3862 44.033 39.3836C43.4661 38.4915 42.5999 37.8307 41.5897 37.5197C41.3923 37.4714 41.4338 37.1602 41.6378 37.2031C42.3598 37.3345 43.0518 37.5967 43.6796 37.9767C44.2307 38.34 44.6851 38.8319 45.0037 39.4099L45.1511 39.419C47.6179 39.6978 50.0563 40.1867 52.44 40.8802C53.6416 41.175 54.8466 41.4585 56.0643 41.6801C56.6476 41.7868 57.2342 41.8756 57.8216 41.9523C57.2666 40.8677 56.8588 39.714 56.6089 38.5216C56.3287 37.2996 56.1244 36.0615 55.9972 34.8142C55.926 34.1773 55.8888 33.5368 55.8528 32.8971C55.8363 32.6038 55.8335 32.3101 55.8308 32.0164C55.8276 31.6853 55.8245 31.3542 55.8017 31.0239C55.7586 30.4014 55.7061 29.7798 55.6441 29.159C55.6573 28.5877 55.5269 28.0223 55.2648 27.5145C55.2312 27.4679 55.2172 27.4099 55.2258 27.3531C55.2343 27.2963 55.2648 27.2451 55.3106 27.2105C55.3565 27.1758 55.4141 27.1605 55.4711 27.1678C55.5281 27.1751 55.58 27.2044 55.6156 27.2495C56.3554 28.2482 56.7663 29.4523 56.7911 30.695C56.8613 31.1864 56.9411 31.6759 57.0209 32.1654C57.1357 32.869 57.2504 33.5725 57.3362 34.2816C57.4805 35.4745 57.6322 36.6645 57.89 37.8392C58.1232 38.967 58.4809 40.0654 58.9567 41.1142C59.1542 41.5579 59.4389 41.9574 59.7939 42.2889Z" fill="black"/>
<path d="M59.7939 42.2889C60.1469 42.5815 60.5694 42.7783 61.0206 42.8602C61.1053 42.8533 61.1897 42.8767 61.2587 42.9264C61.3277 42.976 61.3768 43.0485 61.3973 43.131C61.4177 43.2135 61.4082 43.3006 61.3703 43.3767C61.3324 43.4528 61.2687 43.5129 61.1906 43.5464C60.9032 43.6924 60.5855 43.7688 60.2632 43.7694C59.9399 43.7388 59.6249 43.65 59.3333 43.5073L59.0846 43.3718C57.8902 43.4352 56.6932 43.3144 55.5355 43.0136C54.1252 42.7441 52.7323 42.3987 51.3393 42.0533C50.3298 41.8029 49.3202 41.5526 48.304 41.3311C47.1084 41.0705 45.906 40.833 44.6958 40.6505C44.4996 40.6209 44.3034 40.5899 44.1073 40.559C43.7139 40.4968 43.3205 40.4347 42.9257 40.3836C42.784 40.3653 42.6414 40.352 42.4988 40.3388C42.3284 40.323 42.1572 40.3071 41.9885 40.2825C41.8747 40.2659 41.7616 40.2459 41.6485 40.2259C41.4715 40.1947 41.2944 40.1634 41.1147 40.145C40.9532 40.1285 40.913 39.8641 41.0774 39.8178C41.1841 39.7879 41.2906 39.7547 41.3974 39.7214C41.6151 39.6536 41.8337 39.5855 42.0561 39.5442C42.3473 39.49 42.6474 39.4649 42.9439 39.44L43.0176 39.4338L43.1027 39.4266C43.413 39.3992 43.723 39.3862 44.033 39.3836C43.4661 38.4915 42.5999 37.8307 41.5897 37.5197C41.3923 37.4714 41.4338 37.1602 41.6378 37.2031C42.3598 37.3345 43.0518 37.5967 43.6796 37.9767C44.2307 38.34 44.6851 38.8319 45.0037 39.4099L45.1511 39.419C47.6179 39.6978 50.0563 40.1867 52.44 40.8802C53.6416 41.175 54.8466 41.4585 56.0643 41.6801C56.6476 41.7868 57.2342 41.8756 57.8216 41.9523C57.2666 40.8677 56.8588 39.714 56.6089 38.5216C56.3287 37.2996 56.1244 36.0615 55.9972 34.8142C55.926 34.1773 55.8888 33.5368 55.8528 32.8971C55.8363 32.6038 55.8335 32.3101 55.8308 32.0164C55.8276 31.6853 55.8245 31.3542 55.8017 31.0239C55.7586 30.4014 55.7061 29.7798 55.6441 29.159C55.6573 28.5877 55.5269 28.0223 55.2648 27.5145C55.2312 27.4679 55.2172 27.4099 55.2258 27.3531C55.2343 27.2963 55.2648 27.2451 55.3106 27.2105C55.3565 27.1758 55.4141 27.1605 55.4711 27.1678C55.5281 27.1751 55.58 27.2044 55.6156 27.2495C56.3554 28.2482 56.7663 29.4523 56.7911 30.695C56.8613 31.1864 56.9411 31.6759 57.0209 32.1654C57.1357 32.869 57.2504 33.5725 57.3362 34.2816C57.4805 35.4745 57.6322 36.6645 57.89 37.8392C58.1232 38.967 58.4809 40.0654 58.9567 41.1142C59.1542 41.5579 59.4389 41.9574 59.7939 42.2889Z" fill="url(#paint9_linear)"/>
<path d="M43.7485 48.838C43.0198 48.3286 42.174 48.0119 41.29 47.9173C40.4387 47.7609 39.5758 47.6762 38.7103 47.664C37.5136 47.6453 36.3217 47.7243 35.1295 47.8032C34.495 47.8452 33.8604 47.8873 33.225 47.9146C32.2617 47.9559 31.2995 48.014 30.3373 48.0721C29.2725 48.1363 28.2071 48.2006 27.1407 48.2422C25.1157 48.3213 23.0875 48.374 21.0612 48.4123C20.3473 48.4257 19.6335 48.4278 18.9196 48.4299C18.5148 48.4311 18.11 48.4323 17.7052 48.4356C17.1375 48.4399 16.5698 48.4399 16.0021 48.4356C15.7405 48.4334 15.4785 48.4416 15.2165 48.4498C14.8682 48.4606 14.5192 48.4715 14.1719 48.4581C13.9713 48.4504 13.914 48.7516 14.1237 48.7747C14.3919 48.8043 14.6576 48.8497 14.9234 48.8952L14.9245 48.8953C15.142 48.9326 15.3605 48.9699 15.5795 48.9984C15.9893 49.0519 16.4018 49.0904 16.8137 49.1288L16.8147 49.1289L16.8162 49.1291L16.8186 49.1293C16.9133 49.1382 17.0081 49.147 17.1027 49.156C18.1 49.2513 19.0982 49.316 20.0988 49.3653C22.1138 49.4647 24.1283 49.5056 26.145 49.4445C28.1332 49.3845 30.1264 49.2998 32.107 49.112C32.8278 49.0437 33.546 48.9554 34.2642 48.8671C35.3955 48.7281 36.527 48.589 37.6674 48.5279C38.6359 48.4712 39.6077 48.5173 40.5666 48.6652C41.0402 48.742 41.5053 48.8642 41.9554 49.0302C42.1499 49.1015 42.3383 49.1873 42.5265 49.273C42.7819 49.3894 43.0368 49.5056 43.3054 49.5845C43.4026 49.6231 43.5104 49.6257 43.6094 49.592C43.7084 49.5582 43.7922 49.4903 43.8455 49.4003C43.8989 49.3104 43.9185 49.2043 43.9007 49.1013C43.8829 48.9982 43.829 48.9049 43.7485 48.838Z" fill="black"/>
<path d="M43.7485 48.838C43.0198 48.3286 42.174 48.0119 41.29 47.9173C40.4387 47.7609 39.5758 47.6762 38.7103 47.664C37.5136 47.6453 36.3217 47.7243 35.1295 47.8032C34.495 47.8452 33.8604 47.8873 33.225 47.9146C32.2617 47.9559 31.2995 48.014 30.3373 48.0721C29.2725 48.1363 28.2071 48.2006 27.1407 48.2422C25.1157 48.3213 23.0875 48.374 21.0612 48.4123C20.3473 48.4257 19.6335 48.4278 18.9196 48.4299C18.5148 48.4311 18.11 48.4323 17.7052 48.4356C17.1375 48.4399 16.5698 48.4399 16.0021 48.4356C15.7405 48.4334 15.4785 48.4416 15.2165 48.4498C14.8682 48.4606 14.5192 48.4715 14.1719 48.4581C13.9713 48.4504 13.914 48.7516 14.1237 48.7747C14.3919 48.8043 14.6576 48.8497 14.9234 48.8952L14.9245 48.8953C15.142 48.9326 15.3605 48.9699 15.5795 48.9984C15.9893 49.0519 16.4018 49.0904 16.8137 49.1288L16.8147 49.1289L16.8162 49.1291L16.8186 49.1293C16.9133 49.1382 17.0081 49.147 17.1027 49.156C18.1 49.2513 19.0982 49.316 20.0988 49.3653C22.1138 49.4647 24.1283 49.5056 26.145 49.4445C28.1332 49.3845 30.1264 49.2998 32.107 49.112C32.8278 49.0437 33.546 48.9554 34.2642 48.8671C35.3955 48.7281 36.527 48.589 37.6674 48.5279C38.6359 48.4712 39.6077 48.5173 40.5666 48.6652C41.0402 48.742 41.5053 48.8642 41.9554 49.0302C42.1499 49.1015 42.3383 49.1873 42.5265 49.273C42.7819 49.3894 43.0368 49.5056 43.3054 49.5845C43.4026 49.6231 43.5104 49.6257 43.6094 49.592C43.7084 49.5582 43.7922 49.4903 43.8455 49.4003C43.8989 49.3104 43.9185 49.2043 43.9007 49.1013C43.8829 48.9982 43.829 48.9049 43.7485 48.838Z" fill="url(#paint10_linear)"/>
<path d="M41.9312 45.8727C42.4633 46.0597 42.959 46.3376 43.3962 46.694L43.4021 46.6994C43.8069 47.0711 44.3323 47.5536 44.2868 48.1456C44.2782 48.2004 44.2572 48.2527 44.2254 48.2982C44.1936 48.3438 44.1518 48.3815 44.1032 48.4084C44.0546 48.4354 44.0005 48.4509 43.945 48.4539C43.8896 48.4568 43.8341 48.447 43.783 48.4253C43.4862 48.2645 43.3015 47.9714 43.1183 47.6807C43.025 47.5326 42.9321 47.3852 42.8249 47.2561C42.5198 46.8477 42.1569 46.4858 41.7478 46.1817C41.5719 46.0618 41.7474 45.7983 41.9312 45.8727Z" fill="black"/>
<path d="M41.9312 45.8727C42.4633 46.0597 42.959 46.3376 43.3962 46.694L43.4021 46.6994C43.8069 47.0711 44.3323 47.5536 44.2868 48.1456C44.2782 48.2004 44.2572 48.2527 44.2254 48.2982C44.1936 48.3438 44.1518 48.3815 44.1032 48.4084C44.0546 48.4354 44.0005 48.4509 43.945 48.4539C43.8896 48.4568 43.8341 48.447 43.783 48.4253C43.4862 48.2645 43.3015 47.9714 43.1183 47.6807C43.025 47.5326 42.9321 47.3852 42.8249 47.2561C42.5198 46.8477 42.1569 46.4858 41.7478 46.1817C41.5719 46.0618 41.7474 45.7983 41.9312 45.8727Z" fill="url(#paint11_linear)"/>
<path d="M66.2214 46.5611C65.9667 46.6621 65.7324 46.8084 65.53 46.993C65.343 47.1317 65.1421 47.2507 64.9306 47.3482C64.4805 47.5515 64.0059 47.696 63.5187 47.7779C62.3873 47.9358 61.2463 48.0165 60.1039 48.0193C57.451 48.1223 54.7976 48.1848 52.1444 48.0722C51.4341 48.042 50.7249 47.9943 50.0156 47.9466L49.906 47.9392C49.1386 47.9374 48.3725 47.8785 47.6139 47.7632C47.3946 47.7145 47.3437 48.0591 47.5615 48.107C47.9129 48.1851 48.2554 48.2999 48.5984 48.4147C48.9335 48.527 49.2694 48.6394 49.6139 48.7179C50.286 48.8711 50.9619 48.9818 51.6452 49.0723C53.0306 49.2401 54.4238 49.3357 55.8192 49.3589C57.2374 49.3981 58.6572 49.3675 60.0751 49.3357C61.2756 49.3482 62.4753 49.2685 63.6636 49.0971C64.2835 48.9986 64.8876 48.8182 65.46 48.5605C65.752 48.4245 66.031 48.262 66.2934 48.075C66.6293 47.8692 66.8753 47.5443 66.9825 47.1652C67.1025 46.715 66.5814 46.4547 66.2214 46.5611Z" fill="black"/>
<path d="M66.2214 46.5611C65.9667 46.6621 65.7324 46.8084 65.53 46.993C65.343 47.1317 65.1421 47.2507 64.9306 47.3482C64.4805 47.5515 64.0059 47.696 63.5187 47.7779C62.3873 47.9358 61.2463 48.0165 60.1039 48.0193C57.451 48.1223 54.7976 48.1848 52.1444 48.0722C51.4341 48.042 50.7249 47.9943 50.0156 47.9466L49.906 47.9392C49.1386 47.9374 48.3725 47.8785 47.6139 47.7632C47.3946 47.7145 47.3437 48.0591 47.5615 48.107C47.9129 48.1851 48.2554 48.2999 48.5984 48.4147C48.9335 48.527 49.2694 48.6394 49.6139 48.7179C50.286 48.8711 50.9619 48.9818 51.6452 49.0723C53.0306 49.2401 54.4238 49.3357 55.8192 49.3589C57.2374 49.3981 58.6572 49.3675 60.0751 49.3357C61.2756 49.3482 62.4753 49.2685 63.6636 49.0971C64.2835 48.9986 64.8876 48.8182 65.46 48.5605C65.752 48.4245 66.031 48.262 66.2934 48.075C66.6293 47.8692 66.8753 47.5443 66.9825 47.1652C67.1025 46.715 66.5814 46.4547 66.2214 46.5611Z" fill="url(#paint12_linear)"/>
<path d="M54.6479 20.8331C54.7058 20.3795 54.7081 19.9205 54.6549 19.4663C54.6273 19.2228 54.591 18.9816 54.5479 18.7409C54.5278 18.5124 54.4748 18.2879 54.3903 18.0746C54.3756 18.0393 54.3508 18.009 54.3189 17.9878C54.287 17.9665 54.2496 17.9552 54.2113 17.9552C54.173 17.9552 54.1355 17.9665 54.1037 17.9878C54.0718 18.009 54.0469 18.0393 54.0322 18.0746L54.025 18.0689C53.9537 18.3165 53.9151 18.5725 53.9104 18.8301L53.8199 19.5516C53.7654 20.0567 53.6725 20.557 53.542 21.048C53.1735 21.9111 52.7239 22.7373 52.1994 23.5155C51.9792 23.9105 51.8581 24.353 51.8464 24.805C51.8348 25.2571 51.9329 25.7052 52.1325 26.111C52.3415 26.5189 52.6163 26.8896 52.9458 27.2082C53.2708 27.5157 53.9564 27.8929 54.3497 27.5064C54.4319 27.4373 54.4914 27.3449 54.5204 27.2415C54.5493 27.138 54.5464 27.0282 54.512 26.9264C54.4325 26.6281 54.1284 26.4933 53.8424 26.3666C53.7259 26.315 53.6124 26.2647 53.5184 26.2052C53.2484 26.0166 53.058 25.7345 52.9842 25.4135C52.9348 25.046 52.9629 24.6722 53.0667 24.3163C53.1705 23.9603 53.3477 23.63 53.5868 23.3466C54.1235 22.5984 54.486 21.7396 54.6479 20.8331Z" fill="black"/>
<path d="M54.6479 20.8331C54.7058 20.3795 54.7081 19.9205 54.6549 19.4663C54.6273 19.2228 54.591 18.9816 54.5479 18.7409C54.5278 18.5124 54.4748 18.2879 54.3903 18.0746C54.3756 18.0393 54.3508 18.009 54.3189 17.9878C54.287 17.9665 54.2496 17.9552 54.2113 17.9552C54.173 17.9552 54.1355 17.9665 54.1037 17.9878C54.0718 18.009 54.0469 18.0393 54.0322 18.0746L54.025 18.0689C53.9537 18.3165 53.9151 18.5725 53.9104 18.8301L53.8199 19.5516C53.7654 20.0567 53.6725 20.557 53.542 21.048C53.1735 21.9111 52.7239 22.7373 52.1994 23.5155C51.9792 23.9105 51.8581 24.353 51.8464 24.805C51.8348 25.2571 51.9329 25.7052 52.1325 26.111C52.3415 26.5189 52.6163 26.8896 52.9458 27.2082C53.2708 27.5157 53.9564 27.8929 54.3497 27.5064C54.4319 27.4373 54.4914 27.3449 54.5204 27.2415C54.5493 27.138 54.5464 27.0282 54.512 26.9264C54.4325 26.6281 54.1284 26.4933 53.8424 26.3666C53.7259 26.315 53.6124 26.2647 53.5184 26.2052C53.2484 26.0166 53.058 25.7345 52.9842 25.4135C52.9348 25.046 52.9629 24.6722 53.0667 24.3163C53.1705 23.9603 53.3477 23.63 53.5868 23.3466C54.1235 22.5984 54.486 21.7396 54.6479 20.8331Z" fill="url(#paint13_linear)"/>
<path d="M40.0715 12.9834C40.3582 12.6591 40.6998 12.3879 41.0807 12.1822C41.3181 12.0742 41.5828 12.4061 41.3958 12.6025C41.2315 12.7754 41.0548 12.9353 40.8779 13.0953C40.6777 13.2765 40.4772 13.4579 40.2939 13.6588C40.0966 13.8752 39.9038 14.0957 39.7111 14.3162C39.5646 14.4837 39.4178 14.6516 39.2694 14.8173C38.9958 15.2045 38.6995 15.5751 38.3821 15.9272C37.9945 16.2453 37.5881 16.5397 37.1651 16.809C36.9324 16.9695 36.6873 17.1065 36.4422 17.2436C36.2341 17.36 36.0259 17.4764 35.8253 17.6072C35.5542 17.7843 35.2958 17.9821 35.0378 18.1796C34.9052 18.2811 34.7727 18.3826 34.6387 18.481C33.8566 19.0647 33.0396 19.6 32.1923 20.084C31.3447 20.5566 30.4487 20.9364 29.5197 21.2169C29.4702 21.2353 29.4153 21.2336 29.367 21.2121C29.3187 21.1906 29.2807 21.1511 29.2612 21.1019C29.2417 21.0528 29.2422 20.998 29.2626 20.9492C29.283 20.9004 29.3217 20.8616 29.3705 20.841C30.3488 20.324 31.2999 19.7571 32.22 19.1424C32.8469 18.7405 33.4603 18.3168 34.0733 17.8934L34.0745 17.8925C34.2496 17.7715 34.4248 17.6505 34.6002 17.5301C35.0815 17.1996 35.5236 16.8285 35.9664 16.4567C36.2868 16.1877 36.6077 15.9183 36.9441 15.6638C37.3313 15.345 37.7424 15.0565 38.1738 14.8008C38.563 14.5767 38.9081 14.2834 39.192 13.9354L39.3109 13.8026C39.5592 13.5248 39.8076 13.2468 40.0715 12.9834Z" fill="black"/>
<path d="M40.0715 12.9834C40.3582 12.6591 40.6998 12.3879 41.0807 12.1822C41.3181 12.0742 41.5828 12.4061 41.3958 12.6025C41.2315 12.7754 41.0548 12.9353 40.8779 13.0953C40.6777 13.2765 40.4772 13.4579 40.2939 13.6588C40.0966 13.8752 39.9038 14.0957 39.7111 14.3162C39.5646 14.4837 39.4178 14.6516 39.2694 14.8173C38.9958 15.2045 38.6995 15.5751 38.3821 15.9272C37.9945 16.2453 37.5881 16.5397 37.1651 16.809C36.9324 16.9695 36.6873 17.1065 36.4422 17.2436C36.2341 17.36 36.0259 17.4764 35.8253 17.6072C35.5542 17.7843 35.2958 17.9821 35.0378 18.1796C34.9052 18.2811 34.7727 18.3826 34.6387 18.481C33.8566 19.0647 33.0396 19.6 32.1923 20.084C31.3447 20.5566 30.4487 20.9364 29.5197 21.2169C29.4702 21.2353 29.4153 21.2336 29.367 21.2121C29.3187 21.1906 29.2807 21.1511 29.2612 21.1019C29.2417 21.0528 29.2422 20.998 29.2626 20.9492C29.283 20.9004 29.3217 20.8616 29.3705 20.841C30.3488 20.324 31.2999 19.7571 32.22 19.1424C32.8469 18.7405 33.4603 18.3168 34.0733 17.8934L34.0745 17.8925C34.2496 17.7715 34.4248 17.6505 34.6002 17.5301C35.0815 17.1996 35.5236 16.8285 35.9664 16.4567C36.2868 16.1877 36.6077 15.9183 36.9441 15.6638C37.3313 15.345 37.7424 15.0565 38.1738 14.8008C38.563 14.5767 38.9081 14.2834 39.192 13.9354L39.3109 13.8026C39.5592 13.5248 39.8076 13.2468 40.0715 12.9834Z" fill="url(#paint14_linear)"/>
<path fill-rule="evenodd" clip-rule="evenodd" d="M51.6392 19.3691C51.5776 18.4345 51.347 17.5189 50.9586 16.6666C50.6338 15.7998 50.1081 15.0225 49.4245 14.3983C49.3694 14.358 49.3018 14.3385 49.2337 14.3434C49.1656 14.3484 49.1014 14.3774 49.0527 14.4252C49.004 14.4731 48.9739 14.5368 48.9678 14.6048C48.9617 14.6728 48.98 14.7408 49.0194 14.7966C49.4751 15.3693 49.855 15.9984 50.1495 16.6684C50.3891 17.3419 50.5131 18.0509 50.5163 18.7657C50.5502 20.1493 50.1597 21.5101 49.3975 22.6653C48.6428 23.7913 47.5329 24.6323 46.2447 25.0542C45.0013 25.4826 43.6564 25.5196 42.3912 25.1604C41.5731 24.9338 40.8271 24.5006 40.2248 23.9023C39.948 23.5884 39.7203 23.2345 39.5494 22.8526C39.327 22.4523 39.2151 22.0001 39.2252 21.5424C39.2319 21.4797 39.2141 21.4169 39.1757 21.3671C39.1372 21.3172 39.081 21.2841 39.0187 21.2746C38.9565 21.2652 38.893 21.2801 38.8414 21.3163C38.7899 21.3525 38.7543 21.4072 38.7421 21.469C38.6546 21.8981 38.6029 22.3337 38.5876 22.7713C38.603 23.2258 38.7068 23.6729 38.8931 24.0877C39.0457 24.428 39.2433 24.7463 39.4805 25.0342C39.202 25.277 38.9948 25.591 38.8811 25.9426C38.7674 26.2942 38.7515 26.67 38.8351 27.03C39.0987 27.8912 39.6765 28.6219 40.4539 29.0768C41.2123 29.5726 42.0939 29.8472 42.9998 29.87C43.9056 29.8928 44.7999 29.6627 45.5823 29.2057C46.0225 28.9222 46.3664 28.5119 46.5685 28.0289C46.6743 27.8049 46.7231 27.5582 46.7106 27.3108C46.6981 27.0634 46.6247 26.8229 46.4969 26.6107L46.4589 26.5638C47.9002 26.1415 49.1869 25.3079 50.1616 24.1653C51.2284 22.8033 51.7546 21.0953 51.6392 19.3691ZM44.4463 28.2892C43.7062 28.5086 42.9209 28.5263 42.1716 28.3404C41.4434 28.1614 40.7753 27.7931 40.2351 27.2729C39.9569 27.0215 39.7871 26.672 39.7614 26.2979C39.7631 26.0223 39.8191 25.7497 39.9263 25.4957C40.2398 25.7718 40.5886 26.005 40.9636 26.1894C42.4834 26.9202 44.2072 27.1097 45.8495 26.7267L46.0174 26.685C45.9152 27.0647 45.717 27.4117 45.4419 27.6927C45.1668 27.9736 44.8238 28.179 44.4463 28.2892Z" fill="black"/>
<path fill-rule="evenodd" clip-rule="evenodd" d="M51.6392 19.3691C51.5776 18.4345 51.347 17.5189 50.9586 16.6666C50.6338 15.7998 50.1081 15.0225 49.4245 14.3983C49.3694 14.358 49.3018 14.3385 49.2337 14.3434C49.1656 14.3484 49.1014 14.3774 49.0527 14.4252C49.004 14.4731 48.9739 14.5368 48.9678 14.6048C48.9617 14.6728 48.98 14.7408 49.0194 14.7966C49.4751 15.3693 49.855 15.9984 50.1495 16.6684C50.3891 17.3419 50.5131 18.0509 50.5163 18.7657C50.5502 20.1493 50.1597 21.5101 49.3975 22.6653C48.6428 23.7913 47.5329 24.6323 46.2447 25.0542C45.0013 25.4826 43.6564 25.5196 42.3912 25.1604C41.5731 24.9338 40.8271 24.5006 40.2248 23.9023C39.948 23.5884 39.7203 23.2345 39.5494 22.8526C39.327 22.4523 39.2151 22.0001 39.2252 21.5424C39.2319 21.4797 39.2141 21.4169 39.1757 21.3671C39.1372 21.3172 39.081 21.2841 39.0187 21.2746C38.9565 21.2652 38.893 21.2801 38.8414 21.3163C38.7899 21.3525 38.7543 21.4072 38.7421 21.469C38.6546 21.8981 38.6029 22.3337 38.5876 22.7713C38.603 23.2258 38.7068 23.6729 38.8931 24.0877C39.0457 24.428 39.2433 24.7463 39.4805 25.0342C39.202 25.277 38.9948 25.591 38.8811 25.9426C38.7674 26.2942 38.7515 26.67 38.8351 27.03C39.0987 27.8912 39.6765 28.6219 40.4539 29.0768C41.2123 29.5726 42.0939 29.8472 42.9998 29.87C43.9056 29.8928 44.7999 29.6627 45.5823 29.2057C46.0225 28.9222 46.3664 28.5119 46.5685 28.0289C46.6743 27.8049 46.7231 27.5582 46.7106 27.3108C46.6981 27.0634 46.6247 26.8229 46.4969 26.6107L46.4589 26.5638C47.9002 26.1415 49.1869 25.3079 50.1616 24.1653C51.2284 22.8033 51.7546 21.0953 51.6392 19.3691ZM44.4463 28.2892C43.7062 28.5086 42.9209 28.5263 42.1716 28.3404C41.4434 28.1614 40.7753 27.7931 40.2351 27.2729C39.9569 27.0215 39.7871 26.672 39.7614 26.2979C39.7631 26.0223 39.8191 25.7497 39.9263 25.4957C40.2398 25.7718 40.5886 26.005 40.9636 26.1894C42.4834 26.9202 44.2072 27.1097 45.8495 26.7267L46.0174 26.685C45.9152 27.0647 45.717 27.4117 45.4419 27.6927C45.1668 27.9736 44.8238 28.179 44.4463 28.2892Z" fill="url(#paint15_linear)"/>
<path d="M51.9736 13.347C51.6398 12.3596 51.0119 11.4981 50.1742 10.8781C49.355 10.2201 48.4643 9.6564 47.519 9.19779C45.6633 8.37852 43.8665 7.43223 42.1411 6.36567C41.6808 6.04303 41.244 5.68806 40.834 5.30345C40.4103 4.94628 40.0371 4.53312 39.7247 4.07534C39.6061 3.87894 39.3044 4.06531 39.3809 4.26844C39.5191 4.67067 39.6817 5.06406 39.8679 5.44641C39.5641 6.08458 39.3107 6.74557 39.1101 7.42331L39.0938 7.46965C38.8142 8.26216 38.5345 9.05486 38.2439 9.84343C37.954 10.63 37.6633 11.4163 37.3717 12.2022C37.2251 12.5958 37.0852 12.9901 36.9474 13.3872C36.8818 13.577 36.8261 13.7682 36.7705 13.9592C36.6983 14.2075 36.6261 14.4557 36.532 14.7003C36.5151 14.744 36.5158 14.7926 36.534 14.8358C36.5521 14.879 36.5863 14.9135 36.6294 14.932C36.6724 14.9506 36.721 14.9517 36.7648 14.9352C36.8087 14.9187 36.8445 14.8859 36.8646 14.8435C36.9693 14.6438 37.087 14.4532 37.2046 14.2628C37.3184 14.0785 37.4322 13.8943 37.5339 13.7021C37.7395 13.3137 37.935 12.9235 38.12 12.5247C38.4798 11.7464 38.8176 10.962 39.1333 10.1647C39.4491 9.36754 39.7503 8.56762 40.0287 7.75738C40.0624 7.65923 40.097 7.56057 40.1317 7.46141C40.261 7.09264 40.3927 6.71672 40.4912 6.33602C40.6438 6.51093 40.8064 6.67782 40.9747 6.83869C41.7384 7.54314 42.5922 8.14307 43.5137 8.62277C45.3788 9.47405 47.1955 10.4276 48.9555 11.4791C49.4157 11.7911 49.8512 12.138 50.2582 12.5168C50.4855 12.7323 50.7007 12.9601 50.9159 13.1879C51.0915 13.3738 51.2672 13.5599 51.4494 13.7391C51.7213 14.0064 52.0443 13.626 51.9736 13.347Z" fill="black"/>
<path d="M51.9736 13.347C51.6398 12.3596 51.0119 11.4981 50.1742 10.8781C49.355 10.2201 48.4643 9.6564 47.519 9.19779C45.6633 8.37852 43.8665 7.43223 42.1411 6.36567C41.6808 6.04303 41.244 5.68806 40.834 5.30345C40.4103 4.94628 40.0371 4.53312 39.7247 4.07534C39.6061 3.87894 39.3044 4.06531 39.3809 4.26844C39.5191 4.67067 39.6817 5.06406 39.8679 5.44641C39.5641 6.08458 39.3107 6.74557 39.1101 7.42331L39.0938 7.46965C38.8142 8.26216 38.5345 9.05486 38.2439 9.84343C37.954 10.63 37.6633 11.4163 37.3717 12.2022C37.2251 12.5958 37.0852 12.9901 36.9474 13.3872C36.8818 13.577 36.8261 13.7682 36.7705 13.9592C36.6983 14.2075 36.6261 14.4557 36.532 14.7003C36.5151 14.744 36.5158 14.7926 36.534 14.8358C36.5521 14.879 36.5863 14.9135 36.6294 14.932C36.6724 14.9506 36.721 14.9517 36.7648 14.9352C36.8087 14.9187 36.8445 14.8859 36.8646 14.8435C36.9693 14.6438 37.087 14.4532 37.2046 14.2628C37.3184 14.0785 37.4322 13.8943 37.5339 13.7021C37.7395 13.3137 37.935 12.9235 38.12 12.5247C38.4798 11.7464 38.8176 10.962 39.1333 10.1647C39.4491 9.36754 39.7503 8.56762 40.0287 7.75738C40.0624 7.65923 40.097 7.56057 40.1317 7.46141C40.261 7.09264 40.3927 6.71672 40.4912 6.33602C40.6438 6.51093 40.8064 6.67782 40.9747 6.83869C41.7384 7.54314 42.5922 8.14307 43.5137 8.62277C45.3788 9.47405 47.1955 10.4276 48.9555 11.4791C49.4157 11.7911 49.8512 12.138 50.2582 12.5168C50.4855 12.7323 50.7007 12.9601 50.9159 13.1879C51.0915 13.3738 51.2672 13.5599 51.4494 13.7391C51.7213 14.0064 52.0443 13.626 51.9736 13.347Z" fill="url(#paint16_linear)"/>
<path d="M48.4044 18.4589C48.7145 18.235 49.025 18.0108 49.3648 17.8284C49.4894 17.7614 49.604 17.9702 49.4856 18.0444C49.1091 18.2795 48.7579 18.5527 48.4374 18.8597C48.1426 19.1949 47.8906 19.5654 47.6872 19.9627C47.2085 20.6952 46.6176 21.3478 45.9362 21.8967C45.26 22.4889 44.4411 22.8946 43.5603 23.0738C43.1623 23.144 42.7547 23.1391 42.3584 23.0594C41.9534 22.9448 41.5658 22.7762 41.2058 22.5581C40.9806 22.448 41.134 22.0898 41.3605 22.1999C41.7495 22.3343 42.1686 22.3562 42.5694 22.263C42.9551 22.2031 43.3311 22.0923 43.6877 21.9335C43.9563 21.8146 44.215 21.6742 44.4612 21.5139C44.1702 21.5001 43.8836 21.4372 43.6136 21.3277C42.9727 21.0725 42.4164 20.6425 42.0082 20.0865C41.8309 19.8722 41.7309 19.6045 41.7243 19.3265C41.7176 19.0484 41.8047 18.7762 41.9715 18.5537C42.0016 18.5174 42.0447 18.4943 42.0915 18.4893C42.1384 18.4842 42.1854 18.4977 42.2225 18.5267C42.2597 18.5558 42.284 18.5981 42.2904 18.6448C42.2968 18.6915 42.2848 18.7389 42.2569 18.7769C41.9963 19.1281 42.417 19.5924 42.6617 19.837C42.9542 20.1282 43.2993 20.3613 43.6788 20.5239C43.8638 20.6197 44.067 20.6755 44.275 20.6875C44.483 20.6996 44.6913 20.6677 44.8861 20.5939C45.1854 20.4423 45.5203 20.1917 45.42 19.8192C45.3834 19.6842 45.5664 19.5473 45.6541 19.6875C45.7827 19.8977 45.8438 20.1422 45.8292 20.3882C46.2919 19.8885 46.8236 19.4574 47.4081 19.1079C47.7613 18.9232 48.0826 18.6912 48.4044 18.4589Z" fill="black"/>
<path d="M48.4044 18.4589C48.7145 18.235 49.025 18.0108 49.3648 17.8284C49.4894 17.7614 49.604 17.9702 49.4856 18.0444C49.1091 18.2795 48.7579 18.5527 48.4374 18.8597C48.1426 19.1949 47.8906 19.5654 47.6872 19.9627C47.2085 20.6952 46.6176 21.3478 45.9362 21.8967C45.26 22.4889 44.4411 22.8946 43.5603 23.0738C43.1623 23.144 42.7547 23.1391 42.3584 23.0594C41.9534 22.9448 41.5658 22.7762 41.2058 22.5581C40.9806 22.448 41.134 22.0898 41.3605 22.1999C41.7495 22.3343 42.1686 22.3562 42.5694 22.263C42.9551 22.2031 43.3311 22.0923 43.6877 21.9335C43.9563 21.8146 44.215 21.6742 44.4612 21.5139C44.1702 21.5001 43.8836 21.4372 43.6136 21.3277C42.9727 21.0725 42.4164 20.6425 42.0082 20.0865C41.8309 19.8722 41.7309 19.6045 41.7243 19.3265C41.7176 19.0484 41.8047 18.7762 41.9715 18.5537C42.0016 18.5174 42.0447 18.4943 42.0915 18.4893C42.1384 18.4842 42.1854 18.4977 42.2225 18.5267C42.2597 18.5558 42.284 18.5981 42.2904 18.6448C42.2968 18.6915 42.2848 18.7389 42.2569 18.7769C41.9963 19.1281 42.417 19.5924 42.6617 19.837C42.9542 20.1282 43.2993 20.3613 43.6788 20.5239C43.8638 20.6197 44.067 20.6755 44.275 20.6875C44.483 20.6996 44.6913 20.6677 44.8861 20.5939C45.1854 20.4423 45.5203 20.1917 45.42 19.8192C45.3834 19.6842 45.5664 19.5473 45.6541 19.6875C45.7827 19.8977 45.8438 20.1422 45.8292 20.3882C46.2919 19.8885 46.8236 19.4574 47.4081 19.1079C47.7613 18.9232 48.0826 18.6912 48.4044 18.4589Z" fill="url(#paint17_linear)"/>
<path d="M47.6728 13.6849C47.2902 14.1248 46.989 14.6293 46.7833 15.1747C46.6807 15.6063 46.7067 16.4584 47.2003 16.6627C47.247 16.6832 47.2972 16.6943 47.3482 16.6953C47.3992 16.6962 47.4499 16.687 47.4973 16.6683C47.5447 16.6495 47.5879 16.6215 47.6244 16.5859C47.6609 16.5503 47.6899 16.5078 47.7099 16.4608C47.7789 16.2852 47.7116 16.1226 47.6441 15.9597C47.6091 15.875 47.574 15.7903 47.558 15.7036C47.494 15.0809 47.6447 14.455 47.9852 13.9297C48.1221 13.7162 47.8101 13.4689 47.6728 13.6849Z" fill="black"/>
<path d="M47.6728 13.6849C47.2902 14.1248 46.989 14.6293 46.7833 15.1747C46.6807 15.6063 46.7067 16.4584 47.2003 16.6627C47.247 16.6832 47.2972 16.6943 47.3482 16.6953C47.3992 16.6962 47.4499 16.687 47.4973 16.6683C47.5447 16.6495 47.5879 16.6215 47.6244 16.5859C47.6609 16.5503 47.6899 16.5078 47.7099 16.4608C47.7789 16.2852 47.7116 16.1226 47.6441 15.9597C47.6091 15.875 47.574 15.7903 47.558 15.7036C47.494 15.0809 47.6447 14.455 47.9852 13.9297C48.1221 13.7162 47.8101 13.4689 47.6728 13.6849Z" fill="url(#paint18_linear)"/>
<path d="M46.0634 12.3718C46.8391 12.245 47.264 12.7787 47.4316 13.4717C47.4348 13.5102 47.4268 13.5487 47.4086 13.5828C47.3904 13.6168 47.3628 13.6449 47.3291 13.6636C47.2953 13.6824 47.2569 13.691 47.2184 13.6884C47.1799 13.6859 47.1429 13.6722 47.112 13.6492C47.0188 13.5608 46.929 13.4671 46.8391 13.3732C46.7056 13.2338 46.5718 13.0941 46.4262 12.971C46.4198 12.9656 46.4133 12.9602 46.4067 12.9546C46.2974 12.8623 46.1689 12.7537 46.0202 12.7755C45.9379 12.7876 45.8585 12.8371 45.7794 12.8865C45.7176 12.9251 45.656 12.9636 45.5932 12.9841C45.3109 13.0384 45.0186 13.0026 44.7577 12.8818C44.4047 12.7809 44.0599 12.6533 43.7263 12.5C43.7037 12.4905 43.6855 12.473 43.6749 12.4509C43.6643 12.4288 43.6622 12.4036 43.669 12.38C43.6757 12.3565 43.6909 12.3362 43.7115 12.323C43.7322 12.3099 43.757 12.3048 43.7812 12.3086C44.2022 12.3529 44.6192 12.4295 45.0285 12.5378C45.2184 12.6007 45.4248 12.5918 45.6087 12.5129C45.7539 12.4476 45.9066 12.4002 46.0634 12.3718Z" fill="black"/>
<path d="M46.0634 12.3718C46.8391 12.245 47.264 12.7787 47.4316 13.4717C47.4348 13.5102 47.4268 13.5487 47.4086 13.5828C47.3904 13.6168 47.3628 13.6449 47.3291 13.6636C47.2953 13.6824 47.2569 13.691 47.2184 13.6884C47.1799 13.6859 47.1429 13.6722 47.112 13.6492C47.0188 13.5608 46.929 13.4671 46.8391 13.3732C46.7056 13.2338 46.5718 13.0941 46.4262 12.971C46.4198 12.9656 46.4133 12.9602 46.4067 12.9546C46.2974 12.8623 46.1689 12.7537 46.0202 12.7755C45.9379 12.7876 45.8585 12.8371 45.7794 12.8865C45.7176 12.9251 45.656 12.9636 45.5932 12.9841C45.3109 13.0384 45.0186 13.0026 44.7577 12.8818C44.4047 12.7809 44.0599 12.6533 43.7263 12.5C43.7037 12.4905 43.6855 12.473 43.6749 12.4509C43.6643 12.4288 43.6622 12.4036 43.669 12.38C43.6757 12.3565 43.6909 12.3362 43.7115 12.323C43.7322 12.3099 43.757 12.3048 43.7812 12.3086C44.2022 12.3529 44.6192 12.4295 45.0285 12.5378C45.2184 12.6007 45.4248 12.5918 45.6087 12.5129C45.7539 12.4476 45.9066 12.4002 46.0634 12.3718Z" fill="url(#paint19_linear)"/>
<defs>
<linearGradient id="paint0_linear" x1="47.2941" y1="9.1474" x2="9.96152" y2="40.073" gradientUnits="userSpaceOnUse">
<stop stop-color="#2DB7E6"/>
<stop offset="0.69382" stop-color="#38EBCB"/>
</linearGradient>
<linearGradient id="paint1_linear" x1="47.2941" y1="9.1474" x2="9.96152" y2="40.073" gradientUnits="userSpaceOnUse">
<stop stop-color="#2DB7E6"/>
<stop offset="0.69382" stop-color="#38EBCB"/>
</linearGradient>
<linearGradient id="paint2_linear" x1="47.2941" y1="9.1474" x2="9.96152" y2="40.073" gradientUnits="userSpaceOnUse">
<stop stop-color="#2DB7E6"/>
<stop offset="0.69382" stop-color="#38EBCB"/>
</linearGradient>
<linearGradient id="paint3_linear" x1="47.2941" y1="9.1474" x2="9.96152" y2="40.073" gradientUnits="userSpaceOnUse">
<stop stop-color="#2DB7E6"/>
<stop offset="0.69382" stop-color="#38EBCB"/>
</linearGradient>
<linearGradient id="paint4_linear" x1="47.2941" y1="9.1474" x2="9.96152" y2="40.073" gradientUnits="userSpaceOnUse">
<stop stop-color="#2DB7E6"/>
<stop offset="0.69382" stop-color="#38EBCB"/>
</linearGradient>
<linearGradient id="paint5_linear" x1="47.2941" y1="9.1474" x2="9.96152" y2="40.073" gradientUnits="userSpaceOnUse">
<stop stop-color="#2DB7E6"/>
<stop offset="0.69382" stop-color="#38EBCB"/>
</linearGradient>
<linearGradient id="paint6_linear" x1="47.2941" y1="9.1474" x2="9.96152" y2="40.073" gradientUnits="userSpaceOnUse">
<stop stop-color="#2DB7E6"/>
<stop offset="0.69382" stop-color="#38EBCB"/>
</linearGradient>
<linearGradient id="paint7_linear" x1="47.2941" y1="9.1474" x2="9.96152" y2="40.073" gradientUnits="userSpaceOnUse">
<stop stop-color="#2DB7E6"/>
<stop offset="0.69382" stop-color="#38EBCB"/>
</linearGradient>
<linearGradient id="paint8_linear" x1="47.2941" y1="9.1474" x2="9.96152" y2="40.073" gradientUnits="userSpaceOnUse">
<stop stop-color="#2DB7E6"/>
<stop offset="0.69382" stop-color="#38EBCB"/>
</linearGradient>
<linearGradient id="paint9_linear" x1="47.2941" y1="9.1474" x2="9.96152" y2="40.073" gradientUnits="userSpaceOnUse">
<stop stop-color="#2DB7E6"/>
<stop offset="0.69382" stop-color="#38EBCB"/>
</linearGradient>
<linearGradient id="paint10_linear" x1="47.2941" y1="9.1474" x2="9.96152" y2="40.073" gradientUnits="userSpaceOnUse">
<stop stop-color="#2DB7E6"/>
<stop offset="0.69382" stop-color="#38EBCB"/>
</linearGradient>
<linearGradient id="paint11_linear" x1="47.2941" y1="9.1474" x2="9.96152" y2="40.073" gradientUnits="userSpaceOnUse">
<stop stop-color="#2DB7E6"/>
<stop offset="0.69382" stop-color="#38EBCB"/>
</linearGradient>
<linearGradient id="paint12_linear" x1="47.2941" y1="9.1474" x2="9.96152" y2="40.073" gradientUnits="userSpaceOnUse">
<stop stop-color="#2DB7E6"/>
<stop offset="0.69382" stop-color="#38EBCB"/>
</linearGradient>
<linearGradient id="paint13_linear" x1="47.2941" y1="9.1474" x2="9.96152" y2="40.073" gradientUnits="userSpaceOnUse">
<stop stop-color="#2DB7E6"/>
<stop offset="0.69382" stop-color="#38EBCB"/>
</linearGradient>
<linearGradient id="paint14_linear" x1="47.2941" y1="9.1474" x2="9.96152" y2="40.073" gradientUnits="userSpaceOnUse">
<stop stop-color="#2DB7E6"/>
<stop offset="0.69382" stop-color="#38EBCB"/>
</linearGradient>
<linearGradient id="paint15_linear" x1="47.2941" y1="9.1474" x2="9.96152" y2="40.073" gradientUnits="userSpaceOnUse">
<stop stop-color="#2DB7E6"/>
<stop offset="0.69382" stop-color="#38EBCB"/>
</linearGradient>
<linearGradient id="paint16_linear" x1="47.2941" y1="9.1474" x2="9.96152" y2="40.073" gradientUnits="userSpaceOnUse">
<stop stop-color="#2DB7E6"/>
<stop offset="0.69382" stop-color="#38EBCB"/>
</linearGradient>
<linearGradient id="paint17_linear" x1="47.2941" y1="9.1474" x2="9.96152" y2="40.073" gradientUnits="userSpaceOnUse">
<stop stop-color="#2DB7E6"/>
<stop offset="0.69382" stop-color="#38EBCB"/>
</linearGradient>
<linearGradient id="paint18_linear" x1="47.2941" y1="9.1474" x2="9.96152" y2="40.073" gradientUnits="userSpaceOnUse">
<stop stop-color="#2DB7E6"/>
<stop offset="0.69382" stop-color="#38EBCB"/>
</linearGradient>
<linearGradient id="paint19_linear" x1="47.2941" y1="9.1474" x2="9.96152" y2="40.073" gradientUnits="userSpaceOnUse">
<stop stop-color="#2DB7E6"/>
<stop offset="0.69382" stop-color="#38EBCB"/>
</linearGradient>
</defs>
</svg>
