<svg width="104" height="112" viewBox="0 0 104 112" fill="none" xmlns="http://www.w3.org/2000/svg">
<path d="M54.9666 6.44188C53.8163 4.90268 52.3733 3.60566 50.7203 2.62528C49.0673 1.64489 47.2368 1.00044 45.334 0.728897C41.4824 0.221962 37.5778 1.13103 34.3468 3.28691C32.3836 4.60602 30.8763 6.49939 30.0312 8.7078C29.6113 9.80571 29.4375 10.9824 29.5222 12.1547C29.6069 13.3271 29.948 14.4665 30.5214 15.4928C30.5608 15.5422 30.6152 15.5776 30.6763 15.5938C30.7375 15.61 30.8022 15.6062 30.861 15.5828C30.9198 15.5595 30.9696 15.5178 31.0029 15.4641C31.0362 15.4103 31.0514 15.3473 31.0462 15.2843C30.8503 14.3491 30.7786 13.3921 30.833 12.4382C30.9319 11.4931 31.1384 10.5624 31.4487 9.66423C32.0672 7.8991 33.1874 6.35266 34.6721 5.2144C36.0307 4.13476 37.6149 3.37427 39.3073 2.98922C40.8866 2.71576 42.5053 2.77133 44.062 3.15244C45.5781 3.48987 47.0358 4.04986 48.3877 4.8142C49.6459 5.53577 50.777 6.45905 51.7358 7.54715C52.7232 8.71632 53.4599 10.0757 53.9002 11.5411C51.5703 8.57946 47.3805 8.78502 43.9285 8.36778C41.6601 8.0059 39.4692 7.26358 37.4482 6.17216C37.1626 6.03397 36.95 6.43842 37.1746 6.6328C38.8597 8.30089 40.8944 9.57412 43.1317 10.3605C45.3047 10.9703 47.6338 10.8153 49.7692 11.5704C50.6365 11.8589 51.4089 12.3779 52.0036 13.0716C52.5984 13.7653 52.9931 14.6077 53.1455 15.5085C53.3621 16.4825 53.4868 17.49 53.6154 18.4792C53.6597 18.8195 53.6935 19.1622 53.7068 19.5051C53.5847 19.9108 53.4404 20.3095 53.2744 20.6993C52.6383 22.3333 51.7112 23.8385 50.538 25.142C50.1917 25.4881 50.6923 26.1615 51.1225 25.9226C51.9205 25.5339 52.6789 25.0686 53.3869 24.5333C54.0785 23.9557 54.685 23.2834 55.1885 22.5363C56.2837 20.9711 57.0442 19.1969 57.4222 17.3247C57.7594 15.4387 57.7159 13.5043 57.2942 11.6354C56.8725 9.76643 56.0811 8.00065 54.9666 6.44188Z" fill="url(#paint0_linear)"/>
<path d="M72.8934 57.5795C72.6989 55.7916 72.3931 54.0176 71.9778 52.2677C71.0544 48.6695 69.7946 45.166 68.215 41.8035C67.5138 40.1873 66.8345 38.5551 66.0649 36.9687C65.4604 35.4369 64.3991 34.128 63.0251 33.2197C61.5078 32.5304 59.882 32.1107 58.2206 31.9794C56.9436 31.7452 55.7301 31.2451 54.6589 30.5118C52.1611 28.7226 50.317 26.1663 49.4077 23.2323C49.2878 22.8556 48.754 22.974 48.6858 23.3143C48.4328 24.7276 48.5203 26.1808 48.941 27.5536C49.3618 28.9263 50.1036 30.1791 51.1052 31.2083C52.1448 32.3267 53.3899 33.2349 54.7727 33.8832C56.2077 34.4841 57.7302 34.85 59.2817 34.9669C60.007 34.9473 60.7286 35.077 61.4017 35.3478C62.0747 35.6187 62.6849 36.0251 63.1942 36.5416C64.125 37.8748 64.8943 39.3136 65.486 40.8279C67.0949 44.1289 68.4608 47.5427 69.573 51.0421C70.2084 52.9741 70.6899 54.9533 71.0132 56.9612C71.1552 57.9656 71.2412 58.9752 71.2934 59.9878C71.3174 60.4556 71.3298 60.9237 71.3307 61.3921C71.3554 61.9354 71.4077 62.4771 71.4876 63.015C71.5574 63.7156 72.4765 63.6391 72.6401 63.0392C72.7957 62.5921 72.9058 62.1305 72.9688 61.6613C72.9994 61.238 73.0058 60.8114 73.0125 60.387C73.0254 59.4496 72.9857 58.5123 72.8934 57.5795Z" fill="url(#paint1_linear)"/>
<path d="M66.5529 65.2435C65.9224 65.2763 65.2939 65.2199 64.6676 65.2638C64.0413 65.3077 63.4156 65.3668 62.7861 65.3921C61.5268 65.443 60.2665 65.4877 59.0067 65.5173C56.4908 65.5685 53.9772 65.3322 51.5149 64.813C49.0849 64.3132 46.696 63.6307 44.3688 62.7713C42.0435 61.7445 39.5455 61.1642 37.0054 61.0608C34.0548 61.3767 31.1739 62.1633 28.4725 63.3909C28.0226 63.5453 28.302 64.175 28.7389 64.0619C31.3017 63.3841 33.9473 63.0713 36.5976 63.1326C37.1217 63.152 37.6445 63.1979 38.164 63.2703L37.2332 63.8132C36.4333 64.3183 35.6648 64.8715 34.9321 65.4699C33.3606 66.7201 31.906 68.1104 30.5861 69.6236C27.9916 72.5411 25.8316 75.8173 24.1729 79.3511C23.72 80.3427 23.3092 81.3414 22.9565 82.3727C22.7802 82.8881 22.5902 83.4063 22.4642 83.9367C22.375 84.5196 22.2435 85.0953 22.0708 85.6592C21.9272 86.0181 22.4786 86.2569 22.6225 85.8972C23.0685 85.0409 23.5825 84.2217 24.1596 83.4476C24.6468 82.6517 25.1468 81.8622 25.6474 81.0749C26.6597 79.4837 27.7437 77.9407 28.821 76.3942C31.0295 73.3621 33.4198 70.4665 35.9787 67.7233C36.673 66.9469 37.4213 66.2191 38.1083 65.4377C38.453 65.0455 38.7844 64.6237 39.1454 64.2488C39.3782 64.0067 39.6539 63.827 39.8718 63.594C41.2214 63.93 42.5378 64.3876 43.8046 64.9613C44.9501 65.4709 46.0615 66.0455 47.2481 66.4604C48.4689 66.894 49.7155 67.2512 50.9808 67.53C53.4865 68.0573 56.0412 68.3172 58.6018 68.3051C59.979 68.3175 61.3538 68.1879 62.7043 67.9182C63.4198 67.7693 64.1308 67.588 64.8355 67.3942C65.5362 67.1632 66.2171 66.8763 66.8718 66.5363C67.0181 66.4727 67.1372 66.3594 67.208 66.2165C67.2788 66.0735 67.2966 65.9102 67.2585 65.7553C67.2203 65.6005 67.1285 65.4642 66.9993 65.3705C66.8702 65.2768 66.712 65.2318 66.5529 65.2435Z" fill="url(#paint2_linear)"/>
<path d="M67.941 57.4444C67.7889 57.0785 67.5915 56.7331 67.3533 56.4164C67.0579 56.1248 66.7166 55.8837 66.3431 55.7025C65.6313 55.2801 64.8731 54.9411 64.0836 54.6923C63.3003 54.4449 62.5026 54.246 61.6948 54.0967C61.5049 53.7633 61.2934 53.4491 61.1117 53.1704C60.5365 52.289 59.9782 51.3984 59.4022 50.5176C58.8304 49.6433 58.2826 48.7534 57.7591 47.8477C57.4788 47.3631 57.2108 46.8721 56.946 46.379C56.6397 45.9174 56.358 45.44 56.1021 44.9486C56.0593 44.8497 55.9797 44.7714 55.8801 44.7302C55.7805 44.689 55.6688 44.6882 55.5687 44.728C55.4685 44.7677 55.3877 44.8449 55.3436 44.9432C55.2994 45.0414 55.2952 45.153 55.332 45.2543C55.5336 45.7551 55.5829 46.3316 55.7566 46.8519C55.9303 47.3722 56.1264 47.881 56.3232 48.3904C56.7301 49.4432 57.175 50.4795 57.6579 51.4993C58.0382 52.295 58.4592 53.0707 58.9192 53.8232C55.5954 53.9192 52.2891 54.3409 49.0477 55.0824C47.2374 55.4844 45.394 55.7202 43.5408 55.7867C42.5875 55.7686 41.6364 55.6897 40.6933 55.5505C40.29 55.5032 39.8898 55.4329 39.4945 55.3402C38.9436 55.2025 38.4614 54.9157 37.9265 54.7277C36.2671 54.1606 34.4619 54.1888 32.821 54.8076C31.7101 55.3043 30.6631 55.9326 29.7023 56.6792C29.6637 56.1733 29.535 55.6535 29.4676 55.1932C29.3344 54.2844 29.2694 53.3714 29.1714 52.4594C28.9785 50.6608 28.8949 48.8507 28.6685 47.0577C28.6595 46.993 28.6298 46.9329 28.5838 46.8864C28.5379 46.8399 28.4781 46.8095 28.4134 46.7998C28.3488 46.7901 28.2827 46.8016 28.2251 46.8325C28.1675 46.8635 28.1214 46.9122 28.0938 46.9714C27.3883 48.7439 27.0093 50.6292 26.975 52.5364C26.9509 53.5098 26.9922 54.4838 27.0989 55.4517C27.0675 56.4022 27.3401 57.338 27.877 58.1232C25.8346 59.9088 23.6856 61.5688 21.4417 63.0938C21.1513 63.2778 21.4292 63.7805 21.7411 63.6263C24.2274 62.3917 26.2989 60.5004 28.6538 59.0466C29.7797 58.2917 31.0349 57.7502 32.3567 57.449C33.7693 57.2215 35.1971 57.1013 36.6278 57.0892C37.5093 57.0677 38.386 56.8347 39.2625 56.8576C40.1514 56.8808 41.0193 56.9713 41.9102 56.9564C43.6729 56.9266 45.4324 56.8336 47.1946 56.7788C50.5931 56.6723 53.948 56.2005 57.3582 56.2878C59.0461 56.313 60.7267 56.5169 62.3717 56.8959C63.1653 57.1049 63.9436 57.368 64.7011 57.6836C65.0863 57.8356 65.4494 58.0297 65.8282 58.1929C66.2567 58.3385 66.7048 58.418 67.1572 58.4286C67.283 58.4457 67.411 58.4299 67.5288 58.3827C67.6466 58.3355 67.7501 58.2585 67.8291 58.1593C67.9082 58.0601 67.96 57.942 67.9796 57.8167C67.9993 57.6913 67.9859 57.5631 67.941 57.4444Z" fill="url(#paint3_linear)"/>
<path d="M45.4941 22.5631C45.0907 23.0003 44.6149 23.3843 44.1978 23.8193C43.81 24.2239 43.3948 24.6014 42.9553 24.9491C41.9943 25.6802 40.9723 26.3276 39.9006 26.884C38.8555 27.4544 37.7707 27.9464 36.6985 28.4619C35.6571 28.9625 34.3561 29.6947 33.282 28.9111C33.2388 28.8794 33.1857 28.864 33.1322 28.8678C33.0787 28.8716 33.0284 28.8943 32.9901 28.9319C32.9519 28.9694 32.9283 29.0194 32.9235 29.0728C32.9187 29.1261 32.9332 29.1795 32.9642 29.2232C33.366 29.6185 33.8721 29.8913 34.4233 30.0097C34.9746 30.1281 35.5481 30.0872 36.077 29.8918C37.4509 29.5227 38.7897 29.0337 40.078 28.4305C41.3707 27.8601 42.5931 27.1421 43.7207 26.2908C44.2723 25.87 44.7917 25.4087 45.2745 24.9105C45.7556 24.3797 46.1392 23.7683 46.4078 23.1044C46.6819 22.5261 45.8891 22.1355 45.4941 22.5631Z" fill="url(#paint4_linear)"/>
<path d="M39.6756 30.2951C39.6645 30.2114 39.6211 30.1352 39.5546 30.0831C39.4881 30.0309 39.4038 30.0069 39.3198 30.0161C39.2357 30.0253 39.1586 30.067 39.105 30.1323C39.0514 30.1976 39.0254 30.2812 39.0327 30.3654C39.0263 31.2885 38.0388 31.963 37.2713 32.2705C36.3728 32.6297 35.4036 32.7775 34.4388 32.7024C33.276 32.4397 32.0718 32.4181 30.9004 32.6391C29.729 32.8602 28.6155 33.319 27.6286 33.9874C26.1949 35.5218 25.1606 37.3851 24.617 39.4131C23.7159 41.8949 22.9633 44.4281 22.3631 46.9993C21.7297 49.9258 21.3802 52.9066 21.3196 55.9002C21.3031 56.4381 22.1126 56.5925 22.1689 56.0294C22.4352 53.3715 22.9236 50.7595 23.4521 48.1437C23.9656 45.4995 24.6901 42.9007 25.6187 40.3722C26.1266 38.2832 27.3892 36.4556 29.1636 35.2407C31.2617 34.1661 33.8255 35.1076 36.0472 34.5897C37.1505 34.3681 38.1574 33.8086 38.928 32.9889C39.2487 32.6259 39.4827 32.1947 39.6122 31.7281C39.7417 31.2614 39.7634 30.7714 39.6756 30.2951Z" fill="url(#paint5_linear)"/>
<path d="M19.2096 68.1563C18.7067 69.5092 17.9392 70.7532 17.3678 72.0819C16.798 73.4063 16.2756 74.7629 15.7753 76.1153C14.7702 78.8344 13.8322 81.5711 12.9046 84.3162C12.0039 86.9829 11.2199 89.6884 10.2486 92.3308C9.82773 93.4758 9.41003 94.6583 8.89295 95.7643C8.71875 96.2868 8.43708 96.7671 8.06606 97.1743C7.69503 97.5816 7.24286 97.9067 6.73861 98.1288C4.54725 98.9062 1.87344 98.0704 0.113363 99.9394C-0.247336 100.323 0.333139 100.834 0.731666 100.568C2.56979 99.3392 4.98493 99.9591 7.02259 99.3453C8.11925 98.9361 9.11992 98.3057 9.96236 97.4934C10.8048 96.681 11.471 95.7041 11.9195 94.6234C13.029 92.0269 13.9959 89.3719 14.8157 86.67C15.758 83.8788 16.6517 81.066 17.4733 78.2372C17.9261 76.6763 18.354 75.1112 18.7682 73.5397C18.9837 72.7223 19.1678 71.9011 19.338 71.0733C19.5205 70.1885 19.5922 69.3013 19.8442 68.4306C19.9646 68.0158 19.3687 67.7282 19.2096 68.1563Z" fill="url(#paint6_linear)"/>
<path d="M101.104 102.606C100.178 102.051 99.4029 101.43 98.4386 100.968C97.5115 100.524 96.5978 100.08 95.7027 99.6218C93.989 98.7432 92.3256 97.8459 90.7403 96.9009C87.7575 95.1646 84.9917 93.0801 82.5012 90.6913C80.2648 88.4406 78.2301 85.9983 76.4205 83.3925C74.7474 81.0518 73.212 78.6158 71.8222 76.0968C71.0851 74.7607 70.3938 73.42 69.6732 72.114C68.9409 70.7853 68.1814 69.4764 67.5652 68.124C67.4304 67.8282 66.8992 67.9126 66.9858 68.2712C67.5331 70.9307 68.3575 73.5255 69.4457 76.0132C70.7125 78.674 72.182 81.2336 73.8412 83.6694C75.669 86.4126 77.7171 89.0026 79.9654 91.4137C82.463 93.9985 85.2651 96.271 88.3102 98.1813C90.1464 99.3588 92.0429 100.44 93.9919 101.419C94.9954 101.925 96.0213 102.413 97.0658 102.896C97.6133 103.176 98.1809 103.414 98.7638 103.609C99.3563 103.781 99.9552 103.864 100.559 104.038C101.675 104.361 102.173 103.248 101.104 102.606Z" fill="url(#paint7_linear)"/>
<path d="M64.2371 93.0318C63.2107 92.162 61.9419 91.628 60.6021 91.5018C59.2613 91.4045 57.9136 91.5264 56.6121 91.8629C53.8915 92.6126 51.2157 93.5159 48.5976 94.5686C43.1168 96.5321 37.4969 97.9659 31.9026 99.551C30.6139 99.9161 29.3276 100.293 28.0436 100.681C28.1002 100.537 28.1005 100.376 28.0445 100.231C27.9885 100.087 27.8801 99.9683 27.741 99.8995C27.4469 99.6726 27.1913 99.4 26.9839 99.092C26.6749 98.7446 26.3371 98.424 25.9742 98.1334C25.3126 97.5486 24.5086 97.1483 23.643 96.9728C23.1648 96.8951 22.6771 96.8957 22.1991 96.9746C22.1324 96.8363 22.037 96.7138 21.9192 96.6152C21.4809 96.2477 21.3408 95.4417 21.1439 94.9161C20.866 94.1787 20.6427 93.4218 20.4761 92.6515C20.1593 91.0083 20.0146 89.3365 20.0443 87.6633C20.0546 85.8793 20.1853 84.0981 20.4353 82.3316C20.5507 81.4652 20.6887 80.6009 20.8379 79.7403C20.9608 78.7923 21.1325 77.8512 21.3523 76.9209C21.4519 76.5673 20.8866 76.4858 20.788 76.8346C20.4934 77.8765 19.9958 78.8872 19.6295 79.9097C19.2954 80.8416 18.9779 81.7821 18.6934 82.7321C18.0762 84.6065 17.7022 86.5524 17.5806 88.522C17.4901 90.3778 17.6514 92.2372 18.0601 94.0497C18.2888 95.4527 18.874 96.7734 19.7598 97.8855C19.215 98.1813 18.687 98.5099 18.1726 98.8196C16.5599 99.7786 14.657 100.129 12.8084 99.8063C11.7732 99.6074 10.713 99.5731 9.6671 99.7049C8.78943 99.9007 7.96946 100.298 7.2722 100.866C5.88752 102.156 4.74135 103.681 3.88632 105.369C3.74806 105.582 4.04456 105.828 4.2044 105.618C5.28378 103.949 6.9255 102.721 8.83222 102.157C11.1618 101.807 13.4345 102.95 15.7886 102.493C17.0394 102.253 18.2256 101.752 19.2696 101.023C20.1156 100.335 21.036 99.7433 22.0135 99.2594C22.4319 99.0809 22.8914 99.0204 23.3419 99.0845C23.7923 99.1487 24.2166 99.3351 24.5685 99.6234C24.9728 99.9588 25.4019 100.263 25.8522 100.534C26.2491 100.721 26.6637 100.868 27.0899 100.972C25.6013 101.43 24.1191 101.907 22.6435 102.401C22.2202 102.543 22.4325 103.111 22.8196 103.11C28.5138 103.021 34.1682 102.145 39.6222 100.507C42.3362 99.7329 45.0236 98.8582 47.6849 97.9204C50.2689 97.0103 52.8026 95.9452 55.408 95.103C58.0503 94.1856 60.8814 93.9487 63.6396 94.4142C63.8081 94.4354 63.979 94.4013 64.1265 94.317C64.274 94.2328 64.3901 94.103 64.4575 93.9471C64.5248 93.7913 64.5398 93.6178 64.5 93.4527C64.4603 93.2877 64.368 93.1399 64.2371 93.0318Z" fill="url(#paint8_linear)"/>
<path d="M75.2252 94.2645C74.8853 94.6128 74.4966 94.9198 74.1743 95.283C73.8322 95.6686 73.5296 96.0893 73.186 96.4751C72.5605 97.178 71.956 97.9052 71.2754 98.5565C69.8017 99.9447 68.1731 101.159 66.4216 102.175C62.6978 104.256 58.668 105.735 54.4818 106.558C49.5064 107.575 44.4556 108.181 39.3807 108.369C36.84 108.495 34.2965 108.56 31.7532 108.605C29.1833 108.651 26.6043 108.719 24.0387 108.525C21.1904 108.312 18.3557 107.917 15.5042 107.751C14.1425 107.641 12.7736 107.658 11.4153 107.804C10.0271 108.01 8.65586 108.318 7.31252 108.724C6.87536 108.847 7.05864 109.603 7.50699 109.506C8.78374 109.262 10.0891 109.204 11.3825 109.333C12.6564 109.431 13.9359 109.559 15.2005 109.744C17.7422 110.115 20.2457 110.733 22.7927 111.069C28.0833 111.597 33.409 111.679 38.7133 111.314C43.8741 111.176 49.0145 110.61 54.0812 109.62C58.6087 108.781 62.9846 107.268 67.0621 105.13C69.1703 104.006 71.1182 102.604 72.8535 100.963C73.756 100.142 74.5577 99.2168 75.2417 98.2069C75.5666 97.7107 75.8635 97.1968 76.1312 96.6676C76.3663 96.0886 76.5265 95.4821 76.6081 94.8626C76.766 94.0246 75.7244 93.7531 75.2252 94.2645Z" fill="url(#paint9_linear)"/>
<path d="M76.0201 89.5371C75.7747 89.0747 75.4485 88.6599 75.057 88.3123C74.697 88.0075 74.3135 87.7315 73.9102 87.4868C73.1184 86.9906 72.2975 86.5423 71.4519 86.1443C69.711 85.3288 67.8824 84.7153 66.0017 84.3159L64.8605 84.1085C64.1511 83.5493 63.4609 82.9635 62.7605 82.3932C61.2937 81.2011 59.8416 79.9734 58.4396 78.7057C57.1151 77.5075 55.8358 76.2504 54.5971 74.9649L53.7856 74.103L53.7417 73.9326C53.7032 73.8067 53.6317 73.6933 53.5346 73.6044C53.4375 73.5154 53.3183 73.4541 53.1894 73.4267C52.425 72.5599 51.8045 71.5762 51.3513 70.5132C51.2877 70.371 51.1716 70.2588 51.0272 70.2001C50.8828 70.1413 50.7213 70.1407 50.5764 70.1982C50.4315 70.2556 50.3145 70.3669 50.2497 70.5086C50.1849 70.6503 50.1774 70.8116 50.2287 70.9587C50.692 72.31 51.2313 73.634 51.8442 74.9244C51.5818 76.1477 51.569 77.4462 51.3524 78.6745C51.0553 80.2764 50.6507 81.8564 50.1414 83.4039C49.6533 84.9424 49.0575 86.4446 48.3581 87.8993C48.0094 88.6219 47.6431 89.3371 47.2733 90.048C46.8807 90.8045 46.5458 91.6297 46.0823 92.3395C46.0051 92.4387 45.9704 92.5645 45.9858 92.6893C46.0011 92.814 46.0654 92.9276 46.1644 93.0051C46.2634 93.0826 46.3891 93.1178 46.514 93.1028C46.6389 93.0878 46.7527 93.024 46.8306 92.9253C47.4047 92.2519 48.0427 91.6624 48.5816 90.9512C49.0857 90.274 49.5474 89.5663 49.9639 88.832C51.7138 85.8691 52.9141 82.6148 53.507 79.2257L53.7467 77.9266C54.5992 78.9561 55.5241 79.9235 56.5146 80.8212C57.5914 81.8234 58.699 82.8022 59.8445 83.7272C58.808 83.7064 57.7757 83.721 56.7397 83.7647C55.6299 83.8113 54.47 84.0403 53.3655 83.9871C52.8466 83.962 52.7206 84.7656 53.2433 84.7909C54.2414 84.9035 55.2321 85.0739 56.2104 85.3013C57.2019 85.467 58.1918 85.6448 59.1817 85.8203C61.1821 86.1747 63.1633 86.6441 65.1224 87.1782C66.7632 87.6124 68.3638 88.1865 69.9066 88.8941C70.6419 89.2345 71.3555 89.6201 72.043 90.0488L73.1475 90.7518C73.5913 91.0216 74.0661 91.2368 74.5616 91.3927C74.8083 91.4899 75.0797 91.5049 75.3357 91.4355C75.5916 91.3662 75.8183 91.2162 75.9821 91.0077C76.146 90.7993 76.2381 90.5436 76.245 90.2787C76.2518 90.0137 76.1729 89.7537 76.0201 89.5371Z" fill="url(#paint10_linear)"/>
<path d="M102.749 105.256C102.36 105.479 102.001 105.768 101.592 105.956C101.109 106.154 100.591 106.253 100.068 106.247C99.1174 106.277 98.177 106.391 97.222 106.343C95.044 106.113 92.8907 105.69 90.7872 105.08C89.6522 104.793 88.5017 104.572 87.3414 104.417C86.1974 104.31 85.0439 104.377 83.92 104.615C82.5923 104.867 79.8144 105.515 79.0551 103.859C78.8257 102.971 78.7213 102.054 78.7451 101.137C78.6701 100.157 78.3662 99.2087 77.8577 98.3678C77.7938 98.2772 77.6973 98.2148 77.5884 98.1937C77.4795 98.1725 77.3667 98.1943 77.2735 98.2543C77.1803 98.3143 77.1139 98.4081 77.0882 98.5159C77.0624 98.6237 77.0794 98.7373 77.1355 98.8329C77.6166 99.7649 77.066 100.758 76.864 101.682C76.5932 102.674 76.6201 103.724 76.9413 104.701C77.4357 105.686 78.2741 106.456 79.298 106.866C80.3219 107.276 81.4605 107.296 82.4986 106.924C83.6759 106.573 84.8789 106.315 86.0965 106.152C87.3558 106.06 88.6217 106.133 89.862 106.369C92.1674 106.976 94.5079 107.442 96.8703 107.762C98.0386 107.931 99.2302 107.822 100.349 107.445C101.402 107.085 102.389 106.553 103.269 105.871C103.618 105.543 103.133 105.037 102.749 105.256Z" fill="url(#paint11_linear)"/>
<path d="M60.0575 37.5328C58.6847 37.8041 57.3719 38.3201 56.1819 39.0561C54.9466 39.666 53.737 40.3255 52.5534 41.0344C50.1667 42.4595 47.9714 44.1497 45.6577 45.6805C43.7645 47.1209 41.4205 47.8413 39.0447 47.7132C36.7836 47.4303 34.6898 46.375 33.118 44.7259C31.2113 42.6645 30.103 39.9908 29.9923 37.1856C29.9775 37.0787 29.925 36.9806 29.8443 36.9089C29.7636 36.8372 29.66 36.7966 29.5521 36.7943C29.4441 36.792 29.3389 36.8282 29.2553 36.8965C29.1716 36.9647 29.115 37.0605 29.0957 37.1667C28.7187 39.8462 29.1766 42.5768 30.4071 44.9871C31.026 46.2344 31.8951 47.3409 32.9604 48.2378C34.0257 49.1347 35.2644 49.8027 36.5992 50.2003C37.9532 50.6386 39.3863 50.7777 40.7993 50.6081C42.2124 50.4385 43.5718 49.9641 44.7834 49.2178C46.0043 48.4121 47.1381 47.4819 48.1666 46.442C49.2473 45.4206 50.3921 44.469 51.5938 43.593C52.9667 42.5993 54.3901 41.6773 55.8583 40.8307C56.6059 40.3997 57.3659 39.9908 58.1381 39.6041C58.9364 39.2831 59.6917 38.8641 60.3864 38.3566C60.4639 38.2944 60.5193 38.209 60.5446 38.113C60.5699 38.0169 60.5636 37.9153 60.5268 37.8231C60.4899 37.7308 60.4245 37.6529 60.34 37.6006C60.2555 37.5483 60.1565 37.5246 60.0575 37.5328Z" fill="url(#paint12_linear)"/>
<path d="M34.452 23.7737C34.1119 23.8936 33.7538 23.9548 33.3931 23.9547L32.8952 23.8866C32.701 23.8658 32.5257 23.9132 32.3344 23.898C32.279 23.8915 32.223 23.9011 32.1729 23.9257C32.1229 23.9503 32.081 23.9888 32.0524 24.0367C32.0238 24.0845 32.0096 24.1396 32.0117 24.1954C32.0137 24.2511 32.0318 24.305 32.0638 24.3507C32.1968 24.576 32.3884 24.7612 32.6182 24.8865C32.848 25.0118 33.1075 25.0726 33.3691 25.0624C33.9242 25.1051 34.4738 24.9268 34.898 24.5663C34.982 24.4975 35.039 24.4013 35.0591 24.2946C35.0792 24.1879 35.061 24.0776 35.0077 23.983C34.9545 23.8883 34.8696 23.8155 34.768 23.7772C34.6664 23.7389 34.5545 23.7377 34.452 23.7737Z" fill="url(#paint13_linear)"/>
<path d="M32.2105 21.705C31.852 21.3686 31.4175 21.1236 30.9441 20.9908C31.4716 20.1042 31.6839 19.0654 31.5466 18.043C31.5059 17.8399 31.2035 17.7515 31.1172 17.9786C30.8264 19.0064 30.4329 20.0023 29.9427 20.9514C29.9017 21.0063 29.8736 21.0697 29.8603 21.1369C29.847 21.2041 29.8489 21.2734 29.8659 21.3398C29.8828 21.4061 29.9144 21.4678 29.9583 21.5204C30.0022 21.573 30.0573 21.6152 30.1196 21.6437C30.6791 21.989 31.308 22.2065 31.9614 22.2806C32.0245 22.2731 32.0844 22.2491 32.1353 22.2112C32.1862 22.1732 32.2263 22.1226 32.2515 22.0643C32.2767 22.0061 32.2862 21.9422 32.279 21.8792C32.2718 21.8161 32.2482 21.7561 32.2105 21.705Z" fill="url(#paint14_linear)"/>
<path d="M38.4952 15.9507C37.7143 16.1747 36.9121 16.3167 36.1017 16.3744C35.2156 16.3502 34.3471 16.1211 33.5645 15.705C33.486 15.6738 33.3989 15.6717 33.3189 15.6989C33.2389 15.7262 33.1713 15.7811 33.1281 15.8537C33.085 15.9263 33.0692 16.0119 33.0835 16.0952C33.0979 16.1784 33.1415 16.2538 33.2065 16.3078C33.9963 16.9002 34.9464 17.2409 35.9329 17.2853C36.9194 17.3298 37.8964 17.076 38.7363 16.557C38.9742 16.3613 38.8437 15.8812 38.4952 15.9507Z" fill="url(#paint15_linear)"/>
<path d="M30.8019 15.8031C30.3742 15.8599 29.942 15.8749 29.5115 15.8481C29.083 15.7746 28.6676 15.639 28.2783 15.4455C27.9384 15.2858 27.6755 15.7651 27.9512 15.9967C28.3635 16.3503 28.8614 16.5894 29.3953 16.6901C29.9291 16.7908 30.48 16.7496 30.9929 16.5705C31.0798 16.5326 31.1504 16.4652 31.1924 16.3802C31.2343 16.2952 31.2447 16.1981 31.2218 16.1061C31.1989 16.0142 31.1442 15.9333 31.0673 15.8778C30.9904 15.8224 30.8964 15.7959 30.8019 15.8031Z" fill="url(#paint16_linear)"/>
<path d="M51.0846 16.7896L51.0313 16.5899C50.5984 15.9595 50.039 15.4261 49.3886 15.0235C48.7382 14.621 48.0111 14.3582 47.2536 14.2518C46.464 14.0409 45.6552 13.9222 44.8629 13.7153C44.0097 13.5752 43.1696 13.3642 42.3514 13.0845C41.6301 12.7067 40.9614 12.2362 40.3622 11.685C39.6841 11.1346 38.9629 10.6395 38.2055 10.2046C36.701 9.37131 35.0288 8.88572 33.3118 8.78352C33.0254 8.76168 32.8557 9.19277 33.1639 9.29927C34.7169 9.85017 36.163 10.665 37.4385 11.7079C38.5703 12.9221 39.8206 14.0203 41.1707 14.9862C41.9168 15.3537 42.7146 15.6054 43.5366 15.7328C44.3595 15.8174 45.1874 15.8437 46.014 15.8113C46.734 15.8212 47.4508 15.9089 48.1519 16.0728C47.865 16.181 47.589 16.316 47.3276 16.4762C47.0879 16.6221 47.3207 16.9448 47.5533 16.8772C48.256 16.6724 49.0494 16.5124 49.5707 17.1395C49.7434 17.3847 49.845 17.6729 49.8642 17.9722C49.8834 18.2715 49.8194 18.5703 49.6794 18.8356C49.4849 19.33 49.153 19.7585 48.7228 20.0705C48.5082 20.2191 48.277 20.3421 48.0339 20.4369C47.7432 20.5623 47.5368 20.7649 47.2693 20.9095C46.9547 21.0794 46.8407 21.6114 47.2568 21.7586C47.611 21.9388 48.0138 22.0005 48.4057 21.9344C48.9217 21.7991 49.4015 21.5519 49.811 21.2101C50.6238 20.5813 51.1748 19.6738 51.3577 18.6628C51.4621 18.0252 51.3667 17.3709 51.0846 16.7896Z" fill="url(#paint17_linear)"/>
<path d="M45.2231 38.2976C44.841 38.3972 44.441 38.4077 44.0542 38.3282C43.6117 38.2204 43.1867 38.0507 42.7917 37.8242C41.8317 37.4277 40.8216 37.1651 39.79 37.0437C37.3988 36.6268 34.9357 36.5141 32.5195 36.2947C32.1948 36.2652 32.1149 36.7575 32.4428 36.7985L36.7493 37.331C38.1562 37.3269 39.5474 37.6266 40.8276 38.2097C41.8114 38.8426 42.5024 39.8339 43.7023 40.0933C43.9397 40.1704 44.191 40.1956 44.4391 40.1671C44.6871 40.1386 44.9261 40.0571 45.1399 39.9281C45.3536 39.7991 45.5371 39.6256 45.6779 39.4195C45.8186 39.2134 45.9134 38.9794 45.9557 38.7335C46.0527 38.3042 45.5324 38.1067 45.2231 38.2976Z" fill="url(#paint18_linear)"/>
<path d="M56.8938 36.2881C55.5661 36.3887 54.2485 36.5945 52.9535 36.9037C51.7052 37.1632 50.4716 37.4891 49.2581 37.8801C48.9038 37.9927 49.1214 38.5056 49.4685 38.4102C50.7227 38.0662 51.9942 37.7803 53.2737 37.5478C54.4991 37.3255 55.748 37.2581 56.9806 37.0816C57.0828 37.0664 57.1751 37.0123 57.2383 36.9305C57.3014 36.8487 57.3304 36.7457 57.3191 36.6431C57.3079 36.5404 57.2573 36.4461 57.178 36.3799C57.0987 36.3137 56.9968 36.2808 56.8938 36.2881Z" fill="url(#paint19_linear)"/>
<path d="M47.2876 26.3159C47.3025 25.965 46.7716 25.8715 46.7386 26.2312C46.6113 27.1916 46.4245 28.1431 46.1791 29.0803C45.9724 30.029 45.7699 30.9774 45.5558 31.9242C45.323 33.5761 44.8445 35.1839 44.1361 36.6944C43.8681 37.1585 44.4721 37.7302 44.9329 37.5148C46.6693 36.7037 46.7521 34.4484 47.0108 32.7845C47.1606 31.7398 47.2556 30.688 47.2953 29.6333C47.3513 28.5272 47.2372 27.422 47.2876 26.3159Z" fill="url(#paint20_linear)"/>
<defs>
<linearGradient id="paint0_linear" x1="49.3685" y1="5.16038" x2="31.3372" y2="17.4768" gradientUnits="userSpaceOnUse">
<stop stop-color="#2DB7E6"/>
<stop offset="0.69382" stop-color="#38EBCB"/>
</linearGradient>
<linearGradient id="paint1_linear" x1="65.8177" y1="30.2921" x2="45.6215" y2="37.8057" gradientUnits="userSpaceOnUse">
<stop stop-color="#2DB7E6"/>
<stop offset="0.69382" stop-color="#38EBCB"/>
</linearGradient>
<linearGradient id="paint2_linear" x1="53.9749" y1="65.5634" x2="35.0074" y2="86.6893" gradientUnits="userSpaceOnUse">
<stop stop-color="#2DB7E6"/>
<stop offset="0.69382" stop-color="#38EBCB"/>
</linearGradient>
<linearGradient id="paint3_linear" x1="54.2622" y1="48.1109" x2="40.9735" y2="68.2629" gradientUnits="userSpaceOnUse">
<stop stop-color="#2DB7E6"/>
<stop offset="0.69382" stop-color="#38EBCB"/>
</linearGradient>
<linearGradient id="paint4_linear" x1="42.4814" y1="23.767" x2="36.6327" y2="30.1079" gradientUnits="userSpaceOnUse">
<stop stop-color="#2DB7E6"/>
<stop offset="0.69382" stop-color="#38EBCB"/>
</linearGradient>
<linearGradient id="paint5_linear" x1="34.314" y1="34.7608" x2="19.7167" y2="41.0379" gradientUnits="userSpaceOnUse">
<stop stop-color="#2DB7E6"/>
<stop offset="0.69382" stop-color="#38EBCB"/>
</linearGradient>
<linearGradient id="paint6_linear" x1="14.0189" y1="73.8301" x2="-2.34963" y2="79.9542" gradientUnits="userSpaceOnUse">
<stop stop-color="#2DB7E6"/>
<stop offset="0.69382" stop-color="#38EBCB"/>
</linearGradient>
<linearGradient id="paint7_linear" x1="91.4844" y1="74.4518" x2="67.3199" y2="88.7472" gradientUnits="userSpaceOnUse">
<stop stop-color="#2DB7E6"/>
<stop offset="0.69382" stop-color="#38EBCB"/>
</linearGradient>
<linearGradient id="paint8_linear" x1="46.6773" y1="81.8463" x2="25.1723" y2="109.476" gradientUnits="userSpaceOnUse">
<stop stop-color="#2DB7E6"/>
<stop offset="0.69382" stop-color="#38EBCB"/>
</linearGradient>
<linearGradient id="paint9_linear" x1="56.165" y1="97.1616" x2="46.7926" y2="120.068" gradientUnits="userSpaceOnUse">
<stop stop-color="#2DB7E6"/>
<stop offset="0.69382" stop-color="#38EBCB"/>
</linearGradient>
<linearGradient id="paint10_linear" x1="67.3444" y1="74.2866" x2="50.2126" y2="88.2017" gradientUnits="userSpaceOnUse">
<stop stop-color="#2DB7E6"/>
<stop offset="0.69382" stop-color="#38EBCB"/>
</linearGradient>
<linearGradient id="paint11_linear" x1="95.5333" y1="99.9234" x2="89.1064" y2="110.877" gradientUnits="userSpaceOnUse">
<stop stop-color="#2DB7E6"/>
<stop offset="0.69382" stop-color="#38EBCB"/>
</linearGradient>
<linearGradient id="paint12_linear" x1="51.2679" y1="39.2933" x2="41.2552" y2="53.3274" gradientUnits="userSpaceOnUse">
<stop stop-color="#2DB7E6"/>
<stop offset="0.69382" stop-color="#38EBCB"/>
</linearGradient>
<linearGradient id="paint13_linear" x1="34.1683" y1="23.9853" x2="33.2208" y2="25.3353" gradientUnits="userSpaceOnUse">
<stop stop-color="#2DB7E6"/>
<stop offset="0.69382" stop-color="#38EBCB"/>
</linearGradient>
<linearGradient id="paint14_linear" x1="31.5667" y1="18.643" x2="29.5171" y2="19.3345" gradientUnits="userSpaceOnUse">
<stop stop-color="#2DB7E6"/>
<stop offset="0.69382" stop-color="#38EBCB"/>
</linearGradient>
<linearGradient id="paint15_linear" x1="37.1575" y1="15.9698" x2="36.235" y2="18.0088" gradientUnits="userSpaceOnUse">
<stop stop-color="#2DB7E6"/>
<stop offset="0.69382" stop-color="#38EBCB"/>
</linearGradient>
<linearGradient id="paint16_linear" x1="30.2343" y1="15.653" x2="29.3157" y2="17.0983" gradientUnits="userSpaceOnUse">
<stop stop-color="#2DB7E6"/>
<stop offset="0.69382" stop-color="#38EBCB"/>
</linearGradient>
<linearGradient id="paint17_linear" x1="45.9873" y1="11.1547" x2="36.0505" y2="19.7009" gradientUnits="userSpaceOnUse">
<stop stop-color="#2DB7E6"/>
<stop offset="0.69382" stop-color="#38EBCB"/>
</linearGradient>
<linearGradient id="paint18_linear" x1="41.928" y1="36.9928" x2="39.6806" y2="41.8867" gradientUnits="userSpaceOnUse">
<stop stop-color="#2DB7E6"/>
<stop offset="0.69382" stop-color="#38EBCB"/>
</linearGradient>
<linearGradient id="paint19_linear" x1="54.8967" y1="36.6714" x2="53.7333" y2="39.4387" gradientUnits="userSpaceOnUse">
<stop stop-color="#2DB7E6"/>
<stop offset="0.69382" stop-color="#38EBCB"/>
</linearGradient>
<linearGradient id="paint20_linear" x1="46.3579" y1="28.0835" x2="43.4009" y2="28.5942" gradientUnits="userSpaceOnUse">
<stop stop-color="#2DB7E6"/>
<stop offset="0.69382" stop-color="#38EBCB"/>
</linearGradient>
</defs>
</svg>
