<svg width="106" height="112" viewBox="0 0 106 112" fill="none" xmlns="http://www.w3.org/2000/svg">
<path d="M47.8263 109.553C47.0021 109.536 46.1938 109.314 45.4691 108.907C44.7029 108.4 44.0701 107.704 43.6275 106.881C42.6455 104.981 41.8234 102.997 41.1703 100.95C40.9989 100.5 40.4006 100.776 40.5143 101.22C40.8452 102.502 41.1667 103.787 41.5033 105.067C41.7626 106.226 42.1862 107.338 42.7604 108.367C43.7986 110.078 46.1212 111.72 48.0556 110.498C48.1341 110.435 48.1931 110.349 48.2254 110.251C48.2578 110.153 48.262 110.048 48.2377 109.948C48.2134 109.848 48.1616 109.757 48.0885 109.687C48.0155 109.617 47.9244 109.57 47.8263 109.553Z" fill="url(#paint0_linear)"/>
<path d="M53.4612 105.9C52.8419 105.402 52.0591 105.157 51.4198 104.671C50.8317 104.214 50.306 103.676 49.8569 103.072C49.4301 102.451 49.0479 101.799 48.7131 101.12C48.5268 100.789 48.2972 100.486 48.031 100.221C47.7545 99.9613 47.4313 99.7611 47.0799 99.6318C47.0085 99.6025 46.9294 99.6007 46.8567 99.6265C46.7841 99.6523 46.7227 99.7041 46.6835 99.7727C46.6443 99.8413 46.6299 99.922 46.6428 100.001C46.6557 100.079 46.6952 100.15 46.7541 100.202C47.0231 100.521 47.1919 100.918 47.238 101.34L47.5145 102.485C47.744 103.341 48.127 104.144 48.6434 104.852C49.1395 105.606 49.781 106.244 50.5274 106.727C51.2738 107.21 52.1087 107.527 52.9791 107.657C53.8401 107.666 54.0648 106.386 53.4612 105.9Z" fill="url(#paint1_linear)"/>
<path d="M56.5292 109.125C54.884 109.494 53.1757 109.426 51.5626 108.928C50.888 108.613 50.2687 108.184 49.73 107.658C49.1146 107.094 48.5416 106.483 48.016 105.829C47.8346 105.592 47.3943 105.813 47.5462 106.104C47.9942 106.961 48.3292 107.847 48.8595 108.662C49.3575 109.493 50.0016 110.219 50.758 110.802C51.6332 111.415 52.6536 111.768 53.7084 111.822C54.9453 112.077 56.2296 111.847 57.3122 111.175C57.4975 111.021 57.6303 110.809 57.691 110.57C57.7517 110.332 57.7373 110.079 57.6497 109.85C57.5621 109.621 57.406 109.426 57.2043 109.296C57.0026 109.166 56.766 109.106 56.5292 109.125Z" fill="url(#paint2_linear)"/>
<path d="M58.1198 99.5044C57.4717 99.9307 56.8668 100.426 56.2128 100.845C55.575 101.249 54.8989 101.584 54.1953 101.844C53.4772 102.074 52.7427 102.244 51.9987 102.354C51.7365 102.407 51.5687 102.787 51.8291 102.972C52.4875 103.335 53.2175 103.535 53.9625 103.558C54.7075 103.581 55.4475 103.425 56.1253 103.103C56.8331 102.817 57.5105 102.455 58.1467 102.024C58.765 101.621 59.7728 101.108 59.79 100.243C59.8087 99.3046 58.773 99.0753 58.1198 99.5044Z" fill="url(#paint3_linear)"/>
<path d="M50.583 30.0757C49.9255 31.6663 48.953 33.0955 47.7286 34.2702C46.5042 35.4449 45.0555 36.3388 43.4765 36.8939C41.8361 37.5599 40.1603 38.078 38.525 38.7664C37.803 39.0817 37.1004 39.4431 36.4213 39.8485C35.7218 40.2224 35.1175 40.7631 34.658 41.4262C34.3614 41.8833 34.9253 42.4078 35.2773 42.0365C35.8462 41.3932 36.5623 40.9095 37.3592 40.6301C38.1605 40.3638 39.0035 40.2838 39.8188 40.0974C41.6396 39.6977 43.4038 39.0584 45.0687 38.195C46.6172 37.4154 47.9898 36.3051 49.0965 34.9367C50.1602 33.5628 50.8632 31.9264 51.1372 30.1867C51.2013 29.7994 50.6972 29.7344 50.583 30.0757Z" fill="url(#paint4_linear)"/>
<path d="M39.9969 94.5239C39.726 93.6588 39.4609 92.7919 39.2016 91.9231C38.7257 90.3212 38.2493 88.718 37.8216 87.1012C36.8668 83.8356 36.3369 80.4521 36.2461 77.0406C36.2369 73.6539 36.9131 70.3135 37.1576 66.9475C37.4444 63.5786 37.2145 60.1837 36.4765 56.8896C36.0717 55.1668 35.5786 53.4557 35.2376 51.718C34.8168 49.9456 34.8433 48.0904 35.3146 46.3317C35.3388 46.2653 35.3374 46.1917 35.3107 46.1264C35.2841 46.061 35.2342 46.0088 35.1714 45.9806C35.1086 45.9525 35.0379 45.9505 34.9737 45.9752C34.9096 45.9998 34.8571 46.0491 34.8271 46.1129C33.7466 49.0667 33.6453 52.3102 34.5393 55.3304C34.93 56.9353 35.2341 58.5616 35.4503 60.2018C35.5998 61.933 35.6025 63.6745 35.4582 65.4062C35.096 68.9028 34.9152 72.4172 34.9167 75.934C35.058 79.3971 35.5061 82.8393 36.2553 86.217C36.6813 88.1109 37.2071 89.979 37.8303 91.813C38.1421 92.7355 38.4631 93.6547 38.7932 94.5705C39.0603 95.4745 39.4307 96.342 39.8963 97.1546C39.9485 97.2212 40.0197 97.2687 40.0996 97.2902C40.1795 97.3117 40.264 97.3062 40.3407 97.2744C40.4174 97.2425 40.4823 97.1861 40.5259 97.1133C40.5695 97.0404 40.5896 96.9551 40.5831 96.8696C40.4748 96.067 40.2781 95.2799 39.9969 94.5239Z" fill="url(#paint5_linear)"/>
<path d="M50.1855 64.5708C49.4844 65.4031 48.6118 66.0608 47.6325 66.495C46.6765 66.9551 45.6463 67.2261 44.5947 67.2942L44.3894 67.3475C44.2117 65.9741 44.014 64.6028 43.7963 63.2335C43.2691 59.9267 42.5936 56.6454 42.0192 53.3471C41.9319 52.8466 41.1892 52.9209 41.2554 53.434C41.6448 56.4614 41.936 59.4951 42.2688 62.5294C42.5936 65.4899 42.9194 68.4534 43.1693 71.4218C43.4258 74.4548 43.6475 77.5024 43.6785 80.5482C43.707 83.3656 43.5261 86.1692 43.4651 88.9853C43.2016 91.9353 43.8688 94.8942 45.3661 97.4161C45.4494 97.5236 45.5668 97.597 45.6973 97.6231C45.8278 97.6492 45.963 97.6264 46.0789 97.5588C46.1947 97.4911 46.2836 97.3829 46.3299 97.2535C46.3761 97.1241 46.3766 96.9818 46.3313 96.8521C45.8903 95.6632 45.6036 94.4187 45.4785 93.1513C45.3942 91.9049 45.3759 90.6547 45.4236 89.4062C45.4706 86.5978 45.586 83.8068 45.4931 80.9962C45.3623 77.0374 45.069 73.0956 44.6132 69.171C45.9421 69.2205 47.2565 68.8706 48.3986 68.1632C48.9665 67.8344 49.4752 67.406 49.9023 66.8968C50.3027 66.365 50.6561 65.7968 50.9582 65.199C51.2812 64.6545 50.5549 64.0244 50.1855 64.5708Z" fill="url(#paint6_linear)"/>
<path d="M75.5551 40.8181C73.967 39.8782 72.177 39.1787 70.4959 38.3912C67.3911 37.3522 64.6002 35.4921 62.3975 32.9937C61.8488 32.3094 61.4536 31.5069 61.2407 30.6444C61.0278 29.7818 61.0024 28.8809 61.1666 28.0069C61.2918 27.554 60.5963 27.3796 60.4318 27.8204C59.8807 29.2328 59.8463 30.8058 60.3351 32.2427C60.9385 33.7811 61.9271 35.1239 63.1985 36.1321C66.1409 38.2289 69.3203 39.9423 72.6653 41.2337C74.2513 41.9767 76.4838 42.8771 76.7026 44.7768C76.7509 45.1961 77.4071 45.1319 77.5282 44.7811C77.7199 43.9843 77.6252 43.1424 77.262 42.4129C76.8988 41.6834 76.2919 41.1164 75.5551 40.8181Z" fill="url(#paint7_linear)"/>
<path d="M76.2867 49.9367C75.596 51.8103 74.8343 53.6511 74.193 55.5441C73.5516 57.4372 72.9559 59.3406 72.4158 61.264C71.8848 63.1676 71.4533 65.0996 71.1233 67.0515C70.8392 69.0659 70.6849 71.0977 70.6615 73.1334C70.5597 77.1734 70.0833 81.1937 69.2389 85.1388C68.1719 88.9635 66.6484 92.6348 64.7041 96.067C62.6024 100.218 60.3799 104.351 58.6597 108.692C58.3944 109.361 59.3473 110.024 59.7511 109.364C61.9118 105.84 63.7076 102.073 65.541 98.3588C67.4739 94.8522 69.087 91.1658 70.3593 87.3475C71.2943 83.3977 71.8144 79.3543 71.9104 75.2881C72.2721 71.2561 72.8926 67.2537 73.7678 63.3076C74.2099 61.1023 74.6876 58.912 75.2302 56.7307C75.7795 54.5244 76.2721 52.3029 76.8401 50.1019C76.9263 49.7702 76.4034 49.6199 76.2867 49.9367Z" fill="url(#paint8_linear)"/>
<path d="M60.8481 22.8397C60.5269 23.7691 60.112 24.6606 59.6102 25.4994C59.042 26.3315 58.3206 27.0384 57.4877 27.5792C55.5966 28.7002 53.3789 29.0731 51.2438 28.6291C51.1893 28.6218 51.1341 28.6349 51.0882 28.6663C51.0423 28.6976 51.0088 28.745 50.9937 28.7998C50.9786 28.8546 50.983 28.9133 51.006 28.9651C51.029 29.0168 51.0691 29.0583 51.1191 29.082C52.1823 29.6513 53.3738 29.9124 54.5679 29.8378C55.8108 29.7337 57.0145 29.3365 58.0873 28.6765C59.0433 28.0797 59.8737 27.289 60.5289 26.3516C61.2444 25.4268 61.7063 24.3186 61.8661 23.1439C61.8819 23.0123 61.8519 22.8791 61.7815 22.7684C61.7112 22.6577 61.6051 22.5767 61.4823 22.54C61.3595 22.5033 61.2282 22.5134 61.1119 22.5683C60.9956 22.6233 60.9021 22.7195 60.8481 22.8397Z" fill="url(#paint9_linear)"/>
<path d="M66.4061 17.8522C66.0211 16.5875 65.4679 15.3848 64.7626 14.279C64.8886 12.9057 64.8559 11.5217 64.6651 10.1565C64.4752 8.42342 63.9054 6.75861 62.9993 5.28988C62.2304 4.16501 61.252 3.21179 60.1219 2.48669C58.9918 1.76158 57.7331 1.27934 56.4203 1.06851C53.6642 0.548063 50.8202 1.11068 48.4415 2.64693C47.0956 3.5147 45.9671 4.70158 45.1486 6.11012C44.321 7.66258 43.8376 9.38727 43.7335 11.1584C43.5835 13.2876 43.6538 15.4274 43.9431 17.5411C44.0684 18.6043 44.246 19.6602 44.4752 20.7046C44.7294 21.7871 45.0533 22.8507 45.4444 23.8883C45.4731 23.9583 45.5248 24.0153 45.5903 24.0493C45.6558 24.0832 45.7308 24.0918 45.8019 24.0735C45.873 24.0552 45.9354 24.0111 45.978 23.9493C46.0207 23.8875 46.0407 23.812 46.0345 23.7362C45.9293 22.8677 45.8682 22.0022 45.7661 21.1327C45.6594 20.2251 45.5632 19.3134 45.4911 18.4021C45.4277 17.6026 45.3811 16.7989 45.3546 15.9936C45.6306 14.9911 46.0868 14.0519 46.6992 13.2257C47.8117 11.9409 49.147 10.8849 50.6355 10.1128C51.9595 9.36492 53.0869 8.29177 53.9194 6.98711C54.2035 7.51917 54.5416 8.01814 54.9279 8.47549C56.6517 10.0751 58.4731 11.5577 60.3807 12.914C61.7129 14.1416 62.7905 15.638 63.5478 17.312C64.3608 19.0082 64.9216 20.8225 65.2111 22.6932C65.4034 24.8698 65.2154 27.0645 64.6561 29.1716C64.6445 29.2663 64.6628 29.3623 64.7084 29.4453C64.7539 29.5282 64.8242 29.5935 64.9086 29.6313C64.993 29.6692 65.087 29.6775 65.1764 29.655C65.2657 29.6325 65.3456 29.5804 65.404 29.5067C66.3818 27.8063 66.9276 25.8759 66.9903 23.8966C67.1478 21.8617 66.9499 19.814 66.4061 17.8522ZM52.2898 4.25944C52.1767 4.91218 51.9248 5.5305 51.5524 6.06937C50.5641 7.37806 49.4039 8.53645 48.1059 9.51072C47.0649 10.3041 46.1526 11.265 45.4034 12.3572C45.4666 11.0189 45.7531 9.70219 46.25 8.46563C46.8136 7.19076 47.6631 6.07458 48.7273 5.21049C49.791 4.35364 51.0183 3.74199 52.3275 3.41629C52.3396 3.69795 52.327 3.98017 52.2898 4.25944ZM58.3418 8.42407C56.8584 7.58775 55.6074 6.3688 54.7093 4.88469C54.7603 4.57466 54.7874 4.26092 54.7904 3.94643C54.797 3.66763 54.7798 3.38878 54.7391 3.11313C55.8979 3.08158 57.0496 3.30995 58.1156 3.78265C59.1817 4.25536 60.137 4.96128 60.9164 5.85225C61.8798 7.07093 62.5385 8.51776 62.8341 10.0643C62.9725 10.7483 63.0743 11.4398 63.1389 12.1356C61.6968 10.6935 60.085 9.44645 58.3418 8.42407Z" fill="url(#paint10_linear)"/>
<path d="M68.4458 55.4318C67.4452 58.1757 66.3421 60.8751 65.3969 63.6398C64.4518 66.4045 63.5754 69.195 62.7991 72.0178C61.9821 74.8211 61.3085 77.6673 60.781 80.5445C60.2679 83.4523 59.9583 86.395 59.8546 89.3493C59.9855 92.2463 59.6334 95.1451 58.814 97.9177C58.7827 98.0005 58.7808 98.0922 58.8086 98.1763C58.8364 98.2605 58.8921 98.3316 58.9657 98.377C59.0394 98.4224 59.1262 98.4392 59.2106 98.4242C59.2951 98.4093 59.3717 98.3637 59.4267 98.2955C60.944 96.2429 61.7068 93.6959 61.5781 91.1118C61.698 88.2226 61.9603 85.3417 62.3642 82.4804C63.2765 76.6984 64.5841 70.9912 66.2769 65.402C67.2262 62.1823 68.1405 58.9482 69.1626 55.753C69.3189 55.2647 68.6259 54.9384 68.4458 55.4318Z" fill="url(#paint11_linear)"/>
<path d="M62.3054 66.8159C61.7958 66.5039 61.2548 66.251 60.6919 66.0619C60.1294 65.8277 59.592 65.5331 59.0885 65.1828C58.0343 64.4587 57.073 63.5985 56.2276 62.6227C55.8685 62.1983 55.1891 62.7144 55.545 63.1582C56.3803 64.3465 57.297 65.4708 58.288 66.5223C58.7583 67.086 59.3563 67.5194 60.0281 67.7834C60.6999 68.0473 61.4244 68.1336 62.1363 68.0344C62.2473 67.9873 62.3444 67.911 62.4182 67.813C62.492 67.7149 62.5398 67.5985 62.5569 67.4754C62.574 67.3522 62.5597 67.2266 62.5156 67.1109C62.4715 66.9952 62.399 66.8935 62.3054 66.8159Z" fill="url(#paint12_linear)"/>
<path d="M57.2295 84.9594C55.9742 84.7873 54.7069 84.7271 53.4417 84.7793C52.1903 84.7431 50.9496 84.6959 49.6961 84.7108C49.0595 84.7186 49.1334 85.6614 49.674 85.7972C50.9042 86.0969 52.1529 86.3076 53.4112 86.4278C54.662 86.641 55.9341 86.6851 57.1959 86.5591C57.3793 86.5323 57.5475 86.4386 57.6706 86.2947C57.7936 86.1509 57.8633 85.9664 57.8674 85.7741C57.8714 85.5818 57.8095 85.3942 57.6926 85.245C57.5758 85.0958 57.4116 84.9945 57.2295 84.9594Z" fill="url(#paint13_linear)"/>
<path d="M104.786 69.2356C103.994 68.4051 102.919 67.9322 101.794 67.9196C100.693 67.8191 99.584 67.8924 98.5044 68.137C96.3595 68.6636 94.2663 69.3958 92.2517 70.3241C88.0731 72.0939 84.0954 74.3373 80.391 77.0137C79.3792 77.7527 78.4092 78.5588 77.4543 79.375C76.4427 80.2392 75.5614 81.2502 74.5978 82.1696C74.3338 82.4216 74.643 82.8753 74.9406 82.6408C75.8095 81.9573 76.7505 81.3978 77.668 80.7896C78.5577 80.1998 79.4256 79.5765 80.3241 79C82.1297 77.8414 83.9438 76.6905 85.8143 75.6452C87.6946 74.5934 89.6144 73.6139 91.5747 72.7337C93.4868 71.814 95.4672 71.0558 97.4967 70.4666C98.5174 70.1815 99.5697 70.0369 100.627 70.0367C101.193 70.046 101.756 70.1298 102.301 70.286C102.821 70.4948 103.357 70.659 103.903 70.777C104.085 70.8001 104.269 70.7678 104.433 70.6841C104.598 70.6004 104.735 70.4688 104.829 70.3055C104.922 70.1421 104.968 69.954 104.961 69.764C104.953 69.5741 104.893 69.3905 104.786 69.2356Z" fill="url(#paint14_linear)"/>
<path d="M32.7799 81.2531C32.2175 80.0713 31.4124 79.0319 30.4214 78.2081C29.4909 77.304 28.5128 76.4542 27.4916 75.6627C25.4271 74.035 23.2149 72.62 20.8863 71.4375C18.6352 69.9874 16.1295 69.0153 13.5142 68.5772C10.8989 68.1392 8.22594 68.2441 5.64991 68.8857C4.48982 69.3093 3.39297 69.9005 2.39169 70.6418C1.40713 71.4214 0.603325 72.4202 0.0393544 73.5648C-0.152804 73.9297 0.409047 74.2734 0.639945 73.9356C1.88287 72.207 3.69201 71.0104 5.72611 70.5715C8.07282 70.2211 10.4644 70.3908 12.7433 71.0697C15.0888 71.715 17.3663 72.6019 19.542 73.7174C21.6462 74.7381 23.6833 75.9017 25.64 77.2008C26.7618 77.9523 27.8571 78.7451 28.9259 79.5793C29.4352 79.9757 29.957 80.3518 30.4683 80.7461C30.9876 81.2018 31.5734 81.5686 32.2039 81.8327C32.2827 81.8652 32.3688 81.8734 32.4519 81.8563C32.535 81.8392 32.6116 81.7975 32.6724 81.7363C32.7333 81.6751 32.7758 81.5969 32.7949 81.5111C32.8139 81.4254 32.8087 81.3358 32.7799 81.2531Z" fill="url(#paint15_linear)"/>
<path d="M37.1829 103.179C35.7308 102.482 34.1094 102.078 32.5981 101.529C31.1275 100.996 29.6541 100.466 28.192 99.9074C25.2592 98.8174 22.3886 97.5544 19.5944 96.1245C14.6798 93.6636 10.2261 90.314 6.44173 86.2326C5.42003 85.0896 4.46212 83.8869 3.57269 82.6303C2.61975 81.3583 1.78367 79.9964 1.07541 78.5624C1.02144 78.4334 0.921247 78.3312 0.796031 78.2776C0.670815 78.2239 0.530401 78.2229 0.404501 78.2748C0.2786 78.3267 0.177092 78.4275 0.121457 78.5557C0.0658218 78.684 0.0604239 78.8297 0.106406 78.962C0.559989 80.3193 1.09554 81.6456 1.70986 82.933C2.36738 84.2329 3.12127 85.4778 3.96471 86.6564C5.68491 89.0082 7.67091 91.1368 9.88005 92.9967C14.7269 96.9493 20.2251 99.9543 26.1068 101.865C27.8685 102.474 29.6446 103.037 31.4431 103.514C32.3218 103.747 33.2027 103.972 34.0856 104.188C34.9585 104.441 35.8466 104.634 36.744 104.767C36.9342 104.791 37.1265 104.744 37.2863 104.634C37.4461 104.524 37.563 104.358 37.6159 104.167C37.6687 103.976 37.6542 103.771 37.5749 103.59C37.4955 103.409 37.3565 103.263 37.1829 103.179Z" fill="url(#paint16_linear)"/>
<path d="M35.5794 95.1949C34.875 94.0397 34.1039 92.9297 33.2705 91.8711C32.4751 90.7788 31.7055 89.6663 30.952 88.5411C29.4491 86.2985 27.9485 84.0464 26.2991 81.9157C24.7643 79.8656 22.9864 78.025 21.0075 76.4375C18.9764 74.8642 16.6846 73.6913 14.2458 72.9772C11.6585 72.2117 8.90484 72.3114 6.37524 73.2622C6.27636 73.3066 6.19586 73.386 6.14806 73.4862C6.10026 73.5865 6.08828 73.7011 6.11424 73.8096C6.1402 73.9182 6.20241 74.0137 6.28982 74.079C6.37722 74.1444 6.48413 74.1755 6.59152 74.1667C11.1411 74.0228 15.6012 75.4986 19.2319 78.3491C23.146 81.4231 26.6127 85.0671 29.525 89.1687C30.3878 90.2897 31.2383 91.4209 32.1055 92.5384C32.9478 93.7325 33.9292 94.8138 35.0273 95.7576C35.4029 96.0509 35.7926 95.5746 35.5794 95.1949Z" fill="url(#paint17_linear)"/>
<path d="M92.3408 73.9836C91.8742 74.0489 91.412 74.144 90.9567 74.2684C90.4546 74.4381 89.9592 74.6347 89.472 74.8462C88.5844 75.2419 87.7315 75.7167 86.9229 76.2653C85.2753 77.3644 83.7275 78.617 82.2988 80.0077C79.2694 82.9507 76.6061 86.2695 73.774 89.4116C72.9662 90.3078 72.1519 91.1965 71.2978 92.0461C70.8971 92.4457 70.5025 92.8453 70.1123 93.255C69.6798 93.775 69.2112 94.2613 68.7102 94.7101C68.6561 94.7549 68.621 94.82 68.6124 94.8913C68.6038 94.9626 68.6223 95.0346 68.664 95.092C68.7057 95.1493 68.7673 95.1875 68.8358 95.1984C68.9042 95.2094 68.974 95.1921 69.0304 95.1504C69.8706 94.4956 70.837 94.0569 71.6531 93.3512C72.4312 92.6785 73.187 91.9784 73.9277 91.2618C75.4414 89.7966 76.8491 88.2262 78.3004 86.697C80.9751 83.7207 83.9031 81.0013 87.0489 78.5718C87.9155 77.9407 88.8191 77.3661 89.7278 76.8024C90.1896 76.5152 90.6545 76.2315 91.1322 75.9728C91.635 75.7006 92.1071 75.37 92.6071 75.1023C93.1222 74.8247 93.0088 73.8475 92.3408 73.9836Z" fill="url(#paint18_linear)"/>
<path d="M105.881 75.3585C105.863 75.2286 105.804 75.1084 105.715 75.0154C105.626 74.9225 105.51 74.8618 105.385 74.8423C105.26 74.8227 105.132 74.8454 105.021 74.907C104.909 74.9686 104.819 75.0658 104.765 75.1843C103.989 76.6141 103.486 78.1999 102.741 79.6545C102.013 81.0912 101.173 82.4634 100.229 83.757C98.1632 86.4694 95.7161 88.8437 92.97 90.8004C90.0867 92.8766 87.0923 94.7816 84.0014 96.5061C80.762 98.3605 77.5009 100.168 74.1657 101.831C72.3185 102.752 70.4566 103.639 68.58 104.492C66.6364 105.375 64.7138 106.27 62.8017 107.223C62.7255 107.258 62.6654 107.322 62.6338 107.402C62.6023 107.482 62.6019 107.572 62.6326 107.652C62.6634 107.733 62.7229 107.798 62.7987 107.833C62.8745 107.869 62.9608 107.873 63.0393 107.844C64.891 107.327 66.7155 106.71 68.5054 105.996C70.258 105.294 71.9993 104.563 73.7293 103.802C77.2118 102.271 80.6778 100.659 84.0428 98.8672C90.6465 95.838 96.5816 91.4344 101.481 85.9287C102.714 84.42 103.755 82.7528 104.578 80.9684C105.459 79.2415 105.907 77.3123 105.881 75.3585Z" fill="url(#paint19_linear)"/>
<path d="M54.6961 98.0321C54.0909 98.0617 53.4844 98.0675 52.879 98.0955C52.2183 98.1652 51.551 98.1225 50.9035 97.969C50.3283 97.7857 49.9371 98.6581 50.5249 98.8798C51.6199 99.4363 52.7816 99.8388 53.9791 100.076C54.6113 100.145 55.2494 100.129 55.8776 100.027C56.4469 99.9206 57.2473 99.7384 57.4515 99.099C57.9433 97.5624 55.4348 97.9961 54.6961 98.0321Z" fill="url(#paint20_linear)"/>
<path d="M59.3942 16.066C58.1857 16.8961 56.7116 17.2001 55.2893 16.9127C55.0507 16.8549 54.9661 17.2265 55.1746 17.3274C55.9338 17.7176 56.7918 17.8504 57.6275 17.707C58.4632 17.5636 59.2345 17.1513 59.8324 16.5282C60.0879 16.223 59.6797 15.899 59.3942 16.066Z" fill="url(#paint21_linear)"/>
<path d="M50.8314 17.1428C50.3598 17.4127 49.8342 17.5648 49.2962 17.5872C48.7582 17.6096 48.2225 17.5016 47.7317 17.2718C47.6799 17.2327 47.6155 17.216 47.5521 17.2252C47.4887 17.2344 47.4313 17.2689 47.3918 17.3212C47.3524 17.3736 47.3341 17.4398 47.3407 17.5059C47.3473 17.572 47.3784 17.6329 47.4274 17.6756C47.9317 18.2215 48.6207 18.5423 49.3487 18.5702C49.7072 18.5927 50.0658 18.5274 50.3955 18.3796C50.7253 18.2319 51.017 18.0058 51.2472 17.7196C51.2937 17.6546 51.3187 17.5757 51.3186 17.4948C51.3184 17.4138 51.2931 17.335 51.2464 17.2702C51.1996 17.2054 51.134 17.158 51.0592 17.1351C50.9844 17.1121 50.9045 17.1148 50.8314 17.1428Z" fill="url(#paint22_linear)"/>
<path d="M74.7364 44.384C71.8031 44.471 68.9793 45.5597 66.7022 47.4817C64.3325 49.4238 61.8058 51.1497 59.1501 52.6403C57.8804 53.2814 56.4948 53.637 55.0837 53.684C53.8482 53.6399 52.6449 53.2636 51.5915 52.5918C49.2898 50.8833 47.2115 48.8718 45.4086 46.6077C44.2533 45.3136 42.9169 44.2076 41.4443 43.3269C40.7643 42.9401 40.0403 42.6432 39.2893 42.443C38.5314 42.2815 37.7576 42.2147 36.9844 42.244C36.6373 42.2379 36.6552 42.7944 36.9721 42.8552C38.3329 43.2288 39.586 43.9398 40.6239 44.9272C41.6914 45.8785 42.6829 46.9181 43.5886 48.0358C45.3187 50.4628 47.3511 52.6409 49.6327 54.5131C50.8832 55.4616 52.3403 56.0742 53.8741 56.296C55.4079 56.5179 56.9707 56.3422 58.4232 55.7846C61.1791 54.3129 63.6393 52.3089 65.6721 49.8801C66.7748 48.5035 68.1378 47.3765 69.6767 46.5688C71.2157 45.7611 72.8978 45.2899 74.6192 45.1843C75.1153 45.2115 75.2388 44.4149 74.7364 44.384Z" fill="url(#paint23_linear)"/>
<path d="M55.4007 24.3355C54.8098 24.6336 54.1663 24.8027 53.51 24.8324C53.4431 24.8416 53.3809 24.8732 53.3328 24.9223C53.2847 24.9715 53.2533 25.0355 53.2432 25.1048C53.2332 25.1741 53.2451 25.2449 53.2771 25.3065C53.3092 25.3682 53.3596 25.4174 53.4209 25.4467C53.8125 25.6032 54.2382 25.6434 54.6505 25.563C55.0628 25.4825 55.4454 25.2845 55.7556 24.9911C56.0521 24.7317 55.7879 24.1299 55.4007 24.3355Z" fill="url(#paint24_linear)"/>
<defs>
<linearGradient id="paint0_linear" x1="45.9729" y1="102.557" x2="39.9978" y2="105.354" gradientUnits="userSpaceOnUse">
<stop stop-color="#2DB7E6"/>
<stop offset="0.69382" stop-color="#38EBCB"/>
</linearGradient>
<linearGradient id="paint1_linear" x1="51.6943" y1="101.057" x2="46.5195" y2="103.894" gradientUnits="userSpaceOnUse">
<stop stop-color="#2DB7E6"/>
<stop offset="0.69382" stop-color="#38EBCB"/>
</linearGradient>
<linearGradient id="paint2_linear" x1="54.7241" y1="106.844" x2="50.0003" y2="111.641" gradientUnits="userSpaceOnUse">
<stop stop-color="#2DB7E6"/>
<stop offset="0.69382" stop-color="#38EBCB"/>
</linearGradient>
<linearGradient id="paint3_linear" x1="57.4104" y1="100.064" x2="54.1977" y2="103.819" gradientUnits="userSpaceOnUse">
<stop stop-color="#2DB7E6"/>
<stop offset="0.69382" stop-color="#38EBCB"/>
</linearGradient>
<linearGradient id="paint4_linear" x1="46.2698" y1="32.0695" x2="37.0451" y2="39.7183" gradientUnits="userSpaceOnUse">
<stop stop-color="#2DB7E6"/>
<stop offset="0.69382" stop-color="#38EBCB"/>
</linearGradient>
<linearGradient id="paint5_linear" x1="38.6288" y1="55.2001" x2="32.4214" y2="55.6953" gradientUnits="userSpaceOnUse">
<stop stop-color="#2DB7E6"/>
<stop offset="0.69382" stop-color="#38EBCB"/>
</linearGradient>
<linearGradient id="paint6_linear" x1="48.1602" y1="61.0407" x2="39.1289" y2="62.2608" gradientUnits="userSpaceOnUse">
<stop stop-color="#2DB7E6"/>
<stop offset="0.69382" stop-color="#38EBCB"/>
</linearGradient>
<linearGradient id="paint7_linear" x1="72.4389" y1="30.7157" x2="60.4776" y2="38.1384" gradientUnits="userSpaceOnUse">
<stop stop-color="#2DB7E6"/>
<stop offset="0.69382" stop-color="#38EBCB"/>
</linearGradient>
<linearGradient id="paint8_linear" x1="71.4861" y1="60.5396" x2="54.935" y2="63.6447" gradientUnits="userSpaceOnUse">
<stop stop-color="#2DB7E6"/>
<stop offset="0.69382" stop-color="#38EBCB"/>
</linearGradient>
<linearGradient id="paint9_linear" x1="58.6686" y1="23.8381" x2="53.0991" y2="28.9314" gradientUnits="userSpaceOnUse">
<stop stop-color="#2DB7E6"/>
<stop offset="0.69382" stop-color="#38EBCB"/>
</linearGradient>
<linearGradient id="paint10_linear" x1="60.1645" y1="6.06123" x2="42.592" y2="14.8543" gradientUnits="userSpaceOnUse">
<stop stop-color="#2DB7E6"/>
<stop offset="0.69382" stop-color="#38EBCB"/>
</linearGradient>
<linearGradient id="paint11_linear" x1="66.1276" y1="62.9705" x2="56.5693" y2="64.386" gradientUnits="userSpaceOnUse">
<stop stop-color="#2DB7E6"/>
<stop offset="0.69382" stop-color="#38EBCB"/>
</linearGradient>
<linearGradient id="paint12_linear" x1="60.47" y1="63.4744" x2="56.3183" y2="66.7198" gradientUnits="userSpaceOnUse">
<stop stop-color="#2DB7E6"/>
<stop offset="0.69382" stop-color="#38EBCB"/>
</linearGradient>
<linearGradient id="paint13_linear" x1="55.331" y1="85.0538" x2="54.3938" y2="87.6453" gradientUnits="userSpaceOnUse">
<stop stop-color="#2DB7E6"/>
<stop offset="0.69382" stop-color="#38EBCB"/>
</linearGradient>
<linearGradient id="paint14_linear" x1="96.0016" y1="70.5454" x2="84.9973" y2="84.4693" gradientUnits="userSpaceOnUse">
<stop stop-color="#2DB7E6"/>
<stop offset="0.69382" stop-color="#38EBCB"/>
</linearGradient>
<linearGradient id="paint15_linear" x1="23.1573" y1="70.7514" x2="13.5938" y2="85.0103" gradientUnits="userSpaceOnUse">
<stop stop-color="#2DB7E6"/>
<stop offset="0.69382" stop-color="#38EBCB"/>
</linearGradient>
<linearGradient id="paint16_linear" x1="26.5966" y1="83.0131" x2="6.54643" y2="100.5" gradientUnits="userSpaceOnUse">
<stop stop-color="#2DB7E6"/>
<stop offset="0.69382" stop-color="#38EBCB"/>
</linearGradient>
<linearGradient id="paint17_linear" x1="26.952" y1="76.6765" x2="9.66667" y2="90.1284" gradientUnits="userSpaceOnUse">
<stop stop-color="#2DB7E6"/>
<stop offset="0.69382" stop-color="#38EBCB"/>
</linearGradient>
<linearGradient id="paint18_linear" x1="85.7765" y1="77.7923" x2="70.5216" y2="88.5555" gradientUnits="userSpaceOnUse">
<stop stop-color="#2DB7E6"/>
<stop offset="0.69382" stop-color="#38EBCB"/>
</linearGradient>
<linearGradient id="paint19_linear" x1="93.155" y1="80.7805" x2="68.5339" y2="100.651" gradientUnits="userSpaceOnUse">
<stop stop-color="#2DB7E6"/>
<stop offset="0.69382" stop-color="#38EBCB"/>
</linearGradient>
<linearGradient id="paint20_linear" x1="55.3733" y1="98.3352" x2="54.0716" y2="101.021" gradientUnits="userSpaceOnUse">
<stop stop-color="#2DB7E6"/>
<stop offset="0.69382" stop-color="#38EBCB"/>
</linearGradient>
<linearGradient id="paint21_linear" x1="58.4845" y1="16.3342" x2="57.3284" y2="18.3189" gradientUnits="userSpaceOnUse">
<stop stop-color="#2DB7E6"/>
<stop offset="0.69382" stop-color="#38EBCB"/>
</linearGradient>
<linearGradient id="paint22_linear" x1="50.1482" y1="17.3815" x2="49.1742" y2="19.0225" gradientUnits="userSpaceOnUse">
<stop stop-color="#2DB7E6"/>
<stop offset="0.69382" stop-color="#38EBCB"/>
</linearGradient>
<linearGradient id="paint23_linear" x1="63.7846" y1="44.7847" x2="54.2655" y2="60.665" gradientUnits="userSpaceOnUse">
<stop stop-color="#2DB7E6"/>
<stop offset="0.69382" stop-color="#38EBCB"/>
</linearGradient>
<linearGradient id="paint24_linear" x1="55.1055" y1="24.5292" x2="54.1296" y2="25.7421" gradientUnits="userSpaceOnUse">
<stop stop-color="#2DB7E6"/>
<stop offset="0.69382" stop-color="#38EBCB"/>
</linearGradient>
</defs>
</svg>
