<svg width="124" height="112" viewBox="0 0 124 112" fill="none" xmlns="http://www.w3.org/2000/svg">
<path d="M15.189 53.6913C14.7504 53.7088 14.3171 53.6042 13.8748 53.6295C13.3651 53.6748 12.874 53.8428 12.4434 54.1192C11.6378 54.6161 10.9338 55.2611 10.3686 56.0201C9.10338 57.7995 8.20839 59.8146 7.73671 61.9461C7.26123 64.0389 6.39535 66.0234 5.18441 67.7956C3.76406 69.4785 2.44695 71.2459 1.2403 73.0879C0.634842 74.1571 0.236228 75.3307 0.0652917 76.5473C-0.0217639 77.1203 -0.0217639 77.7031 0.0652917 78.276C0.122541 78.6055 0.218027 78.9272 0.349816 79.2346C0.525422 79.5052 0.719643 79.7631 0.931072 80.0067C1.03895 80.149 1.19487 80.2472 1.36981 80.2831C1.54474 80.319 1.72677 80.2902 1.88201 80.2019C2.03561 80.1126 2.15279 79.972 2.21296 79.8049C2.27313 79.6377 2.27243 79.4547 2.211 79.2881C2.26534 79.5033 2.23367 79.3389 2.25692 79.1864C2.27209 79.0453 2.27374 78.9031 2.26186 78.7617L2.20373 78.134C2.16863 77.6845 2.17836 77.2327 2.23279 76.7852C2.38894 75.8521 2.71006 74.9543 3.18111 74.1337C4.22027 72.4814 5.44498 70.9532 6.8314 69.5789C7.54409 68.8022 8.17506 67.9543 8.71438 67.0487C9.2415 66.0952 9.6442 65.078 9.91264 64.0222C10.1977 63.0031 10.3991 61.9705 10.6168 60.936C10.7567 60.0221 10.9773 59.1223 11.276 58.2473C11.6112 57.3788 12.1241 56.5898 12.7817 55.9307C13.1434 55.6015 13.5328 55.3041 13.9457 55.0418C14.3143 54.7015 14.7712 54.4716 15.2643 54.3783C15.7095 54.3606 15.6313 53.6736 15.189 53.6913Z" fill="url(#paint0_linear)"/>
<path d="M71.1831 43.7216C71.1627 43.5662 71.0971 43.4201 70.9947 43.3015C70.8922 43.1828 70.7572 43.0966 70.6063 43.0537C70.4555 43.0107 70.2953 43.0128 70.1457 43.0597C69.996 43.1066 69.8633 43.1963 69.764 43.3176C69.3107 44.124 68.7819 44.8856 68.1847 45.5921C67.5767 46.2692 66.8943 46.8756 66.1503 47.3998C64.4257 48.5059 62.5737 49.3995 60.6345 50.0612L59.4589 50.5039C57.6685 50.2936 55.899 49.9325 54.1695 49.4245C52.1569 48.7953 50.2345 47.9079 48.4505 46.7842C48.1096 46.5826 47.755 47.1712 48.0936 47.3853C49.9882 48.5826 51.868 49.875 53.8556 50.9141C54.5247 51.2647 55.2307 51.5399 55.9606 51.7347C52.3388 52.9486 48.6722 54.0136 45.0022 55.0962C40.1632 56.4946 35.4176 58.198 30.794 60.196C28.5181 61.1941 26.2689 62.2526 24.0906 63.4494C21.9191 64.6427 19.8106 65.9543 17.705 67.26C15.3948 68.6927 13.1383 70.2053 10.9714 71.8474C8.73532 73.5418 6.714 75.4494 4.59067 77.2757C4.30964 77.5174 4.64153 77.9708 4.94146 77.7405C6.93517 76.207 9.11895 74.9085 11.224 73.5348C13.2777 72.1945 15.3598 70.897 17.4701 69.6423C21.7781 67.159 26.2303 64.9344 30.803 62.9803C35.4505 60.9423 40.219 59.192 45.0815 57.7393C50.3646 56.1469 55.6633 54.6564 60.8257 52.693C63.2055 51.8892 65.4793 50.8003 67.5973 49.4503C68.6225 48.8665 69.4868 48.0375 70.1126 47.0377C70.7384 46.0379 71.1062 44.8985 71.1831 43.7216Z" fill="url(#paint1_linear)"/>
<path d="M51.433 41.2598C49.5488 40.0779 47.59 39.0191 45.569 38.09C44.5654 37.5881 43.5352 37.1408 42.4831 36.7503C41.413 36.3913 40.3241 36.0906 39.2412 35.7731C35.2419 34.7262 31.3628 33.265 27.6669 31.4132C24.4264 29.7694 21.6407 27.3535 19.5555 24.3788C19.0794 23.6655 18.6758 22.9065 18.3506 22.113C17.9527 21.1817 17.6434 20.2151 17.4269 19.2259C16.9931 17.1602 16.9746 15.0289 17.3726 12.956C17.8009 10.8577 18.6414 8.8651 19.8454 7.09364C21.0494 5.32218 22.593 3.80704 24.3869 2.63593C24.4461 2.58857 24.4866 2.52171 24.501 2.44729C24.5155 2.37288 24.503 2.29575 24.4658 2.22969C24.4286 2.16363 24.3691 2.11294 24.2979 2.08668C24.2268 2.06042 24.1486 2.0603 24.0774 2.08633C23.1584 2.45459 22.2808 2.91864 21.4591 3.47078C20.6682 4.04912 19.9268 4.69235 19.2428 5.3938C17.7963 6.80352 16.6246 8.46967 15.7872 10.3074C14.856 12.4313 14.3752 14.725 14.3752 17.0439C14.3752 19.3628 14.856 21.6565 15.7872 23.7804C17.8784 27.3922 20.7129 30.5191 24.1033 32.9544C27.4936 35.3897 31.3626 37.0779 35.4543 37.9073C38.0208 38.7617 40.6333 39.4711 43.2795 40.0322C45.8987 40.4877 48.4794 41.1418 50.9994 41.9886C51.4263 42.1388 51.8698 41.5349 51.433 41.2598Z" fill="url(#paint2_linear)"/>
<path d="M46.3018 42.3868C44.0639 42.6417 41.8929 43.31 39.8993 44.3577C37.8893 45.2472 35.913 46.2075 33.9705 47.2385C29.9977 49.2981 26.2187 51.7112 22.679 54.4483C21.9063 55.0644 21.1661 55.7201 20.4615 56.4129L20.3319 56.132C19.9483 55.6847 19.4721 55.3259 18.9362 55.0807C18.4002 54.8354 17.8174 54.7095 17.228 54.7115C17.1394 54.7018 17.0505 54.7267 16.9798 54.7809C16.9091 54.8351 16.8621 54.9145 16.8485 55.0025C16.8349 55.0906 16.8559 55.1804 16.907 55.2534C16.9581 55.3263 17.0354 55.3768 17.1228 55.3942C18.0074 55.5322 18.5593 56.4428 19.0267 57.1159C19.1245 57.2675 19.2742 57.3783 19.4478 57.4276C18.7363 58.1587 18.04 58.905 17.339 59.6402C17.0591 59.9336 17.5108 60.3426 17.8197 60.1288C19.6065 58.8925 21.5153 57.8479 23.3303 56.6584C25.1708 55.4517 26.9861 54.2075 28.8577 53.0491C32.4917 50.7751 36.268 48.7366 40.1632 46.946C42.4915 46.095 44.7176 44.9872 46.8002 43.6431C46.9184 43.5486 47.0032 43.4187 47.042 43.2725C47.0808 43.1262 47.0716 42.9714 47.0158 42.8308C46.96 42.6901 46.8605 42.5711 46.732 42.4912C46.6035 42.4112 46.4527 42.3747 46.3018 42.3868Z" fill="url(#paint3_linear)"/>
<path d="M95.6905 27.9625C89.0921 21.0906 81.5107 15.2346 73.1936 10.5856C64.7075 5.65647 55.3376 2.43671 45.613 1.1082C42.8947 0.795992 40.1621 0.623701 37.4261 0.592002C34.6033 0.585027 31.7829 0.755588 28.9816 1.10268C28.9048 1.11107 28.8346 1.1496 28.7863 1.20976C28.738 1.26993 28.7155 1.34682 28.7239 1.42352C28.7323 1.50021 28.7709 1.57043 28.8311 1.61872C28.8913 1.66702 28.9682 1.68943 29.0449 1.68103C31.51 1.49329 33.9844 1.46011 36.4536 1.58169C38.8865 1.67425 41.3112 1.91991 43.7132 2.3172C48.4968 3.09392 53.2004 4.30135 57.7665 5.92474C65.5275 8.72952 72.8239 12.6817 79.4122 17.6493C77.7783 18.7332 76.3518 20.1007 75.2001 21.6871C73.7944 23.7211 72.5028 25.8317 71.3313 28.0089C71.0636 28.454 71.6856 28.9713 71.9835 28.519C73.2799 26.5725 74.7477 24.7455 76.3693 23.0599C77.8588 21.5262 79.5782 20.2337 81.4658 19.229L81.8261 19.5143C85.8063 22.7396 89.5895 26.2005 93.1554 29.8782C93.4175 30.203 93.7935 30.4158 94.207 30.4733C94.6205 30.5309 95.0404 30.4289 95.3813 30.1882C95.7157 29.9326 95.9357 29.5555 95.9936 29.1388C96.0515 28.7221 95.9426 28.2994 95.6905 27.9625Z" fill="url(#paint4_linear)"/>
<path d="M70.7447 37.6151C70.6277 36.802 70.374 36.0145 69.9943 35.286C69.576 34.5946 69.1182 33.9279 68.6231 33.2892C67.6726 32.0485 66.6261 30.8844 65.4933 29.8074C63.2574 27.6884 60.8321 25.7785 58.2477 24.1017C54.1759 21.4401 49.954 19.0154 45.603 16.8396C45.2498 14.3655 44.5412 11.9554 43.4992 9.68373C42.9141 8.4107 42.2113 7.19506 41.4 6.05266C40.5244 4.93536 39.5775 3.87578 38.5652 2.88055C38.1813 2.46835 37.4785 2.9645 37.8499 3.42057C38.6598 4.49883 39.3665 5.65072 39.9608 6.86108C40.5869 8.01544 41.1496 9.20306 41.6464 10.4187C42.3315 12.1013 42.8508 13.8466 43.1969 15.63L40.2927 14.2049C38.4637 13.3171 36.6211 12.4584 34.7649 11.6285C33.8021 11.1989 32.8206 10.8079 31.845 10.4085C30.8638 10.0059 29.8304 9.75287 28.8733 9.30058C28.5005 9.12426 28.2578 9.69942 28.6211 9.88475C29.4639 10.3109 30.1905 10.9087 31.0001 11.39L33.3019 12.7725C34.855 13.7093 36.4366 14.6043 38.0069 15.5123C41.155 17.3331 44.2644 19.2172 47.4014 21.0557C52.7372 23.9666 57.7758 27.3912 62.4458 31.2808C63.6443 32.3494 64.7815 33.4847 65.8522 34.6812C66.3957 35.2792 66.9149 35.8977 67.4097 36.5365C67.9833 37.2274 68.6352 37.8493 69.3523 38.3898C69.4873 38.4902 69.6485 38.5495 69.8164 38.5606C69.9843 38.5717 70.1519 38.534 70.2989 38.4522C70.446 38.3704 70.5663 38.2479 70.6453 38.0994C70.7244 37.9509 70.7589 37.7827 70.7447 37.6151Z" fill="url(#paint5_linear)"/>
<path d="M87.8921 40.5966C87.8775 39.9064 87.7311 39.2281 87.6779 38.537C87.6415 38.0635 86.9301 38.1504 86.9499 38.6166C86.945 39.215 86.8612 39.8101 86.7008 40.3866C86.5697 41.0001 86.4334 41.6176 86.2425 42.2166C85.9079 43.2858 85.4501 44.3125 84.8783 45.276C84.2518 46.2877 83.5485 47.2498 82.7747 48.1539C82.0037 49.075 81.2451 50.006 80.4206 50.8809C78.7297 52.6753 76.8985 54.3302 75.1733 56.0899C73.5004 57.8403 71.9689 59.7205 70.5933 61.7129C69.1417 63.9052 67.8593 66.2049 66.757 68.5919C65.5998 70.9038 64.3934 73.1874 63.098 75.4253C60.4405 79.9124 57.5282 84.2437 54.3754 88.3981C52.6441 90.7263 50.8359 92.9927 49.0279 95.2608C47.0686 97.3006 45.5756 99.7412 44.6522 102.414C44.6197 102.604 44.6403 102.8 44.7115 102.979C44.7828 103.158 44.902 103.315 45.0561 103.431C45.8732 103.976 46.8548 104.221 47.8325 104.122C48.076 104.087 48.2965 103.959 48.4474 103.765C48.5982 103.571 48.6677 103.326 48.6409 103.081C48.6142 102.837 48.4935 102.613 48.3042 102.456C48.1149 102.299 47.872 102.221 47.6267 102.24C47.443 102.247 47.2594 102.22 47.0856 102.16C47.4463 101.338 47.8853 100.553 48.3963 99.815C49.0999 98.8187 49.8878 97.8862 50.6653 96.9477C52.3349 94.9323 53.9302 92.8541 55.4882 90.7516C58.6427 86.5072 61.547 82.0826 64.1864 77.5005C65.4884 75.233 66.7512 72.9454 67.919 70.6055C69.0121 68.2246 70.2911 65.9334 71.7442 63.7532C72.4416 62.7621 73.2251 61.8345 74.0858 60.9811C74.9466 60.1387 75.8705 59.3695 76.7532 58.5521C78.6053 56.8368 80.4657 55.1095 82.1589 53.2362C84.0516 51.2151 85.5586 48.865 86.6055 46.302C87.1145 45.0609 87.4921 43.7699 87.7322 42.4502C87.8429 41.8386 87.8964 41.2181 87.8921 40.5966Z" fill="url(#paint6_linear)"/>
<path d="M67.4445 50.0624C65.9789 51.1255 64.5687 52.2628 63.2194 53.4698C61.8909 54.7206 60.6702 56.081 59.5702 57.5366C57.3924 60.5226 55.5146 63.7161 53.9643 67.0707C52.2566 70.5742 50.7755 74.1876 49.2422 77.7696C47.4548 81.945 45.6712 86.122 43.8912 90.3005C42.9129 92.6018 41.9332 94.9079 41.0116 97.2327C40.5701 98.3461 40.1566 99.4825 39.8113 100.63C39.4532 101.802 39.2805 103.022 39.2992 104.248C39.3082 105.177 40.6739 105.099 40.8515 104.28C41.3918 102.282 42.1601 100.352 43.1413 98.5289C44.0853 96.5536 44.9322 94.5181 45.7977 92.5065C47.5321 88.4757 49.2419 84.4345 50.9572 80.3958C52.4975 76.7685 54.0216 73.1337 55.6337 69.5384C57.0485 66.2664 58.6747 63.0898 60.502 60.0287C61.5393 58.3439 62.6427 56.7042 63.8119 55.1096C64.9692 53.4489 66.3327 51.9418 67.8697 50.6242C67.9391 50.5661 67.9835 50.4836 67.9937 50.3936C68.0039 50.3037 67.9792 50.2133 67.9245 50.1411C67.8699 50.0689 67.7896 50.0205 67.7003 50.0059C67.6109 49.9912 67.5193 50.0115 67.4445 50.0624Z" fill="url(#paint7_linear)"/>
<path d="M67.4991 108.529C65.8044 109.208 63.9111 109.195 62.2257 108.494C61.2269 108.055 60.1782 107.74 59.1029 107.556C57.9752 107.454 56.8399 107.467 55.715 107.597C51.8181 108.336 47.8271 108.439 43.8972 107.902C43.5168 107.81 43.341 108.344 43.6112 108.564C47.3691 110.704 51.8149 111.291 55.9998 110.2C57.12 110.046 58.2574 110.068 59.3711 110.263C60.4368 110.507 61.4215 111.044 62.4765 111.336C63.5552 111.633 64.6982 111.599 65.7574 111.239C66.2556 111.066 66.7332 110.838 67.1814 110.561C67.592 110.275 67.9478 109.918 68.2321 109.506C68.3137 109.396 68.3576 109.262 68.3571 109.125C68.3567 108.988 68.312 108.854 68.2296 108.745C68.1473 108.635 68.0317 108.555 67.9001 108.516C67.7685 108.477 67.6278 108.482 67.4991 108.529Z" fill="url(#paint8_linear)"/>
<path d="M64.3405 106.112C63.7953 106.107 63.2722 105.896 62.8772 105.52C62.4232 105.08 61.9102 104.706 61.3529 104.408C60.2446 103.642 59.0211 103.059 57.7287 102.679C55.2021 102.141 52.5729 102.356 50.1675 103.298C50.0849 103.333 50.0195 103.4 49.985 103.483C49.9506 103.566 49.95 103.659 49.9832 103.743C50.0164 103.826 50.0808 103.894 50.1629 103.93C50.2449 103.967 50.3381 103.971 50.4226 103.94C51.6356 103.529 52.9222 103.381 54.197 103.504C55.4416 103.685 56.6433 104.088 57.7444 104.695C58.8229 105.244 59.7814 105.994 60.8512 106.552C61.3907 106.822 61.993 106.942 62.595 106.9C63.1718 106.929 63.7499 106.918 64.3251 106.866C64.7294 106.798 64.7898 106.157 64.3405 106.112Z" fill="url(#paint9_linear)"/>
<path d="M56.219 56.7836C54.4664 57.1585 52.7455 57.6691 51.072 58.3107C49.4268 58.8202 47.8059 59.4383 46.1996 60.06C42.915 61.3304 39.6514 62.6609 36.409 64.0515C29.921 66.826 23.5263 69.8063 17.195 72.9204C13.6121 74.6813 10.0909 76.5369 6.59375 78.4608C6.19413 78.6807 6.41762 79.3322 6.86403 79.1411C19.826 73.6274 32.7619 68.0486 45.832 62.7908C47.6377 62.0646 49.4608 61.3488 51.2336 60.5457C53.1128 59.8195 54.9346 58.953 56.6837 57.9536C56.7943 57.8658 56.8736 57.7447 56.91 57.6083C56.9464 57.4719 56.9379 57.3275 56.8857 57.1963C56.8336 57.0651 56.7407 56.9541 56.6206 56.8798C56.5006 56.8055 56.3598 56.7717 56.219 56.7836Z" fill="url(#paint10_linear)"/>
<path d="M123.388 30.9521C122.607 27.1254 120.478 23.7062 117.387 21.317C115.426 19.8369 113.17 18.7949 110.772 18.2614L110.547 17.7774C109.45 16.2195 107.911 15.026 106.128 14.3511C104.346 13.6762 102.402 13.5508 100.548 13.9912C98.6606 14.4468 96.9186 15.3702 95.4827 16.6762C94.1929 17.8637 93.1708 19.7507 94.4946 21.2932C94.816 21.6676 95.4874 21.3463 95.2793 20.8513C94.6739 19.4035 96.2965 18.2369 97.3628 17.6589C98.6679 16.9619 100.108 16.5556 101.586 16.4679C103.371 16.3387 105.144 16.8511 106.584 17.9128L106.468 17.9192C104.38 17.9391 102.336 18.5263 100.555 19.6181C98.7749 20.7098 97.3251 22.2649 96.361 24.117C96.1817 24.5318 96.7833 24.9146 97.0553 24.5289C98.0744 23.28 99.3587 22.2733 100.815 21.5816C102.271 20.89 103.864 20.5308 105.476 20.53C108.723 20.3002 111.96 21.0926 114.733 22.7958C117.429 24.5204 119.429 27.1414 120.38 30.1963C121.331 33.2511 121.172 36.5436 119.931 39.4927C118.436 42.6379 115.969 45.2196 112.895 46.8571C112.467 47.0915 112.543 47.8683 113.122 47.7712C114.868 47.4378 116.521 46.7313 117.968 45.7002C119.416 44.6692 120.623 43.3378 121.508 41.7971C123.489 38.5515 124.161 34.6745 123.388 30.9521Z" fill="url(#paint11_linear)"/>
<path d="M95.5366 50.4289C94.9502 49.2322 94.2403 48.1001 93.4185 47.0509C92.733 45.9219 92.1611 44.7279 91.711 43.4863C90.7196 40.5931 89.9833 37.6189 89.5104 34.5974C89.4963 34.5039 89.4466 34.4194 89.3716 34.3617C89.2966 34.304 89.2022 34.2775 89.1081 34.2878C89.0141 34.2981 88.9276 34.3444 88.8669 34.4169C88.8062 34.4895 88.7759 34.5827 88.7824 34.677C88.6262 37.9767 88.9259 41.282 89.6731 44.4998C90.0686 45.925 90.6599 47.2886 91.43 48.5515C92.0981 49.9165 93.2783 50.9627 94.7141 51.4625C95.302 51.6135 95.7162 50.9228 95.5366 50.4289Z" fill="url(#paint12_linear)"/>
<path d="M109.487 48.3575C108.422 48.7361 107.488 49.4146 106.799 50.3113C106.48 50.7151 106.243 51.1828 105.917 51.5793L105.653 51.8407L105.62 51.8767L105.291 51.6391C105.216 51.5818 105.125 51.5504 105.031 51.5496C104.937 51.5487 104.845 51.5785 104.769 51.6345C104.236 52.0545 104.544 52.8008 105.057 53.0869C105.372 53.2515 105.733 53.306 106.082 53.2418C106.432 53.1775 106.75 52.9981 106.986 52.7322C107.509 52.1597 107.885 51.425 108.363 50.8083C108.86 50.1693 109.412 49.5714 109.926 48.9443C109.975 48.8781 110.001 48.7981 110 48.716C110 48.6339 109.973 48.5541 109.924 48.4883C109.875 48.4226 109.806 48.3744 109.727 48.3508C109.649 48.3273 109.564 48.3296 109.487 48.3575Z" fill="url(#paint13_linear)"/>
<path d="M100.601 50.4773C100.178 50.4707 99.7555 50.5069 99.3398 50.5854C98.9023 50.6306 98.4623 50.6471 98.0227 50.6348C97.6815 50.6156 97.3833 51.0772 97.732 51.309C98.1739 51.6564 98.7065 51.8692 99.2662 51.922C99.8258 51.9748 100.389 51.8653 100.888 51.6067C100.984 51.5301 101.056 51.4273 101.096 51.3107C101.135 51.1941 101.14 51.0687 101.11 50.9494C101.079 50.8301 101.015 50.7222 100.925 50.6384C100.835 50.5547 100.722 50.4987 100.601 50.4773Z" fill="url(#paint14_linear)"/>
<path d="M108.731 46.0637C108.348 45.6064 107.894 45.2288 107.523 44.7591C107.153 44.308 106.825 43.8234 106.544 43.3116C106.341 42.9206 105.634 42.8791 105.593 43.4199C105.508 44.2216 105.649 45.0311 106.001 45.7566C106.353 46.4821 106.901 47.0945 107.583 47.5245C108.424 48.0093 109.321 46.7684 108.731 46.0637Z" fill="url(#paint15_linear)"/>
<path d="M116.243 42.4547C115.728 42.3077 115.194 42.2392 114.658 42.2513C114.094 42.2181 113.532 42.1511 112.976 42.0506C112.425 41.8753 111.905 41.6173 111.432 41.2855C111.059 41.0906 110.669 40.9473 110.314 40.7164C108.796 39.5903 107.499 38.194 106.489 36.5976C105.499 34.7434 104.095 33.1416 102.387 31.9164C101.517 31.4522 100.512 31.3032 99.5444 31.4946C99.0956 31.587 98.663 31.7451 98.2604 31.9638C97.9439 32.178 97.6528 32.4276 97.3929 32.7077C97.3339 32.7567 97.296 32.8265 97.2871 32.9026C97.2783 32.9788 97.2991 33.0554 97.3454 33.1166C97.3916 33.1778 97.4596 33.2188 97.5353 33.2312C97.611 33.2435 97.6885 33.2263 97.7518 33.1829C98.1441 33.0475 98.5644 33.0142 98.9731 33.0863C99.3818 33.1584 99.7654 33.3334 100.088 33.5949L100.725 34.0454C100.476 34.2019 100.242 34.3787 100.023 34.5741C99.6158 34.9242 99.2758 35.3453 99.0192 35.8168C98.8161 36.3148 98.702 36.8445 98.6821 37.3819C98.624 37.7674 99.2163 37.9603 99.354 37.5745C99.7182 36.8505 100.258 36.229 100.923 35.7665C101.256 35.5391 101.626 35.3724 102.017 35.2742C103.226 36.7144 104.052 38.4065 105.361 39.7747C106.668 41.1672 108.289 42.2274 110.089 42.8669C110.553 43.0411 111.046 43.1264 111.542 43.1184C112.104 43.11 112.667 43.1452 113.224 43.2236C113.715 43.2858 114.209 43.3255 114.703 43.3566C115.21 43.4333 115.726 43.421 116.229 43.3203C116.314 43.2847 116.386 43.2253 116.438 43.1492C116.489 43.0732 116.517 42.9838 116.519 42.892C116.52 42.8003 116.495 42.7101 116.446 42.6324C116.397 42.5547 116.326 42.493 116.243 42.4547Z" fill="url(#paint16_linear)"/>
<defs>
<linearGradient id="paint0_linear" x1="10.9849" y1="58.4266" x2="-1.96406" y2="63.0802" gradientUnits="userSpaceOnUse">
<stop stop-color="#2DB7E6"/>
<stop offset="0.69382" stop-color="#38EBCB"/>
</linearGradient>
<linearGradient id="paint1_linear" x1="51.5658" y1="49.2835" x2="25.4035" y2="80.1876" gradientUnits="userSpaceOnUse">
<stop stop-color="#2DB7E6"/>
<stop offset="0.69382" stop-color="#38EBCB"/>
</linearGradient>
<linearGradient id="paint2_linear" x1="40.6606" y1="9.25707" x2="14.3492" y2="24.3656" gradientUnits="userSpaceOnUse">
<stop stop-color="#2DB7E6"/>
<stop offset="0.69382" stop-color="#38EBCB"/>
</linearGradient>
<linearGradient id="paint3_linear" x1="38.177" y1="45.5892" x2="24.6122" y2="59.7724" gradientUnits="userSpaceOnUse">
<stop stop-color="#2DB7E6"/>
<stop offset="0.69382" stop-color="#38EBCB"/>
</linearGradient>
<linearGradient id="paint4_linear" x1="76.2186" y1="5.9733" x2="54.5817" y2="35.9688" gradientUnits="userSpaceOnUse">
<stop stop-color="#2DB7E6"/>
<stop offset="0.69382" stop-color="#38EBCB"/>
</linearGradient>
<linearGradient id="paint5_linear" x1="58.3049" y1="9.17704" x2="32.3047" y2="28.084" gradientUnits="userSpaceOnUse">
<stop stop-color="#2DB7E6"/>
<stop offset="0.69382" stop-color="#38EBCB"/>
</linearGradient>
<linearGradient id="paint6_linear" x1="75.1702" y1="50.0876" x2="40.2362" y2="64.2072" gradientUnits="userSpaceOnUse">
<stop stop-color="#2DB7E6"/>
<stop offset="0.69382" stop-color="#38EBCB"/>
</linearGradient>
<linearGradient id="paint7_linear" x1="59.5554" y1="59.8865" x2="35.1231" y2="67.7509" gradientUnits="userSpaceOnUse">
<stop stop-color="#2DB7E6"/>
<stop offset="0.69382" stop-color="#38EBCB"/>
</linearGradient>
<linearGradient id="paint8_linear" x1="61.0405" y1="108.217" x2="59.5161" y2="113.988" gradientUnits="userSpaceOnUse">
<stop stop-color="#2DB7E6"/>
<stop offset="0.69382" stop-color="#38EBCB"/>
</linearGradient>
<linearGradient id="paint9_linear" x1="60.3315" y1="103.204" x2="57.5696" y2="108.727" gradientUnits="userSpaceOnUse">
<stop stop-color="#2DB7E6"/>
<stop offset="0.69382" stop-color="#38EBCB"/>
</linearGradient>
<linearGradient id="paint10_linear" x1="42.0656" y1="60.8123" x2="25.8732" y2="83.3246" gradientUnits="userSpaceOnUse">
<stop stop-color="#2DB7E6"/>
<stop offset="0.69382" stop-color="#38EBCB"/>
</linearGradient>
<linearGradient id="paint11_linear" x1="114.929" y1="19.8615" x2="93.2255" y2="31.5727" gradientUnits="userSpaceOnUse">
<stop stop-color="#2DB7E6"/>
<stop offset="0.69382" stop-color="#38EBCB"/>
</linearGradient>
<linearGradient id="paint12_linear" x1="93.5681" y1="37.3813" x2="87.508" y2="38.8652" gradientUnits="userSpaceOnUse">
<stop stop-color="#2DB7E6"/>
<stop offset="0.69382" stop-color="#38EBCB"/>
</linearGradient>
<linearGradient id="paint13_linear" x1="108.38" y1="49.2227" x2="104.866" y2="51.6401" gradientUnits="userSpaceOnUse">
<stop stop-color="#2DB7E6"/>
<stop offset="0.69382" stop-color="#38EBCB"/>
</linearGradient>
<linearGradient id="paint14_linear" x1="100.084" y1="50.7391" x2="99.0578" y2="52.2795" gradientUnits="userSpaceOnUse">
<stop stop-color="#2DB7E6"/>
<stop offset="0.69382" stop-color="#38EBCB"/>
</linearGradient>
<linearGradient id="paint15_linear" x1="107.935" y1="43.8471" x2="105.31" y2="45.0206" gradientUnits="userSpaceOnUse">
<stop stop-color="#2DB7E6"/>
<stop offset="0.69382" stop-color="#38EBCB"/>
</linearGradient>
<linearGradient id="paint16_linear" x1="110.862" y1="33.5721" x2="101.716" y2="42.6069" gradientUnits="userSpaceOnUse">
<stop stop-color="#2DB7E6"/>
<stop offset="0.69382" stop-color="#38EBCB"/>
</linearGradient>
</defs>
</svg>
