<svg width="113" height="112" viewBox="0 0 113 112" fill="none" xmlns="http://www.w3.org/2000/svg">
<path d="M58.5355 24.8312C56.5223 26.1725 54.1159 26.7974 51.7041 26.6052C49.0664 26.5015 46.434 26.1525 43.8155 25.8336C40.5367 25.434 37.2579 25.1258 33.9603 24.9349C32.3272 24.8402 30.6941 24.7858 29.0585 24.7502C27.4175 24.6374 25.7697 24.6695 24.1343 24.8462C21.3872 25.2781 18.3523 26.6541 17.9207 29.718C17.8726 30.0593 18.416 30.2442 18.5228 29.8906C18.7159 29.3185 19.0227 28.7915 19.4248 28.341C19.8269 27.8905 20.316 27.526 20.8627 27.2693C22.135 26.719 23.5293 26.5116 24.9068 26.6675C28.0959 26.8614 31.2778 27.2394 34.4531 27.5904C37.6906 27.9478 40.93 28.3149 44.1578 28.7495C46.7138 29.2083 49.3205 29.3156 51.9055 29.0684C54.6959 28.8172 57.303 27.5718 59.2511 25.5593C59.6482 25.1143 58.9972 24.497 58.5355 24.8312Z" fill="url(#paint0_linear)"/>
<path d="M101.529 37.9426C100.697 36.4178 99.5746 35.0706 98.2249 33.9767C95.7828 31.6913 92.9148 29.9085 89.7841 28.7297C86.2073 27.3895 82.3654 27.0955 78.747 25.9186C76.8917 25.3153 75.0917 24.5765 73.209 24.0541C71.5161 23.5819 69.7584 23.3839 68.0027 23.4677C66.0893 23.5459 64.1989 23.9148 62.3966 24.5617C60.6594 25.3027 59.052 26.3166 57.6352 27.5651C57.5796 27.6117 57.544 27.6779 57.5358 27.75C57.5275 27.8221 57.5474 27.8946 57.5911 27.9525C57.6349 28.0103 57.6992 28.0492 57.7708 28.061C57.8425 28.0728 57.9159 28.0567 57.9759 28.0159C59.3058 27.2016 60.7534 26.5974 62.2677 26.2247C63.7177 25.76 65.2258 25.5011 66.7478 25.4556C69.9571 25.6393 73.1013 26.4369 76.0098 27.8053C77.6887 28.4403 79.4082 28.9627 81.1567 29.3689C82.9116 29.7718 84.6867 30.077 86.4317 30.5281C89.3064 31.2739 92.0097 32.5685 94.3925 34.3405C95.7013 35.3063 96.9022 36.4102 97.9745 37.633C98.4889 38.2243 98.9432 38.875 99.465 39.4557C99.8131 39.8429 100.206 40.3818 99.8405 40.8823C99.5061 41.3399 99.9746 42.1172 100.552 41.8314C101.161 41.4138 101.597 40.788 101.777 40.0718C101.957 39.3556 101.869 38.5984 101.529 37.9426Z" fill="url(#paint1_linear)"/>
<path d="M95.1834 39.4075C94.6152 39.1674 94.0178 39.0034 93.4066 38.9198C92.8824 38.7972 92.3656 38.6449 91.8586 38.4639C90.7808 38.0729 89.7317 37.6068 88.7191 37.069C86.6227 35.9749 84.6235 34.7094 82.5737 33.5342C80.6237 32.3512 78.5408 31.4026 76.3683 30.708C75.2496 30.3961 74.1055 30.1836 72.9494 30.0729C71.4284 29.9386 69.8958 30.0321 68.4025 30.3505C66.8252 30.7012 65.2288 30.9598 63.6215 31.1248C62.893 31.1741 62.1597 31.2318 61.4301 31.2547C60.6061 31.3509 59.7714 31.2257 59.012 30.8921C58.648 30.6686 58.2296 31.1929 58.5982 31.4205C59.1485 31.7583 59.6244 32.2098 60.1752 32.5465C60.801 32.9076 61.4836 33.1597 62.1939 33.2921C62.9544 33.429 63.7286 33.4742 64.4998 33.4267C63.683 33.8832 62.858 34.3339 62.0174 34.745L61.4279 35.0117L61.3344 35.03C59.8386 35.3571 58.2785 35.2205 56.8625 34.6383C55.5192 34.1681 54.1409 33.8048 52.7403 33.5517C49.9649 33.1903 47.1571 33.1486 44.3721 33.4272C38.8824 34.2798 33.3348 34.7062 27.7792 34.7026C26.2476 34.5959 24.7285 34.3536 23.2398 33.9783C21.7523 33.4275 20.1933 33.0931 18.6106 32.9855C18.5606 32.992 18.5136 33.0131 18.4754 33.046C18.4372 33.0789 18.4095 33.1223 18.3956 33.1708C18.3818 33.2192 18.3825 33.2707 18.3976 33.3188C18.4127 33.3669 18.4415 33.4095 18.4806 33.4414C20.94 34.9794 23.6762 36.0226 26.5355 36.5124C29.338 36.9125 32.1781 36.9789 34.9963 36.7104C40.6279 35.8348 46.3287 35.4838 52.0253 35.6621C54.8148 36.2843 57.6862 36.4539 60.5296 36.1642H60.5361C61.0372 36.092 61.5289 35.9834 62.022 35.8716C63.0491 35.6396 64.0546 35.321 65.0277 34.9192C65.9956 34.5204 66.9377 34.0689 67.8955 33.6466L69.3389 33.0386L70.023 32.7719L70.3443 32.5878L71.1951 32.474C71.8375 32.3666 72.4868 32.3055 73.1379 32.2911C73.723 32.3202 74.3046 32.3988 74.8764 32.526C79.3178 34.0114 83.5154 36.1441 87.3334 38.8553C88.5039 39.4976 89.7228 40.0477 90.9789 40.5007C92.2808 41.112 93.7291 41.3433 95.1568 41.1681C96.0401 40.9416 95.8199 39.7464 95.1834 39.4075Z" fill="url(#paint2_linear)"/>
<path d="M33.5957 56.0618C32.8339 56.2602 32.0348 56.2672 31.2697 56.0823C30.5502 55.9818 29.8562 55.7463 29.2242 55.3881C28.6731 55.0738 28.1916 54.6507 27.8092 54.1446C27.4267 53.6385 27.1512 53.0599 26.9995 52.4441C26.7764 50.8105 27.0792 49.1483 27.8639 47.6981C28.5672 46.1711 29.5488 44.8093 30.356 43.3403C30.8244 42.5276 31.2166 41.6734 31.5275 40.7885C31.7761 39.9119 31.946 39.0149 32.0351 38.1081C32.0455 38.0199 32.0212 37.9311 31.9673 37.8605C31.9135 37.7898 31.8343 37.7429 31.7464 37.7295C31.6586 37.7161 31.569 37.7374 31.4965 37.7888C31.4241 37.8402 31.3744 37.9177 31.3581 38.005C31.145 38.9491 30.7449 39.8409 30.1814 40.6279C29.6865 41.3901 29.1536 42.127 28.5847 42.8357C27.3157 44.3307 26.1923 45.9432 25.2296 47.6514C24.2304 49.4941 23.9852 51.6523 24.5455 53.6721C24.8184 54.5503 25.2672 55.3638 25.8647 56.0631C26.4621 56.7623 27.1957 57.3328 28.0207 57.7397C29.0181 58.2116 30.1282 58.3931 31.224 58.2635C32.2725 58.0615 33.2585 57.6153 34.1022 56.9611C34.6081 56.6257 34.1325 55.8736 33.5957 56.0618Z" fill="url(#paint3_linear)"/>
<path d="M66.9369 39.0107C63.0875 40.1271 59.5345 42.0851 56.5353 44.7429C54.9184 46.123 53.5489 47.7685 52.4854 49.6086C51.9695 50.6493 51.3855 51.6548 50.737 52.6186C50.176 53.3834 49.5154 54.07 48.7726 54.6601C47.873 55.403 46.8374 55.9637 45.7234 56.3109C44.5178 56.7441 43.1953 56.7213 42.0054 56.2467C41.6092 56.0519 41.3394 56.681 41.7342 56.8757C42.6974 57.4127 43.7403 57.7924 44.8234 58.0004C45.9844 58.1528 47.1648 58.0463 48.2797 57.6886C50.4004 56.9354 52.1975 55.4763 53.3695 53.5559C54.623 51.6296 55.4423 49.4623 56.6472 47.5062C57.7393 45.7543 59.1168 44.1974 60.7228 42.8997C62.6159 41.4262 64.8039 40.3767 67.1383 39.8225C67.196 39.8135 67.2511 39.7927 67.3002 39.7613C67.3493 39.7299 67.3913 39.6886 67.4236 39.6401C67.4559 39.5915 67.4777 39.5368 67.4877 39.4794C67.4976 39.422 67.4955 39.3631 67.4815 39.3066C67.4675 39.25 67.4418 39.197 67.4062 39.1509C67.3705 39.1048 67.3256 39.0666 67.2744 39.0388C67.2232 39.0109 67.1667 38.9941 67.1086 38.9892C67.0505 38.9844 66.9921 38.9917 66.9369 39.0107Z" fill="url(#paint4_linear)"/>
<path d="M87.5524 40.5591C86.6291 40.636 85.7154 40.5424 84.7913 40.6187C83.8722 40.6945 82.9547 40.7938 82.0344 40.8575C80.1854 40.9858 78.3345 41.0804 76.4833 41.1682C73.0762 41.2364 69.6968 41.7954 66.4494 42.8279C65.5787 43.1287 64.7357 43.5045 63.93 43.9509C63.1019 44.4115 62.394 45.0053 61.6158 45.5372C61.26 45.7815 61.6557 46.2689 62.0125 46.0621C62.7486 45.6899 63.5231 45.3992 64.3224 45.1954C65.0984 44.9519 65.8947 44.7501 66.6905 44.5821C68.2584 44.2654 69.8469 44.0606 71.4439 43.9692C74.9227 43.7414 78.4303 43.8943 81.9014 43.559C82.9285 43.4737 83.9493 43.3249 84.958 43.1134C85.9783 42.8369 86.965 42.4487 87.9002 41.9559C88.0579 41.8866 88.1861 41.7638 88.262 41.6092C88.338 41.4546 88.3568 41.2782 88.3152 41.111C88.2735 40.9439 88.1742 40.7969 88.0346 40.6959C87.895 40.5949 87.7242 40.5464 87.5524 40.5591Z" fill="url(#paint5_linear)"/>
<path d="M48.5892 96.9686C48.2313 96.4354 47.8133 95.945 47.3433 95.5073C46.8507 95.0718 46.3489 94.6482 45.8656 94.2034C44.9856 93.3931 44.1552 92.5306 43.379 91.6204C41.8144 89.804 40.4599 87.8168 39.3412 85.6968C38.1524 83.4427 37.2231 81.0612 36.5711 78.5979C35.8259 75.7386 35.3397 72.8173 34.5705 69.9635C34.1327 68.3706 33.611 66.8019 33.0077 65.264C32.6957 64.4577 32.3449 63.6673 31.9906 62.879C31.6362 62.0908 31.1625 61.3501 30.8413 60.5449C30.8068 60.4646 30.7423 60.401 30.6615 60.3675C30.5808 60.3339 30.4902 60.3332 30.4089 60.3655C30.3276 60.3977 30.2622 60.4604 30.2264 60.5401C30.1906 60.6198 30.1874 60.7104 30.2174 60.7924C30.4992 61.5003 30.6358 62.2522 30.8544 62.9805L31.5421 65.2646C31.9769 66.7142 32.398 68.1668 32.748 69.6407C33.4595 72.6337 33.6907 75.7039 34.3184 78.7114C35.3683 83.8042 37.5801 88.5861 40.7816 92.6847C41.7066 93.8561 42.7044 94.9682 43.7692 96.0144C44.2777 96.5176 44.7965 97.0201 45.3503 97.4735C45.9438 97.9508 46.6179 98.318 47.3408 98.5577C47.5521 98.6413 47.7847 98.6544 48.0041 98.5951C48.2235 98.5359 48.4178 98.4073 48.5581 98.2287C48.6985 98.05 48.7773 97.8309 48.7829 97.6038C48.7885 97.3767 48.7205 97.1539 48.5892 96.9686Z" fill="url(#paint6_linear)"/>
<path d="M60.7171 73.0051C59.9902 72.9937 59.2847 72.758 58.6971 72.3301C58.1431 71.8302 57.6546 71.2623 57.2432 70.6398C57.0159 70.3712 56.8377 70.0647 56.7167 69.7342C56.5468 69.3415 56.4129 68.9341 56.3167 68.5171C56.1284 67.5639 56.0418 66.5935 56.0581 65.622C56.0562 63.7589 56.2168 61.8928 56.3008 60.0324C56.365 58.1879 56.5803 56.3518 56.9447 54.5425C57.1456 53.5676 57.4147 52.6079 57.75 51.6706C57.9177 51.2106 58.12 50.7651 58.2924 50.3069C58.46 49.7494 58.6759 49.2076 58.9376 48.6875C58.9867 48.6199 59.0077 48.5359 58.996 48.4532C58.9844 48.3705 58.9412 48.2955 58.8753 48.244C58.8095 48.1926 58.7263 48.1686 58.6432 48.1773C58.5601 48.1859 58.4835 48.2264 58.4297 48.2903C58.1038 48.6656 57.7153 48.9755 57.3924 49.3538C57.0432 49.7792 56.7339 50.2359 56.4685 50.718C55.9603 51.5948 55.5267 52.5127 55.1723 53.4621C54.4554 55.4618 53.9278 57.5242 53.5964 59.6224C53.485 60.2804 53.3966 60.9464 53.3241 61.616C51.7341 61.4803 50.1334 61.5446 48.5595 61.8074C46.6968 62.1433 44.8836 62.7114 43.1624 63.4983C43.0927 63.5305 43.0363 63.5859 43.003 63.6552C42.9698 63.7244 42.9617 63.803 42.9801 63.8776C42.9986 63.9521 43.0425 64.0179 43.1042 64.0636C43.1659 64.1094 43.2417 64.1322 43.3184 64.1281C46.5775 63.7239 49.8682 63.6359 53.1443 63.8653C53.1049 64.6292 53.0841 65.3928 53.0806 66.1494C52.9559 68.4207 53.5713 70.6712 54.8343 72.5634C55.5476 73.4794 56.5344 74.1441 57.6515 74.4612C58.7685 74.7782 59.9576 74.731 61.046 74.3265C61.1955 74.2611 61.317 74.145 61.389 73.9986C61.461 73.8523 61.4789 73.6853 61.4395 73.5271C61.4001 73.3688 61.306 73.2296 61.1737 73.1341C61.0415 73.0386 60.8798 72.9929 60.7171 73.0051Z" fill="url(#paint7_linear)"/>
<path d="M100.234 95.9391C98.1272 95.6261 96.0935 94.9363 94.2308 93.9028C92.3607 92.8361 90.5782 91.625 88.7426 90.502C84.649 87.8977 80.2588 85.7915 75.6652 84.2283L75.6401 84.2203C75.5768 83.3299 75.336 82.461 74.9319 81.6649C74.0609 79.5452 72.616 77.7102 70.7594 76.3657C69.783 75.6687 68.7201 75.1014 67.5974 74.6782C66.4376 74.2973 65.2439 74.0282 64.0327 73.8746C63.9464 73.8615 63.8584 73.8831 63.7881 73.9348C63.7178 73.9865 63.6709 74.064 63.6578 74.1503C63.6447 74.2365 63.6664 74.3245 63.7181 74.3947C63.7698 74.465 63.8473 74.5119 63.9336 74.525C64.9966 74.7797 66.0047 75.2244 66.9092 75.8378C67.7859 76.3888 68.5916 77.0454 69.308 77.7929C70.7922 79.2969 71.9411 81.0978 72.6792 83.0773L72.8267 83.5543C72.4072 83.5098 71.985 83.4873 71.5631 83.4597C70.1918 83.4484 68.8222 83.5604 67.471 83.7945C67.3828 83.8069 67.3029 83.8531 67.2483 83.9233C67.1936 83.9936 67.1684 84.0823 67.1781 84.1708C67.1878 84.2593 67.2315 84.3405 67.3001 84.3973C67.3687 84.4541 67.4567 84.4819 67.5454 84.475C68.7931 84.4499 70.031 84.7001 71.1709 85.2077C72.3071 85.6048 73.406 86.1467 74.5261 86.5969C76.7532 87.4926 78.9484 88.4458 81.1121 89.4854C83.1939 90.4859 85.2194 91.5941 87.1946 92.7907C89.0533 93.9961 91.017 95.0311 93.062 95.8833C95.2989 96.9021 97.7568 97.3403 100.208 97.1573C100.354 97.1376 100.488 97.0665 100.586 96.9569C100.684 96.8473 100.739 96.7063 100.742 96.5594C100.745 96.4125 100.696 96.2693 100.603 96.1556C100.51 96.0419 100.379 95.9651 100.234 95.9391Z" fill="url(#paint8_linear)"/>
<path d="M99.098 91.9917C97.6421 90.8545 96.5905 89.2796 96.0986 87.4994C95.4057 85.2603 94.8941 82.9691 94.5689 80.648C94.1311 78.0152 93.7978 75.3608 93.5887 72.6998C93.3994 70.288 93.2541 67.8781 92.8671 65.4868C92.6603 64.1321 92.3511 62.7949 91.9422 61.4868C91.7424 60.8787 91.5035 60.2841 91.2272 59.7068C90.9018 59.0984 90.5129 58.5262 90.067 57.9998C90.0189 57.9401 89.9512 57.8993 89.8759 57.8848C89.8005 57.8702 89.7225 57.8829 89.6556 57.9205C89.5888 57.958 89.5374 58.0181 89.5107 58.09C89.484 58.1619 89.4837 58.2409 89.5098 58.313C89.7066 58.8679 89.7955 59.4393 89.9646 60.0005C90.1225 60.5237 90.2621 61.0467 90.3836 61.5779L89.7657 61.225C88.6894 60.6446 87.6622 60.166 87.3732 58.9234C87.1701 57.2991 87.4214 55.6503 88.0992 54.16C88.7415 52.5003 89.2657 50.7973 89.668 49.0637C89.8606 48.0771 89.9486 47.0728 89.9304 46.0677C89.9316 45.545 89.8858 45.0232 89.7936 44.5087C89.6863 43.9584 89.4981 43.4147 89.4151 42.8619C89.3538 42.4517 88.7124 42.5214 88.774 42.9319C88.839 43.9008 88.7891 44.874 88.6254 45.8311C88.5333 46.7355 88.3803 47.6327 88.1673 48.5164C87.634 50.2413 86.9384 51.9118 86.0898 53.5055C84.7591 56.4783 84.0036 60.7808 87.5273 62.5488C88.1452 62.8584 88.8055 63.0764 89.4154 63.4016C89.6559 63.5341 89.8812 63.6923 90.0875 63.8734L90.5754 64.2137L90.6383 64.255L90.7587 64.4171L90.8564 64.5189L90.9412 65.4989C91.1202 68.0173 91.063 70.5462 91.2335 73.066C91.4166 75.8041 91.7424 78.5308 92.2096 81.2349C92.534 83.6637 93.0986 86.0544 93.8949 88.3719C94.2809 89.4646 94.8736 90.473 95.6408 91.3419C96.0423 91.7755 96.4995 92.1542 97.0005 92.4679C97.5134 92.7511 98.0752 92.9351 98.6563 93.0103C98.7805 93.0259 98.9064 93.0008 99.0151 92.9388C99.1238 92.8769 99.2095 92.7813 99.2592 92.6665C99.309 92.5518 99.3202 92.4239 99.2911 92.3023C99.262 92.1806 99.1943 92.0716 99.098 91.9917Z" fill="url(#paint9_linear)"/>
<path d="M111.591 101.161C111.226 98.9567 110.705 96.7823 110.129 94.6241C108.983 90.3324 107.462 86.1538 105.93 81.9879C104.391 77.8076 102.802 73.6336 101.57 69.3502C100.32 65.0047 99.5023 60.5547 98.4452 56.1616C97.5074 51.1969 95.8835 46.3867 93.62 41.8691C93.3992 41.4805 92.8538 41.8571 92.9715 42.234C93.6474 44.3947 94.3583 46.5456 94.9401 48.7342C95.5032 50.8525 95.9649 52.9977 96.3882 55.148C97.158 59.0562 97.8763 62.9703 98.8001 66.846C98.2323 66.7422 97.6531 66.7152 97.0781 66.7655C96.1402 66.8934 95.2795 67.3535 94.6522 68.062C94.4114 68.3081 94.6897 68.7436 95.008 68.6984C96.4199 68.461 97.8697 68.6055 99.207 69.1169L99.386 69.1757C101.575 77.4256 105.049 85.2566 107.404 93.4545C108.072 95.7503 108.599 98.0849 108.981 100.445C109.168 101.625 109.315 102.811 109.415 104.001C109.52 105.264 109.539 106.534 109.758 107.783C109.796 108.049 109.926 108.292 110.127 108.471C110.328 108.649 110.586 108.75 110.854 108.755C111.122 108.761 111.384 108.671 111.592 108.501C111.8 108.332 111.941 108.094 111.99 107.83C112.209 105.6 112.074 103.349 111.591 101.161Z" fill="url(#paint10_linear)"/>
<path d="M107.132 107.482C103.584 107.72 100.024 107.743 96.4734 107.551C92.905 107.231 89.3675 106.629 85.8942 105.751C78.8839 103.89 72.0133 101.539 65.3332 98.7141L64.1823 98.2491C63.5878 97.8736 62.9468 97.5773 62.2755 97.3676C61.8847 97.2444 61.4865 97.1456 61.0833 97.0719C58.8021 96.2022 56.3615 95.8292 53.9245 95.9779C53.6235 96.0053 53.6575 96.4021 53.9141 96.4724C54.8817 96.7363 55.8296 97.0495 56.7671 97.3947C56.2375 97.6044 55.7419 97.8916 55.2966 98.2467C54.3157 98.9912 53.2831 99.6652 52.2066 100.264C51.6938 100.57 52.1817 101.345 52.7068 101.152C53.6841 100.712 54.7005 100.364 55.7426 100.113C56.7346 99.9547 57.7145 99.6686 58.7185 99.5702C59.7085 99.5249 60.6988 99.65 61.6464 99.9399C62.2931 100.119 62.9497 100.261 63.6128 100.364L63.783 100.442C66.4251 101.663 69.0775 102.886 71.7734 103.989C72.0534 104.387 72.2972 104.809 72.5018 105.251L73.1728 106.705C73.4191 107.241 73.5901 107.983 74.1191 108.307C74.2163 108.38 74.3286 108.43 74.4478 108.454C74.567 108.477 74.6901 108.474 74.8078 108.444C74.9256 108.414 75.0352 108.358 75.1284 108.28C75.2217 108.202 75.2962 108.104 75.3466 107.994C75.4321 107.652 75.4451 107.297 75.3848 106.95C75.3245 106.604 75.1921 106.274 74.9964 105.981C74.8406 105.653 74.6602 105.337 74.4567 105.036C81.0933 107.638 88.0368 109.378 95.1167 110.212C97.147 110.416 99.1866 110.513 101.227 110.503C103.3 110.537 105.37 110.34 107.399 109.915C107.712 109.869 107.996 109.703 108.189 109.452C108.383 109.201 108.471 108.885 108.437 108.57C108.402 108.255 108.247 107.966 108.004 107.763C107.76 107.56 107.448 107.459 107.132 107.482Z" fill="url(#paint11_linear)"/>
<path d="M36.0395 87.8303C34.7091 87.4486 33.3277 87.275 31.9442 87.3155C30.5112 87.265 29.0785 87.2482 27.6461 87.2652C24.8344 87.2983 22.0364 87.502 19.239 87.7868C16.4415 88.0715 13.6673 88.493 10.9033 88.9998C8.33199 89.3331 5.83822 90.1105 3.53326 91.2973C2.44929 91.908 1.53431 92.7786 0.870718 93.8308C0.543622 94.3654 0.29161 94.9424 0.121759 95.5457C0.0164397 96.1504 -0.0207337 96.7651 0.0109342 97.3782C-0.00384249 97.7745 0.591603 97.8855 0.635386 97.4731C0.863362 96.4595 1.39847 95.5408 2.16778 94.8422C2.85494 94.1274 3.65532 93.5309 4.5367 93.0764C6.71934 92.1659 9.03207 91.6055 11.3895 91.4157C16.6194 90.6499 21.8788 90.2095 27.1494 89.8468C28.6202 89.7456 30.093 89.6685 31.5652 89.5911C33.0637 89.6209 34.5601 89.4639 36.0198 89.1237C36.1462 89.0703 36.2543 88.9814 36.331 88.8677C36.4076 88.754 36.4496 88.6205 36.4517 88.4834C36.4538 88.3463 36.4159 88.2115 36.3427 88.0956C36.2695 87.9796 36.1642 87.8874 36.0395 87.8303Z" fill="url(#paint12_linear)"/>
<path d="M45.7767 98.8048C44.8526 97.7843 43.7302 96.9627 42.478 96.3899C41.3452 95.7737 40.166 95.247 38.951 94.8148C36.4409 93.9443 33.8447 93.3454 31.2069 93.0283C25.6299 92.409 19.986 92.8431 14.5695 94.308C13.0371 94.7076 11.532 95.1737 10.0368 95.6974C8.46586 96.2483 6.97205 96.9465 5.43199 97.5707C5.03466 97.7315 5.17285 98.4322 5.6208 98.331C6.9778 98.0239 8.36407 97.8467 9.72927 97.5811C11.1049 97.3133 12.4876 97.0811 13.8692 96.8486C16.569 96.3941 19.2936 96.0554 22.0237 95.849C27.007 95.3877 32.0325 95.8775 36.8327 97.2923C38.187 97.7154 39.5172 98.2122 40.8172 98.7804C42.0893 99.4499 43.4074 100.028 44.7615 100.511C45.6848 100.771 46.3161 99.4855 45.7767 98.8048Z" fill="url(#paint13_linear)"/>
<path d="M75.4925 110.289C74.1965 110.092 72.9294 109.737 71.7193 109.233C71.0839 108.96 70.4276 108.739 69.7567 108.572C69.079 108.409 68.3708 108.424 67.7006 108.615C67.5846 108.633 67.48 108.695 67.4085 108.788C67.3371 108.881 67.3044 108.998 67.3172 109.115C67.3299 109.232 67.3872 109.339 67.4771 109.414C67.567 109.49 67.6825 109.527 67.7996 109.52C68.5321 109.649 69.2254 109.944 69.8265 110.382C70.4841 110.759 71.1656 111.092 71.8668 111.379C72.4767 111.73 73.1817 111.88 73.8817 111.807C74.5816 111.735 75.241 111.444 75.7662 110.976C75.8111 110.917 75.84 110.847 75.8501 110.773C75.8601 110.699 75.8509 110.624 75.8233 110.555C75.7958 110.486 75.7509 110.425 75.6929 110.379C75.635 110.332 75.5659 110.301 75.4925 110.289Z" fill="url(#paint14_linear)"/>
<path d="M42.2651 74.5893C42.0782 73.4918 41.788 72.4144 41.3984 71.3715C41.0884 70.3718 40.7488 69.3806 40.4213 68.3864C39.7418 66.325 39.1078 64.2488 38.4669 62.1753C38.3066 61.6575 37.5622 61.9767 37.695 62.4816C38.2455 64.5772 38.8051 66.6701 39.3179 68.7753C39.5623 69.7783 39.7957 70.7848 40.0568 71.7839C40.2702 72.8515 40.5843 73.8965 40.9948 74.9049C41.0576 75.0485 41.1692 75.1652 41.3099 75.2344C41.4505 75.3036 41.6111 75.3209 41.7632 75.2831C41.9154 75.2453 42.0492 75.1549 42.1411 75.0279C42.2329 74.9009 42.2768 74.7455 42.2651 74.5893Z" fill="url(#paint15_linear)"/>
<path d="M46.6319 81.5237C46.236 80.9422 45.7506 80.4269 45.1939 79.9967C44.6632 79.4923 44.2068 78.9152 43.8383 78.2826C43.6292 77.9014 43.011 78.1139 43.1897 78.54C43.4674 79.2657 43.7924 79.9724 44.1625 80.6556C44.4795 81.3917 45.022 82.0082 45.7119 82.4165C46.2258 82.6361 46.9132 82.0789 46.6319 81.5237Z" fill="url(#paint16_linear)"/>
<path d="M57.8345 76.4178C55.8842 79.4496 55.0017 83.5334 51.5897 85.3804C49.9338 86.1213 48.1402 86.505 46.3259 86.5064C45.4909 86.5695 44.6516 86.5459 43.8215 86.4358C42.9656 86.3762 42.1375 86.1071 41.4102 85.6522C41.0837 85.3998 40.5926 85.8437 40.8791 86.1741C41.3072 86.7436 41.821 87.2434 42.4022 87.6557C43.0961 88.0715 43.8502 88.3776 44.6378 88.5629C46.2807 88.9718 47.9869 89.061 49.6635 88.8257C51.4022 88.5679 53.0422 87.8566 54.4183 86.7636C55.7945 85.6706 56.8582 84.2345 57.5023 82.5999C58.3246 80.7376 58.7694 78.7308 58.8108 76.6956C58.7969 76.5886 58.7519 76.488 58.6814 76.4063C58.6109 76.3246 58.518 76.2653 58.4141 76.2357C58.3103 76.2062 58.2 76.2077 58.097 76.24C57.994 76.2724 57.9028 76.3341 57.8345 76.4178Z" fill="url(#paint17_linear)"/>
<path d="M53.0445 38.6654C52.0333 39.1495 51.0566 39.7027 50.1215 40.321C49.1519 40.9069 48.1947 41.5075 47.2416 42.1199C45.495 43.2412 43.8129 44.4915 42.0123 45.5261C40.4582 46.5687 38.5842 47.0259 36.7242 46.8163C35.902 46.6313 35.1292 46.2714 34.4587 45.761C33.7882 45.2507 33.2356 44.6019 32.8385 43.8588C32.5525 43.3682 31.7494 43.8345 31.9721 44.3459C32.5155 45.6937 33.3959 46.8795 34.529 47.7897C35.2079 48.2716 35.9771 48.6114 36.7906 48.7888C37.6041 48.9661 38.4451 48.9773 39.2631 48.8216C40.9869 48.4657 42.6205 47.7633 44.0644 46.7569C45.6209 45.7521 47.1426 44.6862 48.655 43.6168C49.515 43.0089 50.3659 42.3897 51.2078 41.7594C52.1186 41.1249 52.9849 40.4288 53.8006 39.6761C54.2751 39.2075 53.6055 38.425 53.0445 38.6654Z" fill="url(#paint18_linear)"/>
<path d="M65.2411 106.983C64.237 106.49 63.1817 106.109 62.0942 105.848C61.0425 105.545 59.9821 105.275 58.9131 105.038C56.7615 104.554 54.5768 104.231 52.3772 104.072C49.2199 103.899 46.0547 103.934 42.902 104.175L42.5301 103.856C42.2568 103.639 42.0267 103.373 41.8515 103.071C41.5099 102.515 41.3177 101.88 41.2935 101.228C41.302 101.176 41.2992 101.124 41.2853 101.074C41.2715 101.024 41.247 100.977 41.2134 100.937C41.1799 100.898 41.1381 100.866 41.091 100.843C41.0439 100.821 40.9926 100.81 40.9405 100.809C40.9171 100.783 40.888 100.763 40.8556 100.75C40.8232 100.737 40.7882 100.732 40.7534 100.735C40.7186 100.737 40.6848 100.748 40.6547 100.766C40.6246 100.783 40.5989 100.808 40.5796 100.837L40.306 101.181L39.9976 101.498C39.8769 101.622 40.0233 101.819 40.167 101.809C40.0971 101.977 40.0518 102.153 40.0323 102.334C39.9935 102.859 40.0741 103.385 40.2679 103.875L40.4734 104.326L38.7615 104.428C34.2227 104.679 29.6803 104.836 25.1341 104.9C21.3254 105.042 17.5114 104.917 13.7202 104.525C11.7699 104.304 9.84267 103.913 7.96035 103.357C6.0065 102.856 4.14511 102.047 2.44646 100.96C2.12603 100.733 1.61979 101.157 1.92462 101.473C3.13846 102.799 4.53433 103.947 6.07058 104.882C7.71086 105.767 9.47163 106.408 11.2971 106.784C14.9887 107.487 18.7466 107.78 22.5025 107.659C27.1251 107.655 31.7462 107.553 36.3658 107.354C40.9219 107.157 45.4846 106.676 50.0479 106.724C52.4973 106.752 54.9497 106.889 57.3862 107.143C58.6083 107.272 59.8265 107.435 61.0379 107.64C62.3033 107.918 63.5819 108.132 64.8689 108.28C65.0303 108.3 65.1933 108.261 65.3287 108.171C65.4641 108.081 65.563 107.946 65.6078 107.79C65.6526 107.634 65.6403 107.467 65.5731 107.319C65.5059 107.171 65.3882 107.052 65.2411 106.983Z" fill="url(#paint19_linear)"/>
<path d="M59.7182 10.2119C59.3229 8.45527 58.5358 6.81051 57.4155 5.40044C56.2953 3.99037 54.8709 2.85141 53.2487 2.06857C51.6264 1.28572 49.8482 0.879218 48.0468 0.879395C46.2453 0.879571 44.4672 1.28642 42.8451 2.06959C41.2456 3.11763 39.9391 4.55501 39.0483 6.24661C38.153 7.80724 37.5258 9.50686 37.1928 11.2748C36.8025 13.2296 36.8273 15.2445 37.2655 17.1891C37.6126 19.1558 38.4397 21.0066 39.6736 22.5773C39.735 22.6531 39.8213 22.7048 39.9172 22.7231C40.013 22.7414 40.1123 22.7252 40.1974 22.6774C40.2825 22.6295 40.3478 22.5531 40.3819 22.4617C40.416 22.3703 40.4167 22.2698 40.3837 22.1779C40.15 21.4209 39.8282 20.6958 39.6066 19.9322C39.3922 19.1825 39.2408 18.4163 39.1539 17.6415C39.1074 17.2392 39.0776 16.8371 39.0615 16.4354C39.2867 16.0705 39.4971 15.6969 39.7587 15.3512C40.1473 14.8544 40.6053 14.4161 41.1187 14.0495C42.4401 13.2378 43.8175 12.521 45.2406 11.9044C47.7822 10.5369 50.2605 8.40514 49.7598 5.22451C49.6922 4.79647 49.0198 4.7404 48.9698 5.20673C48.9309 5.94152 48.7341 6.65932 48.3928 7.31129C48.0515 7.96325 47.5737 8.5341 46.9919 8.98498C45.7672 9.783 44.4487 10.427 43.0662 10.9023C41.6607 11.4303 40.3565 12.1959 39.2106 13.1658L39.2079 13.1675L39.2281 12.999C39.5332 9.92293 40.8987 7.04855 43.0908 4.86812C44.2623 3.99763 45.6474 3.45974 47.0996 3.31136C48.5518 3.16298 50.0171 3.40961 51.3406 4.02517C52.6787 4.50907 53.887 5.29502 54.8715 6.32187C55.856 7.34872 56.5903 8.58877 57.017 9.94554C57.5125 11.7309 57.6067 13.6036 57.2931 15.4297L57.2409 15.2888C56.9719 14.5874 56.5573 13.9509 56.0243 13.4213C55.4913 12.8918 54.8521 12.4811 54.1487 12.2165C53.4964 11.9722 52.9352 11.5329 52.5416 10.9583C52.1443 10.3344 51.8543 9.64831 51.6835 8.92864C51.5877 8.54764 50.9591 8.71256 51.0152 9.09438C51.0192 10.3986 51.4254 11.6699 52.1785 12.7351C53.0851 13.7347 54.6046 14.0091 55.2794 15.2171C55.5713 15.8054 55.7894 16.4274 55.9288 17.0691C56.1391 17.8053 56.3008 18.5545 56.4128 19.3118L56.4572 19.7563C56.3302 20.3706 56.2109 20.983 56.1143 21.5935C56.0963 21.6997 56.0963 21.8083 56.1143 21.9146C55.8684 22.3396 55.6667 22.7887 55.5123 23.2547C55.498 23.3535 55.5064 23.4541 55.5369 23.5491C55.5674 23.6441 55.6191 23.7309 55.6882 23.8029C55.7572 23.8749 55.8418 23.9302 55.9355 23.9647C56.0291 23.9991 56.1294 24.0118 56.2287 24.0017C56.7757 23.802 57.2505 23.4437 57.5925 22.9726C57.9344 22.5015 58.1279 21.9391 58.148 21.3574C58.8923 19.7263 59.4152 18.0031 59.7028 16.2335C60.1015 14.2466 60.1067 12.2008 59.7182 10.2119Z" fill="url(#paint20_linear)"/>
<path d="M54.0619 16.5065C53.6784 16.4591 53.2977 16.3913 52.9214 16.3035C52.5745 16.2906 52.2272 16.2997 51.8815 16.3309C51.5603 16.3478 51.2371 16.3361 50.917 16.3714C50.5166 16.4151 50.1707 16.5959 49.7794 16.6599C49.7113 16.6692 49.648 16.7004 49.5991 16.7487C49.5501 16.7969 49.5182 16.8598 49.5079 16.9277C49.4977 16.9957 49.5098 17.0652 49.5423 17.1257C49.5749 17.1862 49.6262 17.2346 49.6886 17.2635C50.0356 17.4602 50.4019 17.6207 50.7818 17.7425C51.1619 17.8017 51.5478 17.8147 51.9311 17.781C52.3163 17.7788 52.6992 17.7215 53.0681 17.6106C53.4999 17.4646 53.7689 17.152 54.1758 16.9736C54.2285 16.9507 54.2715 16.9099 54.2971 16.8584C54.3227 16.8069 54.3292 16.748 54.3156 16.6921C54.302 16.6363 54.2691 16.587 54.2227 16.553C54.1763 16.5191 54.1193 16.5026 54.0619 16.5065Z" fill="url(#paint21_linear)"/>
<path d="M40.1175 16.5065C40.5011 16.4591 40.8818 16.3913 41.2581 16.3035C41.6049 16.2906 41.9522 16.2997 42.2979 16.3309C42.6192 16.3478 42.9424 16.3361 43.2625 16.3714C43.6629 16.4151 44.0087 16.5959 44.4 16.6599C44.4682 16.6692 44.5314 16.7004 44.5804 16.7487C44.6293 16.7969 44.6613 16.8598 44.6715 16.9277C44.6818 16.9957 44.6697 17.0652 44.6371 17.1257C44.6046 17.1862 44.5533 17.2346 44.4909 17.2635C44.1439 17.4602 43.7776 17.6207 43.3977 17.7425C43.0176 17.8017 42.6317 17.8147 42.2484 17.781C41.8632 17.7788 41.4803 17.7215 41.1114 17.6106C40.6796 17.4646 40.4106 17.152 40.0037 16.9736C39.951 16.9507 39.908 16.9099 39.8824 16.8584C39.8568 16.8069 39.8503 16.748 39.8639 16.6921C39.8775 16.6363 39.9104 16.587 39.9568 16.553C40.0032 16.5191 40.0602 16.5026 40.1175 16.5065Z" fill="url(#paint22_linear)"/>
<defs>
<linearGradient id="paint0_linear" x1="47.1811" y1="25.6558" x2="45.5156" y2="33.5361" gradientUnits="userSpaceOnUse">
<stop stop-color="#2DB7E6"/>
<stop offset="0.69382" stop-color="#38EBCB"/>
</linearGradient>
<linearGradient id="paint1_linear" x1="88.8287" y1="26.7689" x2="75.7801" y2="46.0891" gradientUnits="userSpaceOnUse">
<stop stop-color="#2DB7E6"/>
<stop offset="0.69382" stop-color="#38EBCB"/>
</linearGradient>
<linearGradient id="paint2_linear" x1="72.9904" y1="32.0315" x2="69.1777" y2="48.2357" gradientUnits="userSpaceOnUse">
<stop stop-color="#2DB7E6"/>
<stop offset="0.69382" stop-color="#38EBCB"/>
</linearGradient>
<linearGradient id="paint3_linear" x1="31.3567" y1="41.4297" x2="22.6859" y2="44.0424" gradientUnits="userSpaceOnUse">
<stop stop-color="#2DB7E6"/>
<stop offset="0.69382" stop-color="#38EBCB"/>
</linearGradient>
<linearGradient id="paint4_linear" x1="59.8606" y1="42.4222" x2="45.5337" y2="54.4262" gradientUnits="userSpaceOnUse">
<stop stop-color="#2DB7E6"/>
<stop offset="0.69382" stop-color="#38EBCB"/>
</linearGradient>
<linearGradient id="paint5_linear" x1="80.4367" y1="41.557" x2="77.8801" y2="49.1717" gradientUnits="userSpaceOnUse">
<stop stop-color="#2DB7E6"/>
<stop offset="0.69382" stop-color="#38EBCB"/>
</linearGradient>
<linearGradient id="paint6_linear" x1="43.3167" y1="67.234" x2="27.2869" y2="72.0269" gradientUnits="userSpaceOnUse">
<stop stop-color="#2DB7E6"/>
<stop offset="0.69382" stop-color="#38EBCB"/>
</linearGradient>
<linearGradient id="paint7_linear" x1="56.0218" y1="52.9443" x2="41.3595" y2="59.2475" gradientUnits="userSpaceOnUse">
<stop stop-color="#2DB7E6"/>
<stop offset="0.69382" stop-color="#38EBCB"/>
</linearGradient>
<linearGradient id="paint8_linear" x1="89.8341" y1="78.0697" x2="72.0473" y2="95.4893" gradientUnits="userSpaceOnUse">
<stop stop-color="#2DB7E6"/>
<stop offset="0.69382" stop-color="#38EBCB"/>
</linearGradient>
<linearGradient id="paint9_linear" x1="95.0928" y1="51.6639" x2="82.0309" y2="53.95" gradientUnits="userSpaceOnUse">
<stop stop-color="#2DB7E6"/>
<stop offset="0.69382" stop-color="#38EBCB"/>
</linearGradient>
<linearGradient id="paint10_linear" x1="106.463" y1="53.7744" x2="89.0223" y2="56.8406" gradientUnits="userSpaceOnUse">
<stop stop-color="#2DB7E6"/>
<stop offset="0.69382" stop-color="#38EBCB"/>
</linearGradient>
<linearGradient id="paint11_linear" x1="91.8397" y1="98.567" x2="83.9274" y2="117.464" gradientUnits="userSpaceOnUse">
<stop stop-color="#2DB7E6"/>
<stop offset="0.69382" stop-color="#38EBCB"/>
</linearGradient>
<linearGradient id="paint12_linear" x1="25.7306" y1="89.1443" x2="19.609" y2="102.266" gradientUnits="userSpaceOnUse">
<stop stop-color="#2DB7E6"/>
<stop offset="0.69382" stop-color="#38EBCB"/>
</linearGradient>
<linearGradient id="paint13_linear" x1="33.9821" y1="94.1569" x2="30.6199" y2="104.997" gradientUnits="userSpaceOnUse">
<stop stop-color="#2DB7E6"/>
<stop offset="0.69382" stop-color="#38EBCB"/>
</linearGradient>
<linearGradient id="paint14_linear" x1="73.3424" y1="109.066" x2="71.0121" y2="112.708" gradientUnits="userSpaceOnUse">
<stop stop-color="#2DB7E6"/>
<stop offset="0.69382" stop-color="#38EBCB"/>
</linearGradient>
<linearGradient id="paint15_linear" x1="40.9176" y1="64.3216" x2="36.7909" y2="65.1924" gradientUnits="userSpaceOnUse">
<stop stop-color="#2DB7E6"/>
<stop offset="0.69382" stop-color="#38EBCB"/>
</linearGradient>
<linearGradient id="paint16_linear" x1="45.6562" y1="78.8727" x2="42.9906" y2="80.199" gradientUnits="userSpaceOnUse">
<stop stop-color="#2DB7E6"/>
<stop offset="0.69382" stop-color="#38EBCB"/>
</linearGradient>
<linearGradient id="paint17_linear" x1="53.5114" y1="78.5077" x2="43.8872" y2="86.8924" gradientUnits="userSpaceOnUse">
<stop stop-color="#2DB7E6"/>
<stop offset="0.69382" stop-color="#38EBCB"/>
</linearGradient>
<linearGradient id="paint18_linear" x1="47.4829" y1="40.4764" x2="39.9074" y2="50.4464" gradientUnits="userSpaceOnUse">
<stop stop-color="#2DB7E6"/>
<stop offset="0.69382" stop-color="#38EBCB"/>
</linearGradient>
<linearGradient id="paint19_linear" x1="46.8685" y1="102.093" x2="44.7342" y2="113.201" gradientUnits="userSpaceOnUse">
<stop stop-color="#2DB7E6"/>
<stop offset="0.69382" stop-color="#38EBCB"/>
</linearGradient>
<linearGradient id="paint20_linear" x1="53.2151" y1="5.04202" x2="37.475" y2="14.7219" gradientUnits="userSpaceOnUse">
<stop stop-color="#2DB7E6"/>
<stop offset="0.69382" stop-color="#38EBCB"/>
</linearGradient>
<linearGradient id="paint21_linear" x1="52.9054" y1="16.5681" x2="51.983" y2="18.3916" gradientUnits="userSpaceOnUse">
<stop stop-color="#2DB7E6"/>
<stop offset="0.69382" stop-color="#38EBCB"/>
</linearGradient>
<linearGradient id="paint22_linear" x1="43.258" y1="16.5681" x2="42.3355" y2="18.3916" gradientUnits="userSpaceOnUse">
<stop stop-color="#2DB7E6"/>
<stop offset="0.69382" stop-color="#38EBCB"/>
</linearGradient>
</defs>
</svg>
