<svg width="137" height="112" viewBox="0 0 137 112" fill="none" xmlns="http://www.w3.org/2000/svg">
<path d="M36.5482 22.6396C35.7815 21.7319 34.7567 21.0788 33.6099 20.767C33.1784 20.6493 32.7318 20.5965 32.2847 20.6103C32.0626 18.7629 31.475 16.9781 30.5562 15.3598C29.3112 13.4792 27.6221 11.9339 25.6381 10.8604C23.654 9.78685 21.436 9.21806 19.18 9.20425C14.4666 8.87796 9.80365 10.342 6.12354 13.3035C4.24433 14.8379 2.8103 16.8471 1.97032 19.1226C1.13034 21.398 0.915043 23.8566 1.34678 26.2433C1.36115 26.3408 1.41276 26.4289 1.49078 26.4892C1.56879 26.5494 1.66714 26.5771 1.76514 26.5664C1.86315 26.5557 1.95319 26.5074 2.01634 26.4318C2.07949 26.3561 2.11085 26.2589 2.10381 26.1606C2.05938 24.2646 2.44525 22.3831 3.23245 20.6574C4.01964 18.9317 5.18772 17.4067 6.64899 16.1968C9.73295 13.7516 13.5877 12.4847 17.5218 12.6236C19.2835 12.5026 21.0498 12.7813 22.6886 13.4389C24.3274 14.0964 25.7962 15.1159 26.9852 16.4209C28.7129 18.9937 29.6215 22.0287 29.5916 25.1271L29.5478 25.1968L29.299 25.3512L29.1335 25.4161L28.5962 25.5999C28.117 25.7958 27.6069 25.9055 27.0895 25.9238C25.6812 25.838 24.2899 25.5709 22.95 25.1289C20.3093 24.5655 17.7797 23.5708 15.4627 22.1849C15.1069 21.9461 14.5681 22.3803 14.8895 22.7481C16.9161 25.4086 19.6579 27.4382 22.7949 28.6001C24.5332 29.2823 26.4126 29.5266 28.2676 29.3115C28.6353 29.2388 28.9928 29.1223 29.3328 28.9647C28.8634 32.1973 27.2924 35.1689 24.8849 37.3778C24.7442 37.4921 24.6533 37.6565 24.6315 37.8364C24.6096 38.0163 24.6585 38.1976 24.7678 38.3422C24.877 38.4868 25.0382 38.5834 25.2173 38.6116C25.3964 38.6398 25.5794 38.5974 25.7279 38.4934C27.435 37.3767 28.8764 35.8992 29.9502 34.1652C31.024 32.4312 31.7042 30.4829 31.9428 28.4576C32.2113 27.0328 32.3767 25.5905 32.4377 24.142L32.6797 24.1772L33.0815 24.3533C33.5564 24.591 33.9505 24.9635 34.2145 25.4241C34.4783 25.881 34.6791 26.3714 34.8114 26.882C34.9876 27.6104 35.0714 28.358 35.0608 29.1073C35.0435 30.5165 34.7525 31.909 34.2041 33.2074C33.9578 33.8495 33.5578 34.4214 33.0391 34.8731C32.7405 35.1197 32.4081 35.3138 32.0946 35.5391C31.7492 35.7871 31.4799 36.1372 31.0179 36.1558C30.5251 36.1757 30.6164 36.9232 31.1007 36.9125C31.6205 36.9009 32.0934 37.1538 32.6201 37.1283C33.1269 37.089 33.6188 36.9384 34.0606 36.6873C35.041 36.1638 35.8531 35.3737 36.4032 34.4084C37.4625 32.652 38.1123 30.6796 38.3042 28.6378C38.5331 26.4852 37.902 24.3293 36.5482 22.6396Z" fill="url(#paint0_linear)"/>
<path d="M112.447 15.3584C111.107 12.5594 107.64 12.7485 105.042 13.3205C101.271 14.1504 97.5394 15.2259 93.7981 16.1836C86.4016 17.6271 79.2321 20.0557 72.4816 23.4043C69.3055 25.2123 66.234 27.1684 62.9286 28.7392C59.6775 30.2931 56.3431 31.6666 52.9407 32.8536C49.5657 34.0212 46.131 35.0086 42.6512 35.8118C39.3605 36.3442 36.1107 37.1039 32.9251 38.0854C31.1862 38.7124 29.6231 39.7471 28.3668 41.1026C27.1788 42.6073 26.2389 44.292 25.5824 46.0931C24.7053 48.171 23.7982 50.2403 23.083 52.3811C22.3613 54.5421 21.6778 56.7059 20.8172 58.8177C20.781 58.9133 20.7831 59.0191 20.823 59.1132C20.8629 59.2073 20.9375 59.2824 21.0314 59.3229C21.1253 59.3634 21.2311 59.3662 21.327 59.3307C21.4229 59.2951 21.5014 59.224 21.5461 59.1321C22.4223 57.3778 23.4175 55.7027 24.4037 54.01C25.39 52.3174 26.2908 50.5987 27.1463 48.8385C28.1565 45.8378 30.0039 43.1883 32.4708 41.2024C35.2295 39.9135 38.1863 39.0998 41.2163 38.7955C44.619 38.1148 47.9762 37.224 51.2686 36.1281C57.8868 33.8783 64.2436 30.9229 70.2289 27.313C73.1995 25.4086 76.3467 23.7947 79.627 22.4936C83.0415 21.2597 86.5833 20.4378 90.0918 19.5241L102.434 16.3131C105.11 15.6157 108.745 14.2129 111.139 16.338C111.287 16.4476 111.465 16.5067 111.649 16.5064C111.833 16.5061 112.012 16.4464 112.159 16.3362C112.306 16.2261 112.414 16.0714 112.466 15.8952C112.518 15.719 112.511 15.5307 112.447 15.3584Z" fill="url(#paint1_linear)"/>
<path d="M43.7405 47.5698C41.5294 48.3342 39.5647 49.679 38.0522 51.4631C37.3054 52.2145 36.7189 53.1096 36.3284 54.0941C35.9379 55.0787 35.7514 56.1323 35.7802 57.191C35.7956 57.3031 35.847 57.4072 35.9265 57.4876C36.0061 57.5681 36.1096 57.6206 36.2215 57.6373C36.3335 57.654 36.4478 57.634 36.5474 57.5802C36.647 57.5265 36.7265 57.4419 36.7739 57.3392C37.4359 55.5621 38.49 53.9568 39.8578 52.6427C41.3565 51.2201 43.2317 50.293 44.6346 48.7625C45.2006 48.146 44.4036 47.3739 43.7405 47.5698Z" fill="url(#paint2_linear)"/>
<path d="M100.578 22.0891C98.8918 21.9104 97.189 22.2127 95.6671 22.961C94.0841 23.6295 92.5766 24.464 91.1699 25.4507C88.2411 27.4391 85.444 29.5778 82.4256 31.4376C76.1435 35.2334 69.5579 38.503 62.7362 41.2129C58.8608 42.7923 54.9396 44.29 51.0977 45.9467C50.8276 46.0632 50.9151 46.5478 51.2288 46.4746C54.8334 45.6329 58.398 44.5831 61.9421 43.5167C65.4536 42.4736 68.9072 41.2448 72.2882 39.8353C75.6725 38.397 78.9427 36.704 82.0707 34.771C85.1777 32.8614 87.791 30.3946 90.6836 28.2044C92.1447 27.0451 93.7119 26.0261 95.3643 25.1608C96.2086 24.7365 97.0901 24.3908 97.9978 24.1279C98.9043 23.8718 99.8431 23.822 100.745 23.552C101.53 23.3203 101.252 22.2379 100.578 22.0891Z" fill="url(#paint3_linear)"/>
<path d="M56.7343 86.0042C56.027 85.0315 54.9014 84.8463 53.8621 84.4017C52.9474 84.0019 52.104 83.4556 51.3653 82.7843C49.8309 81.3681 48.59 79.6642 47.7133 77.7695C45.491 73.1351 44.4472 68.0241 44.6745 62.8899C44.7571 61.4615 44.9194 60.0388 45.1608 58.6285C45.2746 57.9127 45.417 57.2041 45.5786 56.4978C45.6831 55.7482 45.871 55.0125 46.1387 54.3046C46.3694 53.8419 45.7067 53.5017 45.3918 53.86C44.9317 54.3128 44.5301 54.8214 44.1965 55.3739C43.8808 56.0156 43.6197 56.6828 43.416 57.3683C42.977 58.7357 42.6497 60.1364 42.4375 61.5568C42.0508 64.0955 41.9718 66.6716 42.202 69.2292L42.0294 69.4032C41.5772 69.8795 41.1458 70.3721 40.6598 70.8161C39.7534 71.6309 38.7789 72.3667 37.747 73.0155C35.6661 74.4446 33.219 75.2475 30.6956 75.3291C29.6177 75.3493 28.5509 75.1084 27.5863 74.6271C26.6218 74.1457 25.7881 73.4383 25.1564 72.565C24.0859 70.5263 23.7033 68.1963 24.0658 65.9225C24.1971 64.4017 24.4296 62.8804 24.6624 61.3721C24.8538 59.6813 25.183 58.009 25.6469 56.3718C25.7901 55.9397 25.1371 55.654 24.9927 56.0897C24.4765 57.6478 23.7752 59.135 23.2892 60.7097C22.8165 62.2144 22.4454 63.7492 22.1784 65.3036C21.5357 68.0322 21.7959 70.8955 22.9197 73.4637C23.5801 74.685 24.5196 75.7334 25.6617 76.5234C26.8039 77.3134 28.1165 77.8228 29.4928 78.0102C32.5298 78.366 35.5933 77.6159 38.1218 75.8973C39.5341 75.0334 40.8243 73.9846 41.9583 72.7787L42.5842 72.0585C43.3232 76.8604 45.5004 81.3258 48.8291 84.8661C49.3934 85.4262 50.0068 85.9347 50.662 86.3854L49.491 87.4008C48.5195 88.195 47.6673 89.1248 46.9607 90.1616C46.5577 90.7609 47.2643 91.6014 47.8897 91.1059C48.8004 90.3845 49.7353 89.6485 50.6972 88.9965C51.473 88.471 52.3958 88.1788 53.2088 87.7271C53.7347 87.9907 54.3231 88.1046 54.9094 88.0562C55.4958 88.0078 56.0574 87.799 56.5329 87.4526C56.7462 87.2833 56.8862 87.0384 56.9237 86.7687C56.9611 86.499 56.8933 86.2253 56.7343 86.0042Z" fill="url(#paint4_linear)"/>
<path d="M89.4765 78.9315C89.3694 78.4891 89.1477 78.0827 88.8336 77.7531C88.3818 77.2669 87.8545 76.8566 87.2721 76.538C86.274 76.0191 85.2166 75.6234 84.123 75.3595C81.9761 74.787 79.7381 74.6381 77.5341 74.9212C72.9976 75.5238 68.7711 77.5556 65.4681 80.7217C63.6454 82.6391 61.6818 84.4175 59.5936 86.0421C59.3202 86.2383 59.5826 86.7421 59.8922 86.5726C61.7793 85.5379 63.3652 84.0865 65.1648 82.9176C66.9257 81.7952 68.7811 80.8282 70.7098 80.0276C74.3337 78.4075 78.3633 77.9218 82.2685 78.6346C83.2492 78.8392 84.2059 79.1456 85.1229 79.5489C85.64 79.7673 86.1453 79.9804 86.6773 80.1598C87.0068 80.2809 87.3435 80.3815 87.6855 80.4612L88.068 80.5139C88.193 80.5331 88.3209 80.5184 88.4384 80.4715C88.6667 80.4012 88.6848 80.4069 88.4926 80.4887C89.4154 80.7238 89.8323 79.6046 89.4765 78.9315Z" fill="url(#paint5_linear)"/>
<path d="M118.427 75.8478C116.139 75.1288 113.729 74.8874 111.344 75.1385C109.023 75.1637 106.708 75.3769 104.422 75.776C99.6994 76.5604 95.1704 78.239 91.078 80.7215C88.8769 82.1365 86.7655 83.6861 84.7558 85.3616C84.6804 85.4186 84.6307 85.5031 84.6177 85.5966C84.6046 85.6901 84.6293 85.785 84.6862 85.8603C84.7432 85.9357 84.8277 85.9853 84.9213 85.9983C85.0148 86.0114 85.1098 85.9867 85.1851 85.9298C89.1158 83.7248 93.3021 82.0097 97.6503 80.8228C101.824 79.4872 106.136 78.6292 110.504 78.2651C111.755 78.1651 113.01 78.1141 114.267 78.1121C115.549 78.1985 116.837 78.1489 118.11 77.9639C118.348 77.9299 118.568 77.8201 118.739 77.6507C118.909 77.4814 119.021 77.2616 119.056 77.0239C119.092 76.7863 119.05 76.5435 118.937 76.3316C118.823 76.1197 118.644 75.95 118.427 75.8478Z" fill="url(#paint6_linear)"/>
<path d="M106.884 33.8723C106.332 33.8489 105.805 33.7502 105.248 33.7357C104.638 33.7197 104.04 33.816 103.431 33.8362C102.594 33.8727 101.768 33.6471 101.066 33.1909C99.4565 32.1213 99.4156 29.5158 99.7525 27.84C99.8432 27.3892 99.1834 27.3184 99.0642 27.7354C98.5809 28.9882 98.2745 30.3021 98.1539 31.6394C98.1223 32.8898 98.5808 34.1031 99.4316 35.0205C100.36 35.9259 101.589 36.4581 102.885 36.5158C103.674 36.5907 104.47 36.5298 105.238 36.3359C105.95 36.0684 106.621 35.7039 107.234 35.2529C107.352 35.1597 107.441 35.0342 107.49 34.8915C107.538 34.7489 107.544 34.5952 107.507 34.4492C107.47 34.3031 107.392 34.1709 107.281 34.0685C107.171 33.9661 107.033 33.898 106.884 33.8723Z" fill="url(#paint7_linear)"/>
<path d="M117.312 72.6484C117.036 71.7128 116.686 70.8005 116.266 69.9202C115.899 68.9771 115.558 68.0233 115.206 67.0749C114.542 65.1567 114.047 63.184 113.726 61.1796C112.782 56.1265 111.74 51.1141 110.54 46.1147C109.858 43.273 109.176 40.4348 108.417 37.6127C108.294 37.1545 107.609 37.372 107.638 37.8062C107.99 43.0818 108.423 48.4001 109.112 53.6443C109.51 58.423 110.371 63.1518 111.682 67.7646C112.063 68.9863 112.656 70.1316 113.434 71.1484C114.127 72.1705 115.106 72.9652 116.249 73.4329C116.734 73.5728 117.449 73.2779 117.312 72.6484Z" fill="url(#paint8_linear)"/>
<path d="M112.097 72.0814C111.641 71.236 111.141 70.4149 110.6 69.6214C110.148 68.7068 109.754 67.7644 109.422 66.7998C108.668 64.7462 108.041 62.6487 107.542 60.5189C106.567 56.1461 106.048 51.6841 105.994 47.2045C105.967 45.976 105.951 44.7504 105.991 43.5219C106.034 42.2617 105.932 41.013 105.912 39.7546C105.902 39.6631 105.869 39.5759 105.814 39.5019C105.759 39.428 105.686 39.3701 105.601 39.3343C104.579 39.0229 103.526 38.8282 102.46 38.754C100.89 38.4367 99.4579 37.6355 98.3664 36.4631C97.2749 35.2906 96.5783 33.8058 96.3745 32.2173C96.3502 31.8023 95.6545 31.7766 95.6358 32.2019C95.533 33.4433 95.6819 34.6927 96.0735 35.8752C96.53 37.1538 97.298 38.2987 98.3081 39.2063C99.3808 40.0832 100.654 40.6804 102.015 40.9443C102.842 41.1377 103.703 41.1241 104.524 40.9049C104.318 41.581 104.156 42.2697 104.039 42.9668C103.861 44.0963 103.783 45.2531 103.707 46.3933C103.575 48.7534 103.622 51.1201 103.845 53.4733C104.257 58.1834 105.248 62.8248 106.797 67.2921C107.162 68.4251 107.604 69.5319 108.12 70.6051C108.577 71.8459 109.484 72.8698 110.661 73.4741C110.857 73.552 111.072 73.5715 111.279 73.5302C111.486 73.489 111.677 73.3889 111.829 73.2417C111.981 73.0946 112.087 72.9069 112.134 72.701C112.182 72.4952 112.169 72.28 112.097 72.0814Z" fill="url(#paint9_linear)"/>
<path d="M115.784 27.7953C115.777 27.5329 115.697 27.2775 115.553 27.0582L115.57 26.6664L115.642 25.7227C115.659 25.1247 115.643 24.5261 115.594 23.9299C115.503 22.703 115.164 21.5072 114.598 20.4148C114.315 19.87 113.429 20.1945 113.693 20.774C114.157 21.7684 114.452 22.8333 114.566 23.9248C114.617 24.4672 114.595 25.0139 114.503 25.5508L114.394 26.1089C113.986 25.905 113.566 25.7255 113.136 25.5712C112.078 25.169 110.964 24.865 109.875 24.5567C108.851 24.2545 107.81 24.0128 106.758 23.8329C106.229 23.7485 105.696 23.6649 105.161 23.6326C104.576 23.6579 103.99 23.6504 103.405 23.6101C103.309 23.5987 103.213 23.6251 103.136 23.6837C103.059 23.7423 103.008 23.8284 102.993 23.924C102.978 24.0196 103.002 24.117 103.058 24.1958C103.114 24.2746 103.198 24.3286 103.293 24.3463C103.848 24.5054 104.386 24.7202 104.898 24.9874L106.395 25.5443C107.357 25.9168 108.314 26.2959 109.25 26.7334C110.151 27.1646 111.028 27.6443 111.876 28.1702C112.337 28.4491 112.825 28.6898 113.306 28.9334C113.602 29.1271 113.949 29.2295 114.303 29.2278C114.657 29.2261 115.003 29.1204 115.297 28.9239C115.481 28.8023 115.623 28.6279 115.705 28.4237C115.787 28.2195 115.806 27.9952 115.757 27.7805L115.784 27.7953Z" fill="url(#paint10_linear)"/>
<path d="M109.73 9.8355C109.487 9.09673 109.283 8.34564 109.119 7.58536C108.676 6.03338 108.547 4.40883 108.739 2.80648C108.83 2.33227 108.103 2.22913 108.003 2.69445C107.819 3.54596 107.555 4.37731 107.39 5.23297C107.092 6.90776 107.177 8.62818 107.637 10.2658C107.841 11.0616 108.059 12.2813 108.943 12.5625C109.162 12.6494 109.406 12.6495 109.624 12.5627C109.843 12.4759 110.021 12.3089 110.12 12.0957C110.492 11.3379 109.978 10.5649 109.73 9.8355Z" fill="url(#paint11_linear)"/>
<path d="M107.776 0.592952C106.613 0.667482 105.486 1.02568 104.494 1.63622C103.479 2.31304 102.636 3.21677 102.031 4.27581C101.322 5.49201 100.836 6.82476 100.595 8.21148C100.37 9.40383 99.7948 11.7867 101.049 12.552C101.229 12.6795 101.443 12.7489 101.663 12.7509C101.883 12.7528 102.099 12.6871 102.28 12.5627C103.358 11.9068 103.054 10.0659 103.206 8.98533C103.358 7.87038 103.66 6.78102 104.103 5.74676C104.488 4.88113 104.993 4.07451 105.605 3.35109C106.238 2.51468 107.038 1.81921 107.954 1.30901C108.036 1.2738 108.102 1.21092 108.141 1.13154C108.18 1.05217 108.19 0.961458 108.169 0.875541C108.147 0.789624 108.096 0.714073 108.024 0.662329C107.952 0.610585 107.864 0.586001 107.776 0.592952Z" fill="url(#paint12_linear)"/>
<path d="M101.02 2.24885C99.8723 2.45048 98.7913 2.93007 97.8718 3.64571C96.9373 4.42977 96.1983 5.42056 95.7134 6.53959C95.1425 7.82616 94.8057 9.20418 94.7188 10.6089C94.6251 11.8191 94.3144 14.2506 95.6461 14.8733C95.8384 14.9803 96.059 15.0257 96.278 15.0035C96.497 14.9812 96.7039 14.8923 96.8707 14.7488C97.8697 13.9782 97.3662 12.1824 97.3983 11.0917C97.4274 9.96678 97.6083 8.85089 97.9362 7.77432C98.2234 6.87175 98.6374 6.01454 99.1659 5.22839C99.7027 4.32792 100.421 3.54908 101.276 2.9415C101.353 2.89777 101.412 2.82797 101.443 2.7446C101.474 2.66122 101.473 2.5697 101.443 2.48641C101.412 2.40312 101.353 2.33348 101.275 2.28996C101.198 2.24644 101.107 2.23187 101.02 2.24885Z" fill="url(#paint13_linear)"/>
<path d="M134.663 71.7783C133.577 68.304 132.267 64.9037 130.742 61.5985C127.7 54.8525 124.248 48.2852 120.714 41.7859C119.743 39.9987 118.808 38.1923 117.91 36.3668C116.912 34.5117 116.056 32.5841 115.348 30.6004C115.199 30.1312 114.501 30.4163 114.64 30.881C115.174 32.6756 115.508 34.5265 116.027 36.3306C116.396 37.6132 116.794 38.8869 117.22 40.1519C116.385 40.3256 115.574 40.603 114.807 40.9776C114.292 41.2206 113.802 41.5147 113.345 41.8555C112.917 42.2444 112.533 42.6807 112.203 43.156C111.966 43.4462 112.303 43.9524 112.663 43.7695C113.125 43.5339 113.632 43.4186 114.109 43.2112C114.559 43.015 115.004 42.8039 115.466 42.6353C116.245 42.3482 117.052 42.1442 117.874 42.0265C119.039 45.266 120.41 48.4068 121.876 51.5235C124.949 58.0573 128.154 64.5006 130.703 71.2656C132.173 75.2625 133.355 79.3593 134.241 83.5246C134.275 83.7687 134.396 83.9925 134.58 84.1561C134.765 84.3197 135.001 84.4124 135.248 84.4176C135.495 84.4228 135.735 84.3402 135.926 84.1845C136.118 84.0288 136.247 83.8103 136.292 83.5679C136.669 79.565 136.111 75.5294 134.663 71.7783Z" fill="url(#paint14_linear)"/>
<path d="M35.0516 97.7578C34.3538 97.2133 33.6979 96.6543 32.9607 96.1573C32.2627 95.6858 31.5528 95.2246 30.888 94.705C30.2815 94.2412 29.7139 93.7287 29.1907 93.1727C28.5776 92.5273 28.0093 91.8408 27.4898 91.1179C26.3851 89.5453 25.3655 87.9147 24.4356 86.2329L22.934 83.601L22.1357 82.1808C21.8352 81.7291 21.5741 81.2524 21.3552 80.756C21.2114 80.3296 20.5709 80.6126 20.7139 81.0376C20.8511 81.6384 20.9408 82.2491 20.9822 82.8639L21.2408 84.4371C21.4164 85.4693 21.6587 86.489 21.9661 87.4899C20.6212 87.1257 19.3725 86.4711 18.3081 85.5723C16.9664 84.4847 16.0025 83.0014 15.554 81.334C15.5156 80.3069 15.6513 79.2807 15.9552 78.2987C16.169 77.2581 16.4056 76.222 16.6737 75.1938C17.205 73.158 17.8224 71.1358 18.4917 69.1411C18.8641 68.0297 19.2191 66.915 19.6128 65.8115C20.0662 64.6937 20.3893 63.5275 20.5757 62.3358C20.6077 62.051 20.2356 61.8024 20.0075 62.022C18.4942 63.7372 17.3263 65.7281 16.5678 67.8856C15.644 70.0758 14.8754 72.3283 14.2676 74.6263C13.9545 75.7825 13.6688 76.9461 13.4107 78.1171C13.0714 79.2771 12.9498 80.4898 13.0519 81.6941C13.3133 82.7468 13.787 83.7351 14.444 84.5983C15.101 85.4616 15.9274 86.1817 16.8726 86.7145C18.5307 87.869 20.4399 88.6123 22.4423 88.8829C23.0519 90.555 23.8782 92.1401 24.9002 93.5974C26.0158 95.1795 27.3712 96.5782 28.9176 97.7432C29.707 98.3966 30.6204 98.8836 31.6029 99.1752C32.5854 99.4667 33.6168 99.5567 34.6349 99.4397C34.8162 99.4085 34.9843 99.3252 35.1189 99.2C35.2536 99.0749 35.3488 98.9132 35.393 98.7348C35.4372 98.5564 35.4284 98.369 35.3678 98.1955C35.3071 98.022 35.1973 97.8699 35.0516 97.7578Z" fill="url(#paint15_linear)"/>
<path d="M133.792 86.0177C131.449 87.6865 128.974 89.1607 126.391 90.4255C123.232 91.9472 120.02 93.3535 116.89 94.9329C110.898 98.1914 104.686 101.029 98.2995 103.424C88.6329 106.671 78.4495 108.107 68.2612 107.659L68.3994 106.942C68.5628 105.935 68.641 104.916 68.6331 103.896C68.5953 101.987 68.3467 100.087 67.8918 98.232C67.4766 96.2877 66.988 94.3574 66.5206 92.4252L65.7977 89.4561C65.674 88.9522 65.5329 88.4555 65.3938 87.9567C65.2328 87.3787 64.9787 86.8236 64.8678 86.2335C64.7788 85.7542 64.0206 85.8346 64.1108 86.3162C64.2946 87.2987 64.2466 88.3384 64.3554 89.3366C64.4648 90.3405 64.6006 91.342 64.7207 92.3446C64.9511 94.2684 65.1952 96.1917 65.3434 98.1241C65.4831 99.9387 65.4984 101.761 65.3891 103.578C65.3369 104.452 65.2372 105.322 65.0905 106.186C65.0175 106.615 64.914 107.032 64.8236 107.45C63.7 107.359 62.5786 107.246 61.4595 107.112C57.9308 106.688 54.419 106.151 50.9428 105.411C47.5055 104.679 44.1227 103.752 40.6676 103.111C40.5798 103.1 40.4908 103.118 40.414 103.162C40.3372 103.206 40.2767 103.273 40.2417 103.354C40.2066 103.435 40.1989 103.526 40.2197 103.612C40.2404 103.698 40.2885 103.774 40.3568 103.831C45.9037 107.215 52.0785 109.442 58.5093 110.377C64.9714 111.512 71.5522 111.816 78.0914 111.282C84.6342 110.809 91.0987 109.569 97.3515 107.586C103.87 105.335 110.194 102.556 116.26 99.2767C119.922 97.4205 123.511 95.4409 127.124 93.4925C130.405 92.2603 133.135 89.8946 134.821 86.8239C134.876 86.6871 134.886 86.5361 134.848 86.3936C134.81 86.251 134.726 86.1247 134.61 86.0337C134.494 85.9427 134.351 85.8919 134.204 85.889C134.056 85.8862 133.912 85.9313 133.792 86.0177Z" fill="url(#paint16_linear)"/>
<path d="M94.698 28.5388C92.1856 30.3121 89.5497 31.9395 87.0746 33.7643C84.6825 35.5278 82.3521 37.3358 79.8432 38.938C75.0903 41.9466 70.0591 44.4916 64.819 46.5381C63.3488 47.1173 61.8597 47.6546 60.3732 48.1902C58.8357 48.8176 57.2631 49.355 55.6631 49.7996C55.1845 49.911 55.2536 50.6754 55.7476 50.5725C57.1742 50.2761 58.6174 50.1685 60.0422 49.8645C61.4671 49.5604 62.8747 49.2083 64.2692 48.783C67.0762 47.953 69.8252 46.9383 72.4982 45.7456C77.8814 43.2455 82.9501 40.1182 87.5989 36.4288C90.2791 34.1228 92.7905 31.6276 95.1138 28.9626C95.3546 28.7086 94.9649 28.3503 94.698 28.5388Z" fill="url(#paint17_linear)"/>
<path d="M4.64628 39.304C4.11697 39.0966 3.60843 38.8959 3.06727 38.7225C2.76809 38.6198 2.47935 38.4889 2.20496 38.3316C2.61765 36.8759 2.93159 35.3941 3.14466 33.8962C3.16947 33.0677 3.12723 32.2386 3.01834 31.417C2.89113 30.5702 2.62485 29.7759 2.41728 28.9475C2.32446 28.5776 1.7403 28.7451 1.77915 29.1058C1.85061 29.7889 1.8518 30.4691 1.90102 31.1526C1.97734 31.8616 1.9829 32.5764 1.91763 33.2866C1.62156 34.548 1.21595 35.7811 0.705422 36.9721C0.439188 37.6007 0.298176 38.2752 0.290283 38.9578C0.362657 39.2163 0.489367 39.4563 0.661949 39.6618C0.83453 39.8674 1.04901 40.0338 1.29106 40.1499C1.76319 40.5075 2.32601 40.7259 2.91586 40.7804C3.5057 40.8349 4.09905 40.7234 4.62878 40.4584C4.74028 40.4096 4.83537 40.3297 4.90274 40.2284C4.97011 40.1271 5.00691 40.0085 5.00875 39.8868C5.01059 39.7652 4.97741 39.6456 4.91314 39.5422C4.84887 39.4389 4.75624 39.3562 4.64628 39.304Z" fill="url(#paint18_linear)"/>
<path d="M18.8515 44.1227C19.5422 43.6003 20.131 42.9556 20.5886 42.2206C21.0663 41.5389 20.4038 40.4126 19.5436 40.8246C18.8969 41.134 18.2327 41.348 17.6061 41.7137C17.048 42.038 16.4944 42.3658 15.9183 42.6586C14.6897 43.2817 13.3913 43.7561 12.0504 44.0718C10.7813 44.4024 9.46778 44.53 8.15873 44.4499C7.841 44.4224 7.52154 44.4212 7.20361 44.4464L7.13423 44.452C7.02084 44.3126 6.91493 44.1673 6.81694 44.0166C6.56578 43.4831 6.40684 42.92 6.11328 42.4049C5.92587 42.0765 5.40161 42.3886 5.54009 42.7271C6.02966 43.9185 5.81557 45.6945 6.95542 46.5353C7.7256 46.9552 8.60969 47.1186 9.47917 47.0018C10.2858 46.9968 11.091 46.9332 11.8885 46.8115L12.8966 46.6251C13.609 47.0178 14.2497 47.5283 14.7915 48.1349C15.5265 48.8545 16.1288 49.6981 16.5706 50.6269C17.0404 51.791 17.3761 53.0048 17.5711 54.2448C17.8258 55.6378 17.8199 57.0551 18.0212 58.452C18.038 58.5746 18.0941 58.6885 18.1811 58.7766C18.2681 58.8647 18.3813 58.9223 18.5037 58.9407C18.6262 58.9591 18.7513 58.9373 18.8604 58.8786C18.9694 58.82 19.0565 58.7276 19.1086 58.6153C19.7968 57.1021 20.1488 55.4579 20.1405 53.7957C20.1322 52.1336 19.7638 50.4929 19.0606 48.9867C18.3826 47.6573 17.3065 46.5725 15.9823 45.8836L15.732 45.765L16.6299 45.3812C17.4054 45.0266 18.1487 44.6055 18.8515 44.1227Z" fill="url(#paint19_linear)"/>
<path d="M25.216 33.0614C24.3098 32.987 23.5646 31.9434 23.062 31.2558C22.488 30.3711 21.715 29.6329 20.8046 29.1002C19.8975 28.6139 18.8744 28.4085 17.9567 27.9414L17.4579 27.6746C17.5934 27.7592 17.5679 27.7437 17.3817 27.6281L16.8776 27.3344L16.5731 27.14L16.0251 26.7612C14.611 25.7407 13.2766 24.6423 11.7883 23.7215C10.2724 22.7911 8.53884 22.2745 6.7607 22.2233C6.65698 22.211 6.55229 22.236 6.46534 22.2939C6.37838 22.3517 6.31484 22.4385 6.28607 22.5389C6.2573 22.6392 6.26517 22.7465 6.30829 22.8416C6.3514 22.9367 6.42694 23.0133 6.5214 23.0579C7.98884 23.9003 9.27449 25.0254 10.3039 26.3679C11.5252 27.7967 12.9132 29.0742 14.4384 30.1731C15.3209 30.7679 16.2992 31.2066 17.3304 31.4698C18.2681 31.5624 19.1901 31.7744 20.0739 32.1008C20.9567 32.5964 21.5488 33.4897 22.3993 34.0297C22.8342 34.3095 23.3335 34.4733 23.8498 34.5056C24.366 34.5378 24.8818 34.4375 25.3482 34.214C25.834 33.9716 25.8639 33.1144 25.216 33.0614Z" fill="url(#paint20_linear)"/>
<path d="M5.15242 31.8007C3.77392 32.4583 2.29474 32.8799 0.776555 33.0479C-0.0273322 33.0004 -0.330976 33.8994 0.469056 33.945C1.4457 34.0901 2.43834 34.0914 3.41536 33.9489C4.40655 33.7812 5.33523 33.3529 6.10605 32.7079C6.74655 32.1546 6.05505 31.4889 5.15242 31.8007Z" fill="url(#paint21_linear)"/>
<defs>
<linearGradient id="paint0_linear" x1="27.4031" y1="14.4624" x2="5.62282" y2="31.4121" gradientUnits="userSpaceOnUse">
<stop stop-color="#2DB7E6"/>
<stop offset="0.69382" stop-color="#38EBCB"/>
</linearGradient>
<linearGradient id="paint1_linear" x1="85.5272" y1="21.3212" x2="50.8288" y2="63.5805" gradientUnits="userSpaceOnUse">
<stop stop-color="#2DB7E6"/>
<stop offset="0.69382" stop-color="#38EBCB"/>
</linearGradient>
<linearGradient id="paint2_linear" x1="42.1655" y1="49.3576" x2="35.6467" y2="52.954" gradientUnits="userSpaceOnUse">
<stop stop-color="#2DB7E6"/>
<stop offset="0.69382" stop-color="#38EBCB"/>
</linearGradient>
<linearGradient id="paint3_linear" x1="86.4315" y1="26.4388" x2="68.3004" y2="49.4142" gradientUnits="userSpaceOnUse">
<stop stop-color="#2DB7E6"/>
<stop offset="0.69382" stop-color="#38EBCB"/>
</linearGradient>
<linearGradient id="paint4_linear" x1="46.6101" y1="60.4686" x2="21.844" y2="74.7304" gradientUnits="userSpaceOnUse">
<stop stop-color="#2DB7E6"/>
<stop offset="0.69382" stop-color="#38EBCB"/>
</linearGradient>
<linearGradient id="paint5_linear" x1="80.7429" y1="76.9103" x2="72.5681" y2="89.7378" gradientUnits="userSpaceOnUse">
<stop stop-color="#2DB7E6"/>
<stop offset="0.69382" stop-color="#38EBCB"/>
</linearGradient>
<linearGradient id="paint6_linear" x1="108.935" y1="77.015" x2="102.12" y2="90.2125" gradientUnits="userSpaceOnUse">
<stop stop-color="#2DB7E6"/>
<stop offset="0.69382" stop-color="#38EBCB"/>
</linearGradient>
<linearGradient id="paint7_linear" x1="104.773" y1="29.0948" x2="98.4969" y2="33.0844" gradientUnits="userSpaceOnUse">
<stop stop-color="#2DB7E6"/>
<stop offset="0.69382" stop-color="#38EBCB"/>
</linearGradient>
<linearGradient id="paint8_linear" x1="114.479" y1="43.8574" x2="105.614" y2="45.323" gradientUnits="userSpaceOnUse">
<stop stop-color="#2DB7E6"/>
<stop offset="0.69382" stop-color="#38EBCB"/>
</linearGradient>
<linearGradient id="paint9_linear" x1="107.292" y1="39.3926" x2="92.6148" y2="42.9862" gradientUnits="userSpaceOnUse">
<stop stop-color="#2DB7E6"/>
<stop offset="0.69382" stop-color="#38EBCB"/>
</linearGradient>
<linearGradient id="paint10_linear" x1="112.021" y1="21.7723" x2="105.157" y2="27.7223" gradientUnits="userSpaceOnUse">
<stop stop-color="#2DB7E6"/>
<stop offset="0.69382" stop-color="#38EBCB"/>
</linearGradient>
<linearGradient id="paint11_linear" x1="109.358" y1="4.23571" x2="106.599" y2="4.73978" gradientUnits="userSpaceOnUse">
<stop stop-color="#2DB7E6"/>
<stop offset="0.69382" stop-color="#38EBCB"/>
</linearGradient>
<linearGradient id="paint12_linear" x1="105.852" y1="2.78044" x2="99.4466" y2="5.34845" gradientUnits="userSpaceOnUse">
<stop stop-color="#2DB7E6"/>
<stop offset="0.69382" stop-color="#38EBCB"/>
</linearGradient>
<linearGradient id="paint13_linear" x1="99.4523" y1="4.54002" x2="93.6528" y2="6.4556" gradientUnits="userSpaceOnUse">
<stop stop-color="#2DB7E6"/>
<stop offset="0.69382" stop-color="#38EBCB"/>
</linearGradient>
<linearGradient id="paint14_linear" x1="129.264" y1="40.0905" x2="108.072" y2="45.9542" gradientUnits="userSpaceOnUse">
<stop stop-color="#2DB7E6"/>
<stop offset="0.69382" stop-color="#38EBCB"/>
</linearGradient>
<linearGradient id="paint15_linear" x1="28.8313" y1="68.6973" x2="10.2862" y2="75.5126" gradientUnits="userSpaceOnUse">
<stop stop-color="#2DB7E6"/>
<stop offset="0.69382" stop-color="#38EBCB"/>
</linearGradient>
<linearGradient id="paint16_linear" x1="107.029" y1="90.5057" x2="92.61" y2="123.286" gradientUnits="userSpaceOnUse">
<stop stop-color="#2DB7E6"/>
<stop offset="0.69382" stop-color="#38EBCB"/>
</linearGradient>
<linearGradient id="paint17_linear" x1="83.4684" y1="32.4634" x2="66.7094" y2="51.0814" gradientUnits="userSpaceOnUse">
<stop stop-color="#2DB7E6"/>
<stop offset="0.69382" stop-color="#38EBCB"/>
</linearGradient>
<linearGradient id="paint18_linear" x1="3.62102" y1="30.9093" x2="-0.568766" y2="31.9195" gradientUnits="userSpaceOnUse">
<stop stop-color="#2DB7E6"/>
<stop offset="0.69382" stop-color="#38EBCB"/>
</linearGradient>
<linearGradient id="paint19_linear" x1="16.2688" y1="44.0143" x2="4.95966" y2="49.8408" gradientUnits="userSpaceOnUse">
<stop stop-color="#2DB7E6"/>
<stop offset="0.69382" stop-color="#38EBCB"/>
</linearGradient>
<linearGradient id="paint20_linear" x1="19.9907" y1="24.4326" x2="10.6198" y2="33.5616" gradientUnits="userSpaceOnUse">
<stop stop-color="#2DB7E6"/>
<stop offset="0.69382" stop-color="#38EBCB"/>
</linearGradient>
<linearGradient id="paint21_linear" x1="4.48632" y1="32.141" x2="2.92052" y2="34.7675" gradientUnits="userSpaceOnUse">
<stop stop-color="#2DB7E6"/>
<stop offset="0.69382" stop-color="#38EBCB"/>
</linearGradient>
</defs>
</svg>
