<svg width="254" height="112" viewBox="0 0 254 112" fill="none" xmlns="http://www.w3.org/2000/svg">
<path d="M25.2141 108.028C23.0328 108.336 21.1776 107.231 19.0379 107.254C16.9128 107.501 14.8162 107.95 12.7769 108.597C8.74655 109.307 4.5967 108.835 0.829213 107.237C0.242917 106.984 -0.339594 107.842 0.238049 108.168C2.05251 109.302 3.96662 110.267 5.9566 111.053C7.988 111.724 10.1382 111.96 12.2669 111.745C14.5385 111.529 16.7274 110.826 18.9665 110.447C21.1641 110.106 23.3356 109.615 25.4661 108.977C25.58 108.933 25.6738 108.849 25.7293 108.741C25.7849 108.632 25.7983 108.507 25.767 108.389C25.7357 108.271 25.6619 108.169 25.5598 108.103C25.4577 108.036 25.3346 108.01 25.2141 108.028Z" fill="url(#paint0_linear)"/>
<path d="M39.0709 96.1247C37.9614 96.4116 36.8851 96.8142 35.8598 97.3259C34.8556 97.9564 34.0319 98.8363 33.4691 99.8797C32.927 101.04 32.7 102.323 32.8109 103.599C32.8715 104.68 33.4973 106.499 31.7968 106.857C31.7094 106.864 31.6242 106.888 31.5465 106.929C31.4687 106.969 31.3999 107.025 31.3443 107.093C31.2886 107.16 31.2472 107.239 31.2225 107.323C31.1978 107.407 31.1903 107.495 31.2005 107.582C31.2107 107.669 31.2383 107.753 31.2818 107.83C31.3252 107.906 31.3836 107.972 31.4534 108.025C31.5232 108.079 31.603 108.117 31.688 108.139C31.7731 108.16 31.8616 108.164 31.9482 108.151C34.3107 107.998 35.6845 105.394 35.9084 103.454C35.9144 102.179 36.4146 100.957 37.3039 100.043C38.1206 99.1559 39.0068 98.3348 39.9541 97.588C40.118 97.4577 40.2288 97.2723 40.2659 97.0663C40.3029 96.8603 40.2637 96.6478 40.1556 96.4686C40.0474 96.2894 39.8777 96.1556 39.6781 96.0923C39.4784 96.029 39.2626 96.0405 39.0709 96.1247Z" fill="url(#paint1_linear)"/>
<path d="M84.8017 84.5039C83.4939 79.8383 81.9272 75.2493 80.1086 70.758L80.9323 69.4265C81.7484 67.7713 82.8186 66.2539 84.1039 64.9293C84.8146 64.2806 83.9552 63.0761 83.1845 63.7108C82.0382 64.731 80.8368 65.6874 79.5856 66.5759C78.3143 67.4497 77.1885 68.518 76.2495 69.7417C74.4288 72.0659 72.4797 74.2867 70.4114 76.3938C66.3631 80.4404 61.8172 83.957 56.8828 86.8592C54.1072 88.6276 51.2037 90.187 48.1965 91.5246C47.6016 91.7641 47.9688 92.5718 48.553 92.4226C51.4364 91.7705 54.2725 90.9246 57.0418 89.8904C59.7761 88.7249 62.4036 87.3236 64.8946 85.7024C69.8673 82.4923 74.265 78.4699 77.904 73.8032L78.6915 72.7826C80.9907 81.912 83.8017 90.9051 87.1111 99.719C88.7786 97.8761 85.5891 87.1604 84.8017 84.5039Z" fill="url(#paint2_linear)"/>
<path d="M143.943 30.4731C140.178 30.2191 136.435 31.2323 133.313 33.3513C132.278 34.1359 131.36 35.0628 130.586 36.1046L130.297 36.0867C129.11 36.0675 127.926 35.9563 126.756 35.7543C125.428 35.6461 124.094 35.5618 122.775 35.3645C120.296 35.0361 117.901 34.2459 115.713 33.035C113.65 31.9877 111.939 30.3585 110.794 28.3491C109.648 26.3397 109.117 24.0385 109.267 21.7306C109.278 21.6392 109.256 21.5469 109.205 21.4703C109.154 21.3936 109.078 21.3375 108.989 21.3121C108.901 21.2868 108.806 21.2937 108.722 21.3318C108.638 21.3698 108.571 21.4364 108.532 21.5197C108.029 22.7239 107.77 24.0162 107.771 25.3212C107.791 26.7207 108.066 28.1048 108.583 29.4055C109.588 32.0619 111.33 34.3767 113.605 36.0781C116.271 37.8721 119.318 39.0198 122.505 39.4298C124.165 39.7227 125.858 39.7867 127.535 39.6201L128.292 39.5266C127.581 40.6989 126.792 41.8224 125.93 42.8896C123.144 45.9842 119.451 48.12 115.378 48.9919C113.312 49.5358 111.156 49.7888 109.065 50.2548C106.871 50.7024 104.73 51.3783 102.676 52.2712C97.9522 54.7204 93.3794 57.451 88.9829 60.4483C88.4544 60.7727 88.9688 61.7047 89.5237 61.409C91.5084 60.2733 93.565 59.268 95.6804 58.3994C97.8211 57.5972 99.9532 56.7647 102.117 56.0268C106.249 54.6212 110.56 53.8389 114.692 52.4707C118.782 51.5109 122.661 49.8113 126.139 47.4561C127.805 46.1485 129.221 44.551 130.319 42.7404C131.184 40.9116 131.942 39.0344 132.591 37.1182C133.014 36.1319 133.666 35.2601 134.492 34.5743C135.317 33.8885 136.294 33.4082 137.342 33.1729C139.492 32.5826 141.729 32.495 143.91 32.0841C144.748 31.9241 144.925 30.5121 143.943 30.4731Z" fill="url(#paint3_linear)"/>
<path d="M180.994 95.119C178.445 91.469 176.573 87.3907 175.469 83.0788C174.201 78.618 173.252 74.0729 172.629 69.4778C171.921 64.4881 171.391 59.4557 170.466 54.5005C169.73 49.742 168.079 45.171 165.605 41.0396C164.342 39.0044 162.7 37.2299 160.769 35.812C158.721 34.5868 156.429 33.8237 154.055 33.5761C153.917 33.5587 153.777 33.5913 153.661 33.6679C153.545 33.7445 153.46 33.86 153.421 33.9937C153.383 34.1274 153.394 34.2704 153.452 34.3968C153.51 34.5233 153.611 34.6249 153.737 34.6832C155.617 35.6163 157.293 36.9115 158.67 38.4945C160.103 39.8291 161.364 41.3363 162.426 42.9814C164.726 46.904 166.348 51.1869 167.221 55.6493C168.492 65.0209 170.246 74.3206 172.477 83.5113C173.262 85.8259 174.266 88.0602 175.476 90.1839C176.737 92.2581 178.211 94.1951 179.874 95.9634C180.468 96.6251 181.55 95.8532 180.994 95.119Z" fill="url(#paint4_linear)"/>
<path d="M68.4104 58.2279C66.5918 59.9578 64.8697 61.7862 63.2516 63.7048C61.5771 65.5122 59.8556 67.2799 58.0869 69.008C54.4877 72.5194 50.7121 75.8455 46.7748 78.9735C38.8779 85.2254 30.4848 90.8244 21.6787 95.7147C16.6222 98.5323 11.3834 101.074 6.10831 103.513C6.06507 103.531 6.02578 103.557 5.99271 103.59C5.95964 103.623 5.93346 103.662 5.91569 103.706C5.89791 103.749 5.8889 103.795 5.88917 103.842C5.88944 103.888 5.89898 103.935 5.91725 103.978C5.93553 104.021 5.96216 104.059 5.9956 104.092C6.02905 104.125 6.06864 104.15 6.11208 104.167C6.15552 104.185 6.20194 104.193 6.24864 104.192C6.29535 104.191 6.34141 104.181 6.38415 104.162C26.0939 97.6153 44.0563 86.6749 58.9134 72.1684C60.9326 70.2424 62.8936 68.2645 64.7963 66.2348C66.8631 64.2314 68.7093 62.0125 70.3034 59.6162C70.8951 58.6215 69.3082 57.4511 68.4104 58.2279Z" fill="url(#paint5_linear)"/>
<path d="M101.39 27.8317C101.369 27.6647 101.304 27.5062 101.203 27.3718C101.102 27.2373 100.967 27.1315 100.813 27.0649C100.658 26.9982 100.489 26.9729 100.322 26.9915C100.154 27.0102 99.9946 27.072 99.8585 27.1711C98.9377 28.0243 98.1714 29.0302 97.5934 30.1443C96.874 31.1176 96.1021 32.0509 95.2812 32.9403C93.5512 34.7858 91.6696 36.4833 89.6562 38.0149C85.5018 40.9963 81.4993 44.1835 77.6636 47.5646C75.587 49.5074 73.8844 51.8143 72.6401 54.3708C72.4416 54.7833 73.0187 55.0736 73.2978 54.7611C80.2549 47.0462 89.9358 42.5468 97.0595 35.04C98.0226 34.0273 98.8992 32.9358 99.68 31.777C100.65 30.6739 101.249 29.2936 101.39 27.8317Z" fill="url(#paint6_linear)"/>
<path d="M113.08 13.6196C110.895 14.0207 108.76 14.6584 106.713 15.5214C104.614 16.3026 102.517 17.0892 100.431 17.9044C96.2683 19.5312 92.1858 21.3476 88.1838 23.3536C80.1327 27.1411 72.7986 32.2935 66.5065 38.5823C66.0561 38.9974 65.6976 39.5021 65.4541 40.064C65.2106 40.6259 65.0875 41.2325 65.0927 41.8448C65.2795 43.0842 65.6463 44.2896 66.1814 45.4231C66.9876 48.0428 68.2467 50.5011 69.9015 52.6866C70.1925 53.0169 70.8972 52.8552 70.7896 52.3341C70.2145 50.2053 69.5073 48.1143 68.6721 46.0734C68.2911 45.0476 67.9695 44.0007 67.7088 42.9379C67.5569 42.3903 67.5832 41.8085 67.784 41.2768C67.9848 40.7451 68.3496 40.291 68.8257 39.9803C71.9381 37.2667 75.2463 34.786 78.7235 32.5584C85.7212 28.1164 93.1102 24.3226 100.798 21.2242C102.964 20.2908 105.141 19.3854 107.329 18.5082C109.59 17.7244 111.765 16.7141 113.823 15.4928C114 15.3524 114.128 15.1587 114.186 14.9402C114.245 14.7217 114.232 14.4902 114.148 14.2799C114.065 14.0697 113.916 13.8919 113.723 13.773C113.531 13.654 113.305 13.6002 113.08 13.6196Z" fill="url(#paint7_linear)"/>
<path d="M96.6644 85.5788C96.5486 85.3635 96.3771 85.1833 96.1678 85.0569C95.9584 84.9305 95.719 84.8626 95.4745 84.8604C94.2451 84.8323 94.0612 85.9864 94.0785 86.9541C94.0075 88.0001 93.7511 89.0251 93.3213 89.9815C92.5835 92.1763 92.2127 94.4777 92.2239 96.793C92.5513 99.0002 92.0761 101.252 90.8847 103.139C90.2248 103.919 89.3943 104.538 88.4573 104.946C87.2936 105.304 86.1029 105.568 84.8968 105.735C84.7595 105.772 84.638 105.853 84.5504 105.965C84.4628 106.077 84.4139 106.215 84.411 106.357C84.4081 106.499 84.4513 106.638 84.5342 106.754C84.6171 106.87 84.7352 106.955 84.8708 106.998C86.0161 107.285 87.2024 107.372 88.3772 107.255C89.5793 107.202 90.7337 106.769 91.6738 106.019C92.4394 105.213 93.0337 104.261 93.4206 103.219C93.8075 102.178 93.9791 101.069 93.9249 99.9588C93.5781 97.3371 93.9258 94.6703 94.9331 92.225C95.7397 91.3408 96.3188 90.2737 96.6205 89.1158C96.9221 87.9578 96.9372 86.7439 96.6644 85.5788Z" fill="url(#paint8_linear)"/>
<path d="M92.9842 81.8657C92.9139 81.2613 92.3941 81.0224 92.1832 80.5061C92.0041 79.8298 91.9113 79.1336 91.9068 78.434L91.545 75.6023C91.3829 71.8522 90.6809 68.145 89.4605 64.5952C89.2442 64.0859 88.3247 64.0935 88.2998 64.7271C88.3985 68.4509 88.7055 72.1663 89.2193 75.8559C89.1657 77.5505 89.2414 79.2468 89.4459 80.9299C89.7223 82.1365 90.7142 83.7465 92.1978 83.1713C92.453 83.0686 92.6679 82.8857 92.8098 82.6501C92.9517 82.4145 93.0129 82.1392 92.9842 81.8657Z" fill="url(#paint9_linear)"/>
<path d="M156.856 5.49006C156.064 4.20398 154.152 3.98395 152.79 3.69256C151.344 3.3668 149.869 3.18267 148.386 3.14277C145.281 3.07082 142.19 3.59286 139.281 4.68078C136.252 5.84685 133.536 7.67354 130.624 9.08396C127.562 10.3447 124.379 11.2881 121.124 11.8994C120.999 11.9159 120.885 11.9808 120.807 12.0801C120.729 12.1795 120.693 12.3054 120.707 12.431C120.721 12.5566 120.783 12.6718 120.881 12.752C120.978 12.8322 121.104 12.871 121.229 12.8601C124.263 12.6194 127.253 11.9884 130.125 10.9826C131.616 10.5225 133.107 10.1176 134.574 9.57699C136.089 9.01963 137.549 8.352 139.057 7.78166C139.934 7.44974 140.814 7.15673 141.701 6.90914L141.809 7.02806C142.171 7.50348 142.443 8.04127 142.611 8.61472C142.943 9.40544 143.239 10.2102 143.498 11.029C144.06 12.6479 144.452 14.3209 144.667 16.0209C144.852 17.7497 144.816 19.495 144.558 21.2145C144.331 22.9828 143.919 24.7223 143.327 26.4042C143.279 26.5296 143.281 26.6688 143.333 26.7926C143.385 26.9165 143.483 27.0154 143.606 27.0686C143.73 27.1218 143.869 27.1253 143.995 27.0782C144.121 27.0312 144.223 26.9373 144.282 26.8162C144.83 25.9218 145.317 24.9909 145.738 24.0299C146.087 23.0934 146.355 22.1289 146.541 21.1469C146.933 19.1342 147.078 17.0812 146.973 15.0333C146.906 13.001 146.611 10.9827 146.095 9.01585C145.874 8.05425 145.58 7.11073 145.217 6.19338C146.065 6.08353 146.919 6.02324 147.775 6.01282C149.258 5.98575 150.74 6.09105 152.204 6.32745C153.604 6.56639 155.07 7.33188 156.476 6.85129C156.602 6.79922 156.715 6.7192 156.805 6.61729C156.895 6.51539 156.961 6.39426 156.998 6.2631C157.035 6.13194 157.041 5.99416 157.016 5.86023C156.992 5.7263 156.937 5.59972 156.856 5.49006Z" fill="url(#paint10_linear)"/>
<path d="M180.071 15.484C179.411 13.7627 179.055 11.9733 178.422 10.2461C177.92 8.80453 177.292 7.40969 176.547 6.07754C175.863 4.82938 174.921 3.74061 173.785 2.88324C172.648 2.02587 171.342 1.41943 169.954 1.10403C168.553 0.806226 167.106 0.804507 165.705 1.09899C164.304 1.39347 162.98 1.97763 161.819 2.81394C159.644 4.67155 158.031 7.09808 157.16 9.8212C157.113 9.96213 157.12 10.1155 157.181 10.2512C157.241 10.3869 157.35 10.4951 157.486 10.5544C157.623 10.6137 157.776 10.6199 157.917 10.5718C158.057 10.5236 158.175 10.4246 158.246 10.2942C159.2 8.12331 160.862 6.33936 162.96 5.23308C165.058 4.12681 167.469 3.76344 169.801 4.2022C171.937 5.02918 173.663 6.66329 174.604 8.75135L174.611 8.76378C173.272 8.9509 172.06 9.65719 171.238 10.7299C169.974 11.946 169.035 13.4601 168.509 15.1331C168.212 16.9484 168.301 18.8056 168.769 20.5844C169.237 22.3632 170.073 24.0238 171.225 25.4586C171.286 25.5345 171.372 25.5862 171.468 25.6046C171.564 25.623 171.663 25.6069 171.748 25.5591C171.833 25.5113 171.898 25.435 171.932 25.3436C171.966 25.2523 171.966 25.1518 171.933 25.0602C170.97 22.3487 170.636 19.4538 170.957 16.5944C171.183 15.3036 171.816 14.119 172.764 13.2135C173.5 12.2462 174.513 11.5249 175.668 11.1446L175.896 11.0397L176.363 11.863C177.17 13.2637 178.186 14.4995 178.969 15.9202C179.326 16.569 180.353 16.2176 180.071 15.484Z" fill="url(#paint11_linear)"/>
<path d="M169.867 33.0222C168.324 31.8669 166.818 30.6198 165.173 29.6115C163.555 28.6206 161.691 28.1341 160.153 26.9988C159.008 26.1953 158.116 25.0816 157.582 23.7887C157.084 22.3272 157.021 20.7524 157.401 19.2558C157.413 19.1643 157.395 19.0714 157.349 18.9912C157.303 18.9109 157.233 18.8477 157.148 18.811C157.063 18.7744 156.969 18.7663 156.879 18.7881C156.79 18.8098 156.709 18.8601 156.651 18.9315C155.84 20.4541 155.462 22.17 155.559 23.8922C155.656 25.6144 156.224 27.2771 157.201 28.699C158.567 30.3745 160.394 31.6131 162.456 32.2616C164.741 33.036 167.096 33.5858 169.488 33.9034C169.595 33.917 169.704 33.8954 169.798 33.8416C169.892 33.7879 169.966 33.705 170.009 33.6055C170.052 33.506 170.061 33.3953 170.036 33.29C170.01 33.1848 169.951 33.0908 169.867 33.0222Z" fill="url(#paint12_linear)"/>
<path d="M186.238 83.7831C185.49 80.2152 184.803 76.6402 184.078 73.0701C183.366 69.5611 182.568 66.045 182.193 62.4797C181.494 55.8233 182.424 49.1156 181.688 42.4732C181.256 38.8887 180.157 35.4167 178.447 32.2364C178.028 31.4364 176.716 31.924 177.117 32.7641C178.355 35.7059 179.024 38.8554 179.09 42.0462C179.331 45.2616 179.29 48.5058 179.258 51.7283C179.078 58.6676 179.735 65.6033 181.217 72.3851C182.162 76.3904 183.423 80.2557 184.674 84.1702C184.949 85.0325 186.425 84.6854 186.238 83.7831Z" fill="url(#paint13_linear)"/>
<path d="M137.384 9.8291C133.635 10.7947 130.014 12.2014 126.597 14.0198C124.931 14.9626 123.386 16.1482 121.668 16.9834C119.855 17.8025 117.911 18.2923 115.926 18.43C115.788 18.4477 115.662 18.519 115.576 18.6285C115.49 18.738 115.45 18.877 115.465 19.0156C115.48 19.1541 115.549 19.2812 115.657 19.3695C115.765 19.4577 115.903 19.5001 116.042 19.4875C118.066 19.3175 120.071 18.9792 122.039 18.476C123.843 18.1174 125.589 17.5154 127.231 16.6866C130.619 14.5213 134.165 12.6126 137.839 10.9768C138.598 10.6973 138.134 9.61503 137.384 9.8291Z" fill="url(#paint14_linear)"/>
<path d="M203.208 32.006C202.18 28.7741 200.398 25.8328 198.009 23.4245C197.473 22.9283 196.567 23.7981 197.084 24.3338C199.436 26.7786 200.783 30.0175 200.858 33.4083C201.071 36.7013 200.651 40.0045 199.619 43.1391L199.021 44.389L197.474 44.5268C196.595 44.5568 195.715 44.4928 194.85 44.336C193.174 44.054 191.565 43.4626 190.105 42.592C188.703 41.7315 187.408 40.7084 186.247 39.5441C184.976 38.3821 184.004 36.9308 183.414 35.3134C183.224 34.5922 182.146 35.0269 182.332 35.7421C182.581 36.6871 182.617 37.665 182.903 38.6073C183.195 39.5639 183.583 40.4887 184.061 41.3676C185.026 43.1847 186.429 44.7331 188.143 45.8735C189.984 47.0999 192.063 47.9255 194.245 48.2964L194.299 48.3045L193.17 48.6986C191.738 49.1024 190.258 49.3083 188.77 49.3106C187.973 49.3282 187.176 49.2716 186.39 49.1414C185.536 49.1215 184.7 48.8887 183.958 48.464C183.849 48.3835 183.714 48.3446 183.579 48.3542C183.443 48.3639 183.316 48.4214 183.219 48.5166C183.122 48.6118 183.062 48.7383 183.05 48.8735C183.038 49.0087 183.075 49.1437 183.154 49.2544C183.866 50.5351 184.986 51.5416 186.335 52.1147C187.79 52.6241 189.323 52.8728 190.864 52.8494C193.987 52.898 197.043 51.941 199.58 50.1199C202.045 47.8866 203.728 44.9214 204.381 41.6606C205.034 38.3998 204.623 35.0156 203.208 32.006Z" fill="url(#paint15_linear)"/>
<path d="M192.226 23.8739C191.319 23.688 190.388 23.6446 189.468 23.7453L189.256 23.6274C188.204 23.4325 187.135 23.3405 186.065 23.3528C184.87 23.2121 183.689 22.9745 182.533 22.6424C180.248 21.9164 178.12 20.7687 176.259 19.2588C175.934 19.0074 175.439 19.4556 175.731 19.7778C177.437 21.6238 179.54 23.0588 181.881 23.9745C183.033 24.4592 184.241 24.7995 185.476 24.9875L185.941 25.0557C185.418 25.4542 184.988 25.9625 184.682 26.545C184.263 27.3559 185.296 27.8673 185.918 27.5154C186.855 26.8415 187.826 26.2154 188.826 25.6395C189.89 25.1384 191.037 24.8399 192.21 24.7594C192.735 24.7313 192.701 23.9745 192.226 23.8739Z" fill="url(#paint16_linear)"/>
<path d="M198.24 36.4115C197.198 37.4614 195.359 37.0062 194.084 37.4387C193.933 37.501 193.801 37.6016 193.7 37.7307C193.6 37.8598 193.534 38.0129 193.511 38.1748C193.488 38.3367 193.507 38.5019 193.567 38.6541C193.627 38.8063 193.726 38.9402 193.853 39.0426C194.301 39.3545 194.827 39.5344 195.372 39.562C195.917 39.5897 196.459 39.4638 196.936 39.1988C197.394 39.0032 197.81 38.7229 198.163 38.3728L198.486 38.0441L199.214 37.1743C199.726 36.5413 198.786 35.865 198.24 36.4115Z" fill="url(#paint17_linear)"/>
<path d="M211.566 98.1757C210.427 98.3868 209.276 98.5312 208.12 98.6082C206.971 98.6067 205.823 98.518 204.688 98.3428C202.237 97.9121 199.761 97.6435 197.274 97.5389C196.102 97.5546 194.934 97.6705 193.781 97.8854C192.682 98.1846 191.532 98.2495 190.405 98.0757C189.898 97.984 189.422 97.766 189.021 97.4417C188.62 97.1174 188.308 96.6973 188.112 96.2204C187.683 95.223 187.365 94.1815 187.163 93.1146C187.027 92.4897 186.054 92.5681 186.154 93.2227C186.367 95.3985 187.145 97.4808 188.412 99.2629C190.127 101.43 193.284 100.746 195.66 100.713C198.399 100.835 201.124 101.167 203.812 101.705C206.64 102.351 209.589 102.221 212.349 101.33C212.709 101.176 213.002 100.899 213.176 100.549C213.35 100.199 213.394 99.799 213.3 99.4198C213.205 99.0405 212.979 98.7071 212.662 98.4792C212.344 98.2512 211.956 98.1437 211.566 98.1757Z" fill="url(#paint18_linear)"/>
<path d="M199.581 103.729C197 101.49 193.203 103.08 190.224 103.445C188.811 103.655 187.368 103.483 186.044 102.948C184.72 102.412 183.564 101.533 182.695 100.4C182.409 100.047 181.744 100.366 181.965 100.81C182.652 102.145 183.603 103.326 184.762 104.282C185.92 105.237 187.261 105.946 188.703 106.367C190.478 106.722 192.305 106.731 194.084 106.393C195.85 106.189 197.603 105.877 199.331 105.458C200.123 105.25 200.094 104.174 199.581 103.729Z" fill="url(#paint19_linear)"/>
<path d="M250.332 43.4672C248.63 42.5789 246.992 41.5748 245.427 40.462C243.69 39.318 241.791 38.4387 239.794 37.8531C237.619 37.2229 235.521 36.3503 233.54 35.2517C231.4 34.0505 229.279 32.8131 227.15 31.5924C222.889 29.1494 218.631 26.7 214.351 24.29C210.297 21.8241 206.01 19.7645 201.552 18.1412C196.4 16.4475 191.212 15.0209 185.952 13.7083C185.452 13.5834 185.253 14.3635 185.709 14.5597C190.19 16.4859 194.677 18.2899 199.269 19.9338C201.524 20.6974 203.734 21.5859 205.89 22.5952C207.995 23.6256 210.001 24.8582 212.025 26.034C216.335 28.5362 220.656 31.017 224.989 33.4764L231.48 37.1784C233.396 38.3738 235.462 39.3093 237.625 39.9604C240.018 40.3303 242.336 41.0785 244.494 42.1768C245.417 42.7542 246.324 43.3661 247.295 43.8592C248.193 44.3067 249.205 44.4761 250.201 44.3457C250.3 44.3325 250.392 44.2873 250.464 44.217C250.535 44.1467 250.582 44.055 250.597 43.9559C250.612 43.8567 250.594 43.7554 250.546 43.6673C250.498 43.5792 250.423 43.5089 250.332 43.4672Z" fill="url(#paint20_linear)"/>
<path d="M252.463 49.3295C250.864 49.0114 249.283 48.6048 247.729 48.1115C246.177 47.4884 244.658 46.7835 243.18 46C240.133 44.4376 237.028 42.9494 234.05 41.2589C231.101 39.4608 228.03 37.8701 224.86 36.4984C221.984 35.4147 219.035 34.534 216.035 33.863C212.638 33.1921 209.377 31.9584 206.387 30.2128C206.294 30.1443 206.177 30.1148 206.062 30.1307C205.947 30.1465 205.843 30.2064 205.771 30.2977C205.7 30.389 205.667 30.5045 205.679 30.6198C205.691 30.7352 205.747 30.8412 205.836 30.9156C210.78 34.6162 216.449 37.232 222.473 38.5921C225.841 39.7728 229.207 41.02 232.44 42.5309C235.673 44.0419 238.791 45.7891 241.945 47.4655C243.57 48.3682 245.244 49.1803 246.958 49.8982C248.668 50.7066 250.534 51.1287 252.425 51.1346C253.526 51.0459 253.4 49.5776 252.463 49.3295Z" fill="url(#paint21_linear)"/>
<path d="M251.164 46.3878C250.399 45.9114 249.494 45.712 248.6 45.8229C248.477 45.8397 248.364 45.8999 248.281 45.9926C248.199 46.0854 248.152 46.2046 248.149 46.3288C248.146 46.4531 248.188 46.5742 248.267 46.6703C248.346 46.7664 248.456 46.8313 248.579 46.8533C249.332 46.9338 250.002 47.2317 250.738 47.3755C250.858 47.3905 250.98 47.3661 251.086 47.3059C251.191 47.2457 251.274 47.1529 251.322 47.0416C251.37 46.9302 251.381 46.8063 251.352 46.6884C251.324 46.5705 251.258 46.465 251.164 46.3878Z" fill="url(#paint22_linear)"/>
<defs>
<linearGradient id="paint0_linear" x1="18.2001" y1="108.025" x2="16.3019" y2="114.535" gradientUnits="userSpaceOnUse">
<stop stop-color="#2DB7E6"/>
<stop offset="0.69382" stop-color="#38EBCB"/>
</linearGradient>
<linearGradient id="paint1_linear" x1="37.6079" y1="98.2312" x2="30.5755" y2="101.481" gradientUnits="userSpaceOnUse">
<stop stop-color="#2DB7E6"/>
<stop offset="0.69382" stop-color="#38EBCB"/>
</linearGradient>
<linearGradient id="paint2_linear" x1="75.9123" y1="70.0453" x2="50.3068" y2="87.3457" gradientUnits="userSpaceOnUse">
<stop stop-color="#2DB7E6"/>
<stop offset="0.69382" stop-color="#38EBCB"/>
</linearGradient>
<linearGradient id="paint3_linear" x1="128.185" y1="28.5275" x2="97.9137" y2="54.4525" gradientUnits="userSpaceOnUse">
<stop stop-color="#2DB7E6"/>
<stop offset="0.69382" stop-color="#38EBCB"/>
</linearGradient>
<linearGradient id="paint4_linear" x1="172.986" y1="44.8473" x2="148.721" y2="51.4682" gradientUnits="userSpaceOnUse">
<stop stop-color="#2DB7E6"/>
<stop offset="0.69382" stop-color="#38EBCB"/>
</linearGradient>
<linearGradient id="paint5_linear" x1="51.449" y1="66.2942" x2="16.5968" y2="96.2749" gradientUnits="userSpaceOnUse">
<stop stop-color="#2DB7E6"/>
<stop offset="0.69382" stop-color="#38EBCB"/>
</linearGradient>
<linearGradient id="paint6_linear" x1="92.9223" y1="32.0089" x2="73.6532" y2="44.2541" gradientUnits="userSpaceOnUse">
<stop stop-color="#2DB7E6"/>
<stop offset="0.69382" stop-color="#38EBCB"/>
</linearGradient>
<linearGradient id="paint7_linear" x1="99.7724" y1="20.6794" x2="70.8263" y2="43.0018" gradientUnits="userSpaceOnUse">
<stop stop-color="#2DB7E6"/>
<stop offset="0.69382" stop-color="#38EBCB"/>
</linearGradient>
<linearGradient id="paint8_linear" x1="93.1974" y1="88.9001" x2="82.7243" y2="92.4777" gradientUnits="userSpaceOnUse">
<stop stop-color="#2DB7E6"/>
<stop offset="0.69382" stop-color="#38EBCB"/>
</linearGradient>
<linearGradient id="paint9_linear" x1="91.6113" y1="67.6619" x2="87.3026" y2="68.3151" gradientUnits="userSpaceOnUse">
<stop stop-color="#2DB7E6"/>
<stop offset="0.69382" stop-color="#38EBCB"/>
</linearGradient>
<linearGradient id="paint10_linear" x1="146.347" y1="7.45173" x2="128.105" y2="24.4768" gradientUnits="userSpaceOnUse">
<stop stop-color="#2DB7E6"/>
<stop offset="0.69382" stop-color="#38EBCB"/>
</linearGradient>
<linearGradient id="paint11_linear" x1="173.358" y1="5.33127" x2="157.09" y2="14.6458" gradientUnits="userSpaceOnUse">
<stop stop-color="#2DB7E6"/>
<stop offset="0.69382" stop-color="#38EBCB"/>
</linearGradient>
<linearGradient id="paint12_linear" x1="165.784" y1="21.4997" x2="155.678" y2="27.4669" gradientUnits="userSpaceOnUse">
<stop stop-color="#2DB7E6"/>
<stop offset="0.69382" stop-color="#38EBCB"/>
</linearGradient>
<linearGradient id="paint13_linear" x1="183.545" y1="41.34" x2="174.988" y2="42.259" gradientUnits="userSpaceOnUse">
<stop stop-color="#2DB7E6"/>
<stop offset="0.69382" stop-color="#38EBCB"/>
</linearGradient>
<linearGradient id="paint14_linear" x1="131.531" y1="11.5452" x2="124.62" y2="21.5482" gradientUnits="userSpaceOnUse">
<stop stop-color="#2DB7E6"/>
<stop offset="0.69382" stop-color="#38EBCB"/>
</linearGradient>
<linearGradient id="paint15_linear" x1="198.103" y1="28.6002" x2="180.833" y2="36.6481" gradientUnits="userSpaceOnUse">
<stop stop-color="#2DB7E6"/>
<stop offset="0.69382" stop-color="#38EBCB"/>
</linearGradient>
<linearGradient id="paint16_linear" x1="187.607" y1="20.705" x2="181.311" y2="28.4919" gradientUnits="userSpaceOnUse">
<stop stop-color="#2DB7E6"/>
<stop offset="0.69382" stop-color="#38EBCB"/>
</linearGradient>
<linearGradient id="paint17_linear" x1="197.638" y1="36.8148" x2="195.086" y2="39.5604" gradientUnits="userSpaceOnUse">
<stop stop-color="#2DB7E6"/>
<stop offset="0.69382" stop-color="#38EBCB"/>
</linearGradient>
<linearGradient id="paint18_linear" x1="205.348" y1="94.3824" x2="199.207" y2="105.302" gradientUnits="userSpaceOnUse">
<stop stop-color="#2DB7E6"/>
<stop offset="0.69382" stop-color="#38EBCB"/>
</linearGradient>
<linearGradient id="paint19_linear" x1="194.647" y1="101.399" x2="190.432" y2="108.722" gradientUnits="userSpaceOnUse">
<stop stop-color="#2DB7E6"/>
<stop offset="0.69382" stop-color="#38EBCB"/>
</linearGradient>
<linearGradient id="paint20_linear" x1="231.441" y1="19.2197" x2="208.848" y2="48.7577" gradientUnits="userSpaceOnUse">
<stop stop-color="#2DB7E6"/>
<stop offset="0.69382" stop-color="#38EBCB"/>
</linearGradient>
<linearGradient id="paint21_linear" x1="239.228" y1="33.9079" x2="224.05" y2="55.0614" gradientUnits="userSpaceOnUse">
<stop stop-color="#2DB7E6"/>
<stop offset="0.69382" stop-color="#38EBCB"/>
</linearGradient>
<linearGradient id="paint22_linear" x1="250.421" y1="46.0786" x2="249.24" y2="47.554" gradientUnits="userSpaceOnUse">
<stop stop-color="#2DB7E6"/>
<stop offset="0.69382" stop-color="#38EBCB"/>
</linearGradient>
</defs>
</svg>
