<svg width="20" height="20" viewBox="0 0 20 20" fill="none" xmlns="http://www.w3.org/2000/svg">
<path fill-rule="evenodd" clip-rule="evenodd" d="M10 20C15.5228 20 20 15.5228 20 10C20 4.47715 15.5228 0 10 0C4.47715 0 0 4.47715 0 10C0 15.5228 4.47715 20 10 20ZM8.16663 14.5834C8.40984 14.5834 8.52098 14.4751 8.65532 14.3444L8.66663 14.3334L9.86785 13.1653L12.3666 15.0115C12.8265 15.2652 13.1584 15.1338 13.273 14.5845L14.9134 6.85425C15.0813 6.1809 14.6567 5.8755 14.2168 6.07523L4.58427 9.78948C3.92677 10.0532 3.9306 10.42 4.46442 10.5835L6.93634 11.355L12.6591 7.74459C12.9292 7.58076 13.1772 7.66884 12.9737 7.84945L8.33664 12.034L8.33678 12.0341L8.16663 14.5834Z" fill="#B9B9B9" fill-opacity="0.5"/>
</svg>
