<svg width="20" height="20" viewBox="0 0 20 20" fill="none" xmlns="http://www.w3.org/2000/svg">
<path fill-rule="evenodd" clip-rule="evenodd" d="M10 0C4.47715 0 0 4.47715 0 10C0 15.5228 4.47715 20 10 20C15.5228 20 20 15.5228 20 10C20 4.47715 15.5228 0 10 0ZM10.8142 13.1567C10.7156 13.2606 10.5231 13.2816 10.5231 13.2816H9.88554C9.88554 13.2816 8.47902 13.3646 7.23997 12.0987C5.88874 10.7175 4.6956 7.97723 4.6956 7.97723C4.6956 7.97723 4.62674 7.79748 4.70134 7.71093C4.78533 7.61312 5.01436 7.60697 5.01436 7.60697L6.53827 7.59724C6.53827 7.59724 6.68174 7.62029 6.78452 7.69454C6.86955 7.756 6.91703 7.8702 6.91703 7.8702C6.91703 7.8702 7.16328 8.48165 7.48934 9.03473C8.12635 10.1148 8.42268 10.3508 8.63866 10.2351C8.95377 10.0666 8.85934 8.70851 8.85934 8.70851C8.85934 8.70851 8.86508 8.21587 8.70075 7.99617C8.57345 7.82615 8.33346 7.77648 8.22756 7.76265C8.14148 7.75139 8.28234 7.55576 8.46493 7.46819C8.73935 7.33658 9.2235 7.3289 9.79581 7.33453C10.2419 7.33914 10.3702 7.36628 10.5445 7.40776C10.9489 7.50356 10.9362 7.81056 10.909 8.47312C10.9009 8.67127 10.8914 8.90123 10.8914 9.16685C10.8914 9.22654 10.8896 9.29016 10.8878 9.35562C10.8783 9.69506 10.8675 10.0838 11.0954 10.2284C11.2122 10.3022 11.4976 10.2392 12.2118 9.04906C12.5504 8.48472 12.804 7.82155 12.804 7.82155C12.804 7.82155 12.8598 7.70325 12.9459 7.65255C13.034 7.60083 13.153 7.6167 13.153 7.6167L14.7567 7.60697C14.7567 7.60697 15.2388 7.55013 15.3165 7.76419C15.3984 7.98798 15.1365 8.51135 14.4813 9.36862C13.8597 10.182 13.5572 10.4815 13.585 10.7464C13.6053 10.9399 13.8019 11.115 14.1792 11.4585C14.9669 12.1764 15.178 12.554 15.2287 12.6448C15.2329 12.6523 15.236 12.6579 15.2383 12.6615C15.5915 13.2366 14.8465 13.2816 14.8465 13.2816L13.4217 13.3011C13.4217 13.3011 13.116 13.3605 12.7132 13.0891C12.5022 12.947 12.2961 12.715 12.0997 12.494C11.7998 12.1565 11.5228 11.8447 11.2863 11.9184C10.8893 12.0423 10.9013 12.8817 10.9013 12.8817C10.9013 12.8817 10.9044 13.0614 10.8142 13.1567Z" fill="#B9B9B9" fill-opacity="0.5"/>
</svg>
