<svg width="20" height="20" viewBox="0 0 20 20" fill="none" xmlns="http://www.w3.org/2000/svg">
<path fill-rule="evenodd" clip-rule="evenodd" d="M10 0C4.47715 0 0 4.47715 0 10C0 15.5228 4.47715 20 10 20C15.5228 20 20 15.5228 20 10C20 4.47715 15.5228 0 10 0ZM14.1673 6.56214C14.6263 6.68808 14.9877 7.05917 15.1104 7.53043C15.3333 8.38452 15.3333 10.1666 15.3333 10.1666C15.3333 10.1666 15.3333 11.9486 15.1104 12.8027C14.9877 13.274 14.6263 13.6451 14.1673 13.7711C13.3355 13.9999 9.99996 13.9999 9.99996 13.9999C9.99996 13.9999 6.66438 13.9999 5.83257 13.7711C5.3736 13.6451 5.01214 13.274 4.88947 12.8027C4.66663 11.9486 4.66663 10.1666 4.66663 10.1666C4.66663 10.1666 4.66663 8.38452 4.88947 7.53043C5.01214 7.05917 5.3736 6.68808 5.83257 6.56214C6.66438 6.33325 9.99996 6.33325 9.99996 6.33325C9.99996 6.33325 13.3355 6.33325 14.1673 6.56214Z" fill="#B9B9B9" fill-opacity="0.5"/>
<path fill-rule="evenodd" clip-rule="evenodd" d="M9 12.0001V8.66675L11.6667 10.3335L9 12.0001Z" fill="#B9B9B9" fill-opacity="0.5"/>
</svg>
